<?xml version="1.0" encoding="UTF-8" standalone="no"?>
<svg
   viewBox="0 0 60.000001 60.000001"
   version="1.1"
   id="svg3"
   sodipodi:docname="begin-nightly.svg"
   inkscape:version="1.3 (0e150ed6c4, 2023-07-21)"
   width="60"
   height="60"
   inkscape:export-filename="begin-nightly.svg"
   inkscape:export-xdpi="96"
   inkscape:export-ydpi="96"
   xmlns:inkscape="http://www.inkscape.org/namespaces/inkscape"
   xmlns:sodipodi="http://sodipodi.sourceforge.net/DTD/sodipodi-0.dtd"
   xmlns="http://www.w3.org/2000/svg"
   xmlns:svg="http://www.w3.org/2000/svg">
  <defs
     id="defs3" />
  <sodipodi:namedview
     id="namedview3"
     pagecolor="#ffffff"
     bordercolor="#666666"
     borderopacity="1.0"
     inkscape:showpageshadow="2"
     inkscape:pageopacity="0.0"
     inkscape:pagecheckerboard="0"
     inkscape:deskcolor="#d1d1d1"
     inkscape:zoom="14.383607"
     inkscape:cx="27.28801"
     inkscape:cy="28.817529"
     inkscape:window-width="2560"
     inkscape:window-height="1440"
     inkscape:window-x="0"
     inkscape:window-y="0"
     inkscape:window-maximized="1"
     inkscape:current-layer="svg3" />
  <g
     id="g1"
     transform="translate(0.27178939,0.66732041)">
    <path
       d="m 46.825,32.586 c -2.26,2.267 -5.217,3.705 -8.393,4.081 0.033,-3.08 -0.838,-6.1 -2.509,-8.685 0.845,0.125 1.709,0.052 2.521,-0.211 0.813,-0.264 1.552,-0.712 2.164,-1.31 2.208,-2.159 2.179,-5.76 -0.005,-7.944 l -3.873,-3.873 6.169,-6.172 3.925,3.923 c 4.183,4.186 5.228,10.319 3.132,15.477 -0.717,1.765 -1.781,3.369 -3.131,4.714 z"
       fill="#3414FC"
       style="fill:#141414;fill-opacity:1"
       id="path1" />
    <path
       d="m 22.711,44.358 -6.17,6.172 -3.922,-3.925 C 8.435,42.421 7.391,36.287 9.485,31.131 c 0.963,-2.362 2.539,-4.422 4.566,-5.967 2.026,-1.547 4.428,-2.524 6.96,-2.828 -0.036,3.077 0.836,6.097 2.507,8.684 -0.844,-0.124 -1.707,-0.053 -2.52,0.211 -0.812,0.263 -1.553,0.713 -2.165,1.31 -2.208,2.158 -2.179,5.76 0.005,7.944 z"
       fill="#3414FC"
       style="fill:#141414;fill-opacity:1"
       id="path2" />
    <path
       d="m 32.806,46.605 -3.923,3.925 -6.172,-6.172 3.924,-3.924 c 1.041,-1.041 1.626,-2.451 1.626,-3.923 0,-1.472 -0.585,-2.883 -1.626,-3.925 -2.678,-2.677 -4.181,-6.309 -4.181,-10.095 0,-3.786 1.503,-7.417 4.181,-10.096 l 3.924,-3.923 6.171,6.172 -3.924,3.924 c -1.04,1.041 -1.624,2.453 -1.624,3.923 0,1.472 0.584,2.883 1.624,3.924 2.678,2.677 4.183,6.308 4.183,10.096 0,3.787 -1.505,7.417 -4.183,10.094 z"
       fill="#3414FC"
       style="fill:#141414;fill-opacity:1"
       id="path3" />
  </g>
</svg>
