<?xml version="1.0" encoding="utf-8"?>
<svg viewBox="0 0 60 60" xmlns="http://www.w3.org/2000/svg">
  <path d="M 46.825 32.586 C 44.565 34.853 41.608 36.291 38.432 36.667 C 38.465 33.587 37.594 30.567 35.923 27.982 C 36.768 28.107 37.632 28.034 38.444 27.771 C 39.257 27.507 39.996 27.059 40.608 26.461 C 42.816 24.302 42.787 20.701 40.603 18.517 L 36.73 14.644 L 42.899 8.472 L 46.824 12.395 C 51.007 16.581 52.052 22.714 49.956 27.872 C 49.239 29.637 48.175 31.241 46.825 32.586 Z" fill="#3414FC" style=""/>
  <path d="M 22.711 44.358 L 16.541 50.53 L 12.619 46.605 C 8.435 42.421 7.391 36.287 9.485 31.131 C 10.448 28.769 12.024 26.709 14.051 25.164 C 16.077 23.617 18.479 22.64 21.011 22.336 C 20.975 25.413 21.847 28.433 23.518 31.02 C 22.674 30.896 21.811 30.967 20.998 31.231 C 20.186 31.494 19.445 31.944 18.833 32.541 C 16.625 34.699 16.654 38.301 18.838 40.485 L 22.711 44.358 Z" fill="#3414FC" style=""/>
  <path d="M 32.806 46.605 L 28.883 50.53 L 22.711 44.358 L 26.635 40.434 C 27.676 39.393 28.261 37.983 28.261 36.511 C 28.261 35.039 27.676 33.628 26.635 32.586 C 23.957 29.909 22.454 26.277 22.454 22.491 C 22.454 18.705 23.957 15.074 26.635 12.395 L 30.559 8.472 L 36.73 14.644 L 32.806 18.568 C 31.766 19.609 31.182 21.021 31.182 22.491 C 31.182 23.963 31.766 25.374 32.806 26.415 C 35.484 29.092 36.989 32.723 36.989 36.511 C 36.989 40.298 35.484 43.928 32.806 46.605 Z" fill="#3414FC" style=""/>
</svg>