<?xml version="1.0" encoding="UTF-8" standalone="no"?>
<svg
   clip-rule="evenodd"
   fill-rule="evenodd"
   stroke-linejoin="round"
   stroke-miterlimit="2"
   viewBox="0 0 39.999742 30.001312"
   version="1.1"
   id="svg2"
   width="39.999744"
   height="30.001312"
   xmlns="http://www.w3.org/2000/svg"
   xmlns:svg="http://www.w3.org/2000/svg">
  <defs
     id="defs2" />
  <g
     id="g1"
     transform="matrix(0.81691447,0,0,0.81814376,-6.1185783,-11.139996)"
     style="fill:#00cb7a;fill-opacity:1">
    <path
       id="path2"
       style="fill:#ff3e31;fill-opacity:1;stroke:none;stroke-width:1.21725;stroke-dasharray:none;stroke-opacity:1"
       d="m 25.586061,13.616195 c -1.126433,-0.0017 -2.246353,0.188337 -3.299382,0.575331 -2.259782,0.829788 -5.661245,2.877899 -7.26103,6.225984 -1.561863,3.269549 -1.049586,7.524655 -1.049586,7.524655 -3.057113,1.536607 -5.3645861,4.387401 -6.1803629,7.694152 -1.7401874,7.053711 4.2083029,14.471976 11.1844249,14.60528 9.186713,0.05993 18.372686,0.0589 27.559399,0 6.376588,-0.121937 11.018681,-6.6235 9.685359,-12.449581 C 55.01454,32.506381 48.39722,29.863913 48.39722,29.863913 48.855325,25.472134 46.264637,21.090398 42.307709,19.402923 39.248546,18.098822 35.319236,19.07348 35.319236,19.07348 33.64054,16.516949 31.068695,14.940712 28.930869,14.191526 27.846582,13.811249 26.712494,13.617874 25.586061,13.616195 Z m 5.996267,13.843743 c 4.134944,0 7.500116,3.363451 7.500116,7.498396 v 0.73289 l 0.365801,-0.365252 h 0.0048 c 0.487493,-0.487493 1.279349,-0.487493 1.766842,0 0.487494,0.487494 0.487494,1.281469 0,1.768963 L 38.719034,39.5944 c -0.244997,0.242497 -0.564621,0.365251 -0.884617,0.365251 -0.319996,0 -0.63962,-0.120254 -0.884617,-0.365251 l -2.500835,-2.499465 c -0.487494,-0.487494 -0.487494,-1.281469 0,-1.768963 0.487493,-0.487493 1.28174,-0.487493 1.769233,0 l 0.36341,0.365252 v -0.73289 c 0,-2.757463 -2.241817,-4.998931 -4.99928,-4.998931 -0.339995,0 -0.678946,0.03515 -1.008941,0.102653 -0.674991,0.137498 -1.33766,-0.299013 -1.475158,-0.974004 -0.137499,-0.674991 0.295587,-1.337831 0.973078,-1.475329 0.494993,-0.1 1.003528,-0.152785 1.511021,-0.152785 z M 25.33263,29.96179 c 0.319996,0 0.64087,0.121505 0.884617,0.365252 l 2.500835,2.499465 c 0.487494,0.487493 0.487494,1.281469 0,1.768963 -0.244995,0.242495 -0.564622,0.362864 -0.884616,0.362864 -0.319996,0 -0.642011,-0.117869 -0.887008,-0.362864 l -0.36341,-0.365252 v 0.73289 c 0,2.75746 2.24182,4.998931 4.99928,4.998931 0.339996,0 0.678947,-0.03515 1.008941,-0.102653 0.677491,-0.137498 1.337661,0.299014 1.475159,0.974004 0.137498,0.67499 -0.295588,1.337831 -0.973079,1.475329 -0.494992,0.1 -1.003528,0.152785 -1.511021,0.152785 -4.13494,0 -7.500116,-3.363456 -7.500116,-7.498396 v -0.73289 l -0.365801,0.365252 c -0.487492,0.487492 -1.27935,0.487492 -1.766842,0 -0.487494,-0.487494 -0.487494,-1.28147 0,-1.768963 l 2.500835,-2.499465 c 0.243747,-0.243747 0.56223,-0.365252 0.882226,-0.365252 z" />
    <g
       id="g3"
       transform="matrix(2.4999688,0,0,2.4999688,16.582563,9.96227)"
       style="fill:#ff3e31;fill-opacity:1;stroke:none;stroke-width:1.00022;stroke-dasharray:none;stroke-opacity:1" />
  </g>
</svg>
