<?xml version="1.0" encoding="UTF-8" standalone="no"?>
<svg
   clip-rule="evenodd"
   fill-rule="evenodd"
   stroke-linejoin="round"
   stroke-miterlimit="2"
   viewBox="0 0 40.000013 29.999981"
   version="1.1"
   id="svg2"
   width="40.000015"
   height="29.999981"
   xmlns="http://www.w3.org/2000/svg"
   xmlns:svg="http://www.w3.org/2000/svg">
  <defs
     id="defs2" />
  <g
     id="g1"
     transform="matrix(0.81691447,0,0,0.81814376,-6.118419,-11.140004)"
     style="fill:#00cb7a;fill-opacity:1">
    <path
       d="m 22.522,14.765 c 2.055,-0.749 4.366,-0.736 6.482,0 2.086,0.725 4.596,2.25 6.234,4.724 0,0 3.835,-0.944 6.82,0.318 3.861,1.633 6.389,5.874 5.942,10.124 0,0 6.456,2.558 7.637,7.673 1.301,5.638 -3.228,11.928 -9.45,12.046 -8.964,0.057 -17.927,0.058 -26.891,0 C 12.489,49.521 6.685,42.343 8.383,35.517 c 0.796,-3.2 3.046,-5.958 6.029,-7.445 0,0 -0.5,-4.118 1.024,-7.282 1.561,-3.24 4.881,-5.222 7.086,-6.025 z"
       fill-rule="nonzero"
       id="path2"
       style="fill:none;fill-opacity:1;stroke:#ffffff;stroke-width:1.18283;stroke-dasharray:none;stroke-opacity:1" />
    <g
       id="g3"
       transform="matrix(2.4999688,0,0,2.4999688,16.582563,9.96227)"
       style="fill:#ffffff;fill-opacity:1;stroke:none;stroke-width:1.00022;stroke-dasharray:none;stroke-opacity:1">
      <path
         d="M 6.404,11.959 C 6.272,11.986 6.136,12 6,12 4.897,12 4,11.103 4,10 V 9.707 l 0.146,0.146 c 0.098,0.098 0.226,0.146 0.354,0.146 0.128,0 0.256,-0.049 0.354,-0.146 0.195,-0.195 0.195,-0.512 0,-0.707 l -1,-1 C 3.659,7.951 3.342,7.951 3.147,8.146 l -1,1 c -0.195,0.195 -0.195,0.512 0,0.707 0.195,0.195 0.512,0.195 0.707,0 L 3,9.707 V 10 c 0,1.654 1.346,3 3,3 0.203,0 0.406,-0.021 0.604,-0.061 0.271,-0.055 0.445,-0.32 0.39,-0.59 -0.055,-0.27 -0.319,-0.445 -0.59,-0.39 z"
         id="path2-6"
         style="fill:#ffffff;fill-opacity:1;stroke:none;stroke-width:1.00022;stroke-dasharray:none;stroke-opacity:1" />
      <path
         d="M 9.146,10.146 9,10.292 V 9.999 c 0,-1.654 -1.346,-3 -3,-3 C 5.797,6.999 5.594,7.02 5.396,7.06 5.125,7.115 4.951,7.38 5.006,7.65 5.061,7.92 5.326,8.095 5.596,8.04 5.728,8.013 5.864,7.999 6,7.999 c 1.103,0 2,0.897 2,2 v 0.293 L 7.854,10.146 c -0.195,-0.195 -0.512,-0.195 -0.707,0 -0.195,0.195 -0.195,0.512 0,0.707 l 1,1 c 0.098,0.098 0.226,0.146 0.354,0.146 0.128,0 0.256,-0.049 0.354,-0.146 l 1,-1 c 0.195,-0.195 0.195,-0.512 0,-0.707 -0.195,-0.195 -0.512,-0.195 -0.707,0 z"
         id="path3"
         style="fill:#ffffff;fill-opacity:1;stroke:none;stroke-width:1.00022;stroke-dasharray:none;stroke-opacity:1" />
    </g>
  </g>
</svg>
