<?xml version="1.0" encoding="UTF-8" standalone="no"?>
<svg
   clip-rule="evenodd"
   fill-rule="evenodd"
   stroke-linejoin="round"
   stroke-miterlimit="2"
   viewBox="0 0 39.999742 30.001314"
   version="1.1"
   id="svg2"
   width="39.999744"
   height="30.001314"
   xmlns="http://www.w3.org/2000/svg"
   xmlns:svg="http://www.w3.org/2000/svg">
  <defs
     id="defs2" />
  <g
     id="g1"
     transform="matrix(0.81691447,0,0,0.81814376,-6.1185771,-11.139995)"
     style="fill:#00cb7a;fill-opacity:1">
    <path
       id="path2"
       style="fill:#ffffff;fill-opacity:1;stroke:none;stroke-width:1.21725;stroke-dasharray:none;stroke-opacity:1"
       d="m 25.586059,13.616194 c -1.126433,-0.0017 -2.246353,0.188338 -3.299381,0.57533 -2.259785,0.82979 -5.661247,2.8779 -7.26103,6.225984 -1.561866,3.26955 -1.049586,7.524656 -1.049586,7.524656 -3.057114,1.536604 -5.3645864,4.387401 -6.1803634,7.694151 -1.7401874,7.053713 4.2083024,14.471978 11.1844254,14.60528 9.186714,0.05994 18.372684,0.0589 27.559399,0 6.376587,-0.121937 11.018683,-6.623498 9.685358,-12.44958 -1.210343,-5.285635 -7.827663,-7.928104 -7.827663,-7.928104 0.458107,-4.391777 -2.132583,-8.773512 -6.089511,-10.46099 -3.059164,-1.304099 -6.988472,-0.329442 -6.988472,-0.329442 -1.678696,-2.556533 -4.25054,-4.132768 -6.388368,-4.881955 -1.084286,-0.380275 -2.218374,-0.573651 -3.344808,-0.57533 z m 5.996268,13.843743 c 4.134944,0 7.500115,3.363451 7.500115,7.498395 v 0.73289 l 0.365801,-0.365251 h 0.0048 c 0.487494,-0.487493 1.279349,-0.487493 1.766843,0 0.487493,0.487493 0.487493,1.281469 0,1.768963 l -2.500836,2.499465 c -0.244996,0.242496 -0.564621,0.365251 -0.884616,0.365251 -0.319996,0 -0.639621,-0.120255 -0.884617,-0.365251 l -2.500836,-2.499465 c -0.487493,-0.487494 -0.487493,-1.28147 0,-1.768963 0.487494,-0.487493 1.28174,-0.487493 1.769234,0 l 0.36341,0.365251 v -0.73289 c 0,-2.757462 -2.241818,-4.99893 -4.99928,-4.99893 -0.339996,0 -0.678946,0.03515 -1.008942,0.102652 -0.674991,0.137498 -1.33766,-0.299012 -1.475158,-0.974003 -0.137498,-0.674991 0.295588,-1.337831 0.973079,-1.475329 0.494993,-0.1 1.003527,-0.152785 1.511021,-0.152785 z m -6.249698,2.501852 c 0.319994,0 0.640871,0.121505 0.884616,0.365252 l 2.500836,2.499465 c 0.487492,0.487492 0.487492,1.28147 0,1.768962 -0.244997,0.242497 -0.564621,0.362864 -0.884617,0.362864 -0.319996,0 -0.642012,-0.117867 -0.887007,-0.362864 l -0.363411,-0.365251 v 0.73289 c 0,2.75746 2.24182,4.99893 4.999281,4.99893 0.339994,0 0.678945,-0.03515 1.008941,-0.102652 0.67749,-0.137498 1.33766,0.299013 1.475158,0.974004 0.137498,0.67499 -0.295588,1.337831 -0.973078,1.475329 -0.494994,0.1 -1.003529,0.152785 -1.511021,0.152785 -4.134941,0 -7.500116,-3.363456 -7.500116,-7.498396 v -0.73289 l -0.365801,0.365251 c -0.487494,0.487494 -1.279349,0.487494 -1.766843,0 -0.487492,-0.487492 -0.487492,-1.28147 0,-1.768962 l 2.500836,-2.499465 c 0.243745,-0.243747 0.56223,-0.365252 0.882226,-0.365252 z" />
    <g
       id="g3"
       transform="matrix(2.4999688,0,0,2.4999688,16.582563,9.96227)"
       style="fill:#ffffff;fill-opacity:1;stroke:none;stroke-width:1.00022;stroke-dasharray:none;stroke-opacity:1" />
  </g>
</svg>
