<?xml version="1.0" encoding="UTF-8" standalone="no"?>
<svg
   clip-rule="evenodd"
   fill-rule="evenodd"
   stroke-linejoin="round"
   stroke-miterlimit="2"
   viewBox="0 0 40.000001 29.999998"
   version="1.1"
   id="svg2"
   width="40.000004"
   height="29.999998"
   xmlns="http://www.w3.org/2000/svg"
   xmlns:svg="http://www.w3.org/2000/svg">
  <defs
     id="defs2">
    <linearGradient
       id="swatch7">
      <stop
         style="stop-color:#000000;stop-opacity:1;"
         offset="0"
         id="stop8" />
    </linearGradient>
  </defs>
  <g
     id="g1"
     transform="matrix(0.81022831,0,0,0.81816176,-6.0680131,-11.140241)"
     style="fill:#00cb7a;fill-opacity:1">
    <path
       id="path2"
       style="fill:#00cb7a;fill-opacity:1;fill-rule:evenodd;stroke:none;stroke-width:1.22227;stroke-dasharray:none;stroke-opacity:1"
       d="m 25.733129,13.616195 c -1.135777,-0.0017 -2.263693,0.188342 -3.325456,0.57533 -2.278529,0.829777 -5.708679,2.877938 -7.321734,6.22598 -1.574819,3.269508 -1.057557,7.524651 -1.057557,7.524651 -3.082472,1.536586 -5.4082109,4.387438 -6.2307547,7.694147 -1.7546223,7.053623 4.2434377,14.469582 11.2774277,14.602884 9.262917,0.05993 18.524814,0.0589 27.787733,0 6.429482,-0.121935 11.108287,-6.621178 9.763903,-12.447186 -1.220383,-5.285567 -7.889902,-7.928098 -7.889902,-7.928098 0.461906,-4.391723 -2.150289,-8.773529 -6.140039,-10.460984 -3.08454,-1.304084 -7.047198,-0.329442 -7.047198,-0.329442 -1.692621,-2.5565 -4.28766,-4.132775 -6.443221,-4.881952 -1.093281,-0.380271 -2.237425,-0.573651 -3.373202,-0.57533 z m 5.848793,13.843734 c 4.13494,0 7.500778,3.363452 7.500778,7.498391 v 0.73289 l 0.365251,-0.365251 h 0.0048 c 0.487493,-0.487493 1.279081,-0.487493 1.766574,0 0.487494,0.487493 0.487494,1.281468 0,1.768961 l -2.499464,2.499464 c -0.244996,0.242497 -0.565679,0.365251 -0.885674,0.365251 -0.319995,0 -0.638291,-0.120254 -0.883287,-0.365251 L 34.449024,37.09492 c -0.487493,-0.487493 -0.487493,-1.281468 0,-1.768961 0.487493,-0.487493 1.281469,-0.487493 1.768961,0 l 0.365252,0.365251 v -0.73289 c 0,-2.75746 -2.243855,-4.998927 -5.001315,-4.998927 -0.339995,0 -0.679817,0.03515 -1.009812,0.102652 -0.67499,0.137498 -1.33783,-0.299013 -1.475328,-0.974003 -0.137498,-0.67499 0.2989,-1.33783 0.97639,-1.475328 0.494993,-0.1 1.001257,-0.152785 1.50875,-0.152785 z m -6.247466,2.501851 c 0.319996,0 0.639541,0.121505 0.883288,0.365251 l 2.499463,2.499464 c 0.487493,0.487493 0.487493,1.281469 0,1.768961 -0.244996,0.242497 -0.565679,0.362864 -0.885674,0.362864 -0.319996,0 -0.638291,-0.117867 -0.883287,-0.362864 l -0.365251,-0.365251 v 0.73289 c 0,2.75746 2.241467,4.998927 4.998927,4.998927 0.339995,0 0.679817,-0.03515 1.009812,-0.102652 0.67749,-0.137498 1.33783,0.299015 1.475328,0.974003 0.137498,0.674991 -0.296513,1.33783 -0.974003,1.475328 -0.494993,0.1 -1.003644,0.152785 -1.511137,0.152785 -4.13494,0 -7.498391,-3.363452 -7.498391,-7.498391 v -0.73289 l -0.365251,0.365251 c -0.487493,0.487492 -1.281469,0.487492 -1.768962,0 -0.487492,-0.487492 -0.487492,-1.281468 0,-1.768961 l 2.499464,-2.499464 c 0.243747,-0.243746 0.565679,-0.365251 0.885674,-0.365251 z" />
  </g>
</svg>
