<?xml version="1.0" encoding="utf-8"?>
<!-- Svg Vector Icons : http://www.onlinewebfonts.com/icon -->
<!DOCTYPE svg PUBLIC "-//W3C//DTD SVG 1.1//EN" "http://www.w3.org/Graphics/SVG/1.1/DTD/svg11.dtd">
<svg version="1.1" xmlns="http://www.w3.org/2000/svg" xmlns:xlink="http://www.w3.org/1999/xlink" x="0px" y="0px" viewBox="0 0 1000 1000" enable-background="new 0 0 1000 1000" xml:space="preserve">
<metadata> Svg Vector Icons : http://www.onlinewebfonts.com/icon </metadata>
<g><g transform="translate(0.000000,512.000000) scale(0.100000,-0.100000)"><path d="M2885.7,4994.6c-310.1-76.6-553.2-329.3-620.2-639.4c-13.4-61.3-21.1-312-21.1-635.6v-536h-536c-323.5,0-574.3-7.7-635.6-21.1c-317.8-68.9-576.2-327.4-645.1-645.1c-34.5-160.8-28.7-6527.9,5.7-6656.2c80.4-306.3,308.2-534.1,614.5-614.5c78.5-21.1,641.3-26.8,3034.2-26.8c2392.9,0,2955.7,5.8,3034.2,26.8c304.4,80.4,534.1,310.1,614.5,614.5c19.1,68.9,26.8,247,26.8,647v549.4h536c323.5,0,574.3,7.7,635.6,21.1c306.3,65.1,557.1,308.2,639.4,620.3c21.1,78.5,26.8,572.4,26.8,2609.2c0,2262.8-3.8,2519.3-30.6,2574.8c-42.1,84.2-2010,2056-2098.1,2101.9c-68.9,34.5-132.1,36.4-2278,34.5C3500.2,5017.6,2958.4,5011.8,2885.7,4994.6z M6900.1,3463.1c5.7-920.8,7.6-947.6,45.9-1001.2c21.1-28.7,76.6-72.7,122.5-95.7c84.2-44,88-44,999.3-44h915L8979,63.3l-5.7-2258.9l-63.2-61.3l-61.3-63.2H5919.9H2991l-61.3,63.2l-63.2,61.3v3233.3V4271l47.9,51.7c26.8,28.7,65.1,59.3,86.1,67c21.1,9.6,905.5,17.2,1966,17.2l1927.7,1.9L6900.1,3463.1z M8092.7,3509.1l574.3-574.3h-580h-578.1v574.3c0,315.9,1.9,574.3,5.7,574.3C7516.5,4083.4,7776.8,3825,8092.7,3509.1z M2244.4,183.9c0-1933.5,5.7-2408.2,26.8-2484.8c82.3-312,333.1-555.2,639.4-620.3c70.8-15.3,710.2-21.1,2168.9-21.1H7147l-5.7-545.6l-5.7-545.6l-63.2-61.3l-61.3-63.2H4082.2H1153.2l-61.3,63.2l-63.2,61.3v3233.3v3233.3l47.9,51.7c26.8,28.7,65.1,59.4,86.1,67c21.1,9.6,273.8,17.2,560.9,17.2l520.7,1.9V183.9z"/><path d="M3651.4,3769.4c-128.3-55.5-201-202.9-174.2-346.5c17.2-90,112.9-195.3,199.1-220.1c47.9-15.3,453.7-19.1,1242.4-15.3c1152.4,5.7,1171.6,5.7,1225.2,45.9c187.6,139.7,187.6,373.3,0,513c-53.6,40.2-70.8,40.2-1244.3,44C3938.6,3794.3,3697.4,3790.5,3651.4,3769.4z"/><path d="M3651.4,2544.3c-128.3-55.5-201-202.9-174.2-346.5c17.2-90,112.9-195.3,199.1-220.2c47.9-15.3,453.7-19.1,1242.4-15.3c1152.4,5.7,1171.6,5.7,1225.2,45.9c187.6,139.7,187.6,373.3,0,513c-53.6,40.2-70.8,40.2-1244.3,44C3938.6,2569.1,3697.4,2565.3,3651.4,2544.3z"/><path d="M3651.4,1319.1c-128.3-55.5-201-202.9-174.2-346.5c17.2-90,112.9-195.3,199.1-220.1c47.9-15.3,767.6-19.1,2285.7-15.3c2201.5,5.7,2214.9,5.7,2266.6,45.9c101.5,74.7,132.1,135.9,132.1,256.5c0,120.6-30.6,181.9-132.1,256.5c-51.7,40.2-63.2,40.2-2285.7,44C4114.7,1344,3697.4,1340.2,3651.4,1319.1z"/><path d="M3651.4,93.9c-128.3-55.5-201-202.9-174.2-346.5c17.2-90,112.9-195.3,199.1-220.2c47.9-15.3,629.8-19.1,1826.3-15.3c1738.2,5.7,1755.4,5.7,1807.1,46c101.5,74.6,132.1,135.9,132.1,256.5c0,120.6-30.6,181.9-132.1,256.5c-51.7,40.2-68.9,40.2-1826.3,44C4038.1,118.8,3697.4,115,3651.4,93.9z"/></g></g>
</svg>