<?xml version="1.0" encoding="UTF-8" standalone="no" ?>
<!DOCTYPE svg PUBLIC "-//W3C//DTD SVG 1.1//EN" "http://www.w3.org/Graphics/SVG/1.1/DTD/svg11.dtd">
<svg xmlns="http://www.w3.org/2000/svg" xmlns:xlink="http://www.w3.org/1999/xlink" version="1.1" width="45.870000000000005" height="45.870000000000005" viewBox="131.67026315789468 -63.23105263157894 45.870000000000005 45.870000000000005" xml:space="preserve">
<desc>Created with Fabric.js 4.6.0</desc>
<defs>
</defs>
<g transform="matrix(0.79 0 0 0.79 154.61 -40.3)" id="7leuWj3hHL3y2aaCWtx9Z"  >
<path style="stroke: rgb(255,255,255); stroke-width: 4; stroke-dasharray: none; stroke-linecap: butt; stroke-dashoffset: 0; stroke-linejoin: miter; stroke-miterlimit: 4; fill: none; fill-rule: nonzero; opacity: 1;" vector-effect="non-scaling-stroke"  transform=" translate(0, 0)" d="M -26.5 -15.257 C -26.5 -21.46634 -21.46634 -26.5 -15.257 -26.5 L 15.257 -26.5 L 15.257 -26.5 C 21.46634 -26.5 26.5 -21.46634 26.5 -15.257 L 26.5 15.257 L 26.5 15.257 C 26.5 21.46634 21.46634 26.5 15.257 26.5 L -15.257 26.5 L -15.257 26.5 C -21.46634 26.5 -26.5 21.46634 -26.5 15.257 z" stroke-linecap="round" />
</g>
<g transform="matrix(1.34 0 0 1.34 154.61 -40.3)" id="D8pcMddMqMq4tHpqr-s4V"  >
<path style="stroke: none; stroke-width: 1; stroke-dasharray: none; stroke-linecap: butt; stroke-dashoffset: 0; stroke-linejoin: miter; stroke-miterlimit: 4; fill: rgb(255,255,255); fill-rule: nonzero; opacity: 1;" vector-effect="non-scaling-stroke"  transform=" translate(-12, -12)" d="M 19.952 5.672 C 18.048000000000002 4.141 15.036000000000001 3.8819999999999997 14.908000000000001 3.8709999999999996 C 14.707 3.8539999999999996 14.516000000000002 3.9679999999999995 14.434000000000001 4.151999999999999 C 14.428 4.163999999999999 14.362000000000002 4.3149999999999995 14.289000000000001 4.549999999999999 C 15.548000000000002 4.761999999999999 17.095000000000002 5.189999999999999 18.495 6.058999999999999 C 18.719 6.1979999999999995 18.788 6.492999999999999 18.649 6.717999999999999 C 18.559 6.863999999999999 18.402 6.943999999999999 18.242 6.943999999999999 C 18.156000000000002 6.943999999999999 18.069000000000003 6.920999999999999 17.990000000000002 6.871999999999999 C 15.584 5.38 12.578 5.305 12 5.305 C 11.422 5.305 8.415 5.38 6.011 6.872 C 5.7860000000000005 7.012 5.492 6.942 5.352 6.718 C 5.212000000000001 6.493 5.282 6.199 5.506 6.059 C 6.906000000000001 5.191 8.452 4.7620000000000005 9.712 4.550000000000001 C 9.638 4.314000000000001 9.572 4.164000000000001 9.567 4.152000000000001 C 9.484 3.968 9.294 3.852 9.092 3.872 C 8.965 3.8819999999999997 5.953000000000001 4.141 4.023000000000001 5.694 C 3.015 6.625 1 12.073 1 16.783 C 1 16.866 1.022 16.948 1.063 17.02 C 2.4539999999999997 19.463 6.247999999999999 20.103 7.1129999999999995 20.131 C 7.117999999999999 20.131 7.122999999999999 20.131 7.127999999999999 20.131 C 7.280999999999999 20.131 7.424999999999999 20.058 7.514999999999999 19.934 L 8.389999999999999 18.732 C 6.030999999999999 18.122 4.825999999999999 17.087 4.7559999999999985 17.026 C 4.557999999999998 16.851 4.538999999999999 16.549 4.713999999999999 16.351 C 4.8889999999999985 16.153 5.189999999999999 16.134 5.387999999999999 16.308 C 5.416999999999999 16.334 7.635999999999999 18.217 12 18.217 C 16.372 18.217 18.591 16.326 18.613 16.307 C 18.811 16.134999999999998 19.113 16.153 19.287 16.352 C 19.461 16.55 19.442 16.851 19.244999999999997 17.025 C 19.174999999999997 17.087 17.97 18.121 15.610999999999997 18.730999999999998 L 16.485999999999997 19.933 C 16.575999999999997 20.057 16.72 20.13 16.872999999999998 20.13 C 16.877999999999997 20.13 16.883 20.13 16.887999999999998 20.13 C 17.752999999999997 20.102999999999998 21.546999999999997 19.462999999999997 22.938 17.019 C 22.978 16.947 23 16.866 23 16.783 C 23 12.073 20.985 6.625 19.952 5.672 z M 8.891 14.87 C 7.967 14.87 7.2170000000000005 14.013 7.2170000000000005 12.956999999999999 C 7.2170000000000005 11.900999999999998 7.966 11.043999999999999 8.891 11.043999999999999 C 9.815999999999999 11.043999999999999 10.565 11.900999999999998 10.565 12.956999999999999 C 10.565 14.013 9.816 14.87 8.891 14.87 z M 15.109 14.87 C 14.185 14.87 13.435 14.013 13.435 12.956999999999999 C 13.435 11.900999999999998 14.184000000000001 11.043999999999999 15.109 11.043999999999999 C 16.033 11.043999999999999 16.783 11.900999999999998 16.783 12.956999999999999 C 16.783 14.013 16.033 14.87 15.109 14.87 z" stroke-linecap="round" />
</g>
</svg>