<svg width="83" height="83" viewBox="0 0 83 83" fill="none" xmlns="http://www.w3.org/2000/svg">
<rect width="83" height="83" rx="11" fill="white"/>
<g clip-path="url(#clip0_106_1126)">
<path d="M62.0994 23.8556C58.4019 22.1881 54.4386 20.9556 50.294 20.2548C50.2571 20.2477 50.2189 20.2523 50.1847 20.2679C50.1505 20.2835 50.122 20.3093 50.1031 20.3418C49.5956 21.2336 49.0301 22.396 48.6338 23.3143C44.2381 22.6575 39.7692 22.6575 35.3735 23.3143C34.9321 22.2966 34.4343 21.3042 33.8824 20.3418C33.8637 20.3089 33.8354 20.2825 33.8013 20.2661C33.7672 20.2497 33.7289 20.244 33.6915 20.25C29.5493 20.9508 25.586 22.1833 21.8861 23.8532C21.8543 23.8666 21.8273 23.8893 21.8088 23.9185C14.2881 34.9747 12.2267 45.7579 13.2393 56.4057C13.2421 56.4318 13.2502 56.457 13.263 56.4799C13.2759 56.5027 13.2933 56.5227 13.3142 56.5386C17.7038 59.7345 22.5998 62.169 27.7973 63.7403C27.8335 63.7515 27.8722 63.7514 27.9085 63.7402C27.9447 63.729 27.9767 63.7071 28.0003 63.6775C29.1187 62.1817 30.1098 60.5949 30.9631 58.9336C30.9749 58.9108 30.9818 58.8859 30.9831 58.8603C30.9844 58.8347 30.9803 58.8091 30.9709 58.7853C30.9615 58.7615 30.9471 58.7399 30.9286 58.7221C30.9102 58.7044 30.8882 58.6908 30.864 58.6822C29.3028 58.0943 27.7902 57.3849 26.34 56.5604C26.3139 56.5455 26.292 56.5244 26.2761 56.499C26.2602 56.4735 26.2509 56.4445 26.249 56.4146C26.2471 56.3846 26.2526 56.3547 26.2651 56.3274C26.2776 56.3001 26.2967 56.2764 26.3207 56.2583C26.6252 56.0336 26.9297 55.7991 27.2197 55.5647C27.2458 55.5436 27.2772 55.5302 27.3105 55.526C27.3438 55.5217 27.3776 55.5267 27.4082 55.5406C36.8984 59.8036 47.1765 59.8036 56.5556 55.5406C56.5863 55.5259 56.6204 55.5202 56.6542 55.5241C56.6879 55.5279 56.7199 55.5412 56.7465 55.5623C57.0365 55.7991 57.3386 56.0336 57.6455 56.2583C57.6697 56.276 57.6891 56.2994 57.702 56.3265C57.7149 56.3535 57.7209 56.3833 57.7195 56.4132C57.718 56.4432 57.7092 56.4723 57.6938 56.498C57.6783 56.5236 57.6568 56.5451 57.631 56.5604C56.1858 57.3917 54.6827 58.095 53.1046 58.6798C53.0803 58.6886 53.0583 58.7025 53.0398 58.7205C53.0214 58.7385 53.007 58.7602 52.9976 58.7843C52.9882 58.8083 52.9841 58.834 52.9854 58.8598C52.9868 58.8855 52.9936 58.9107 53.0055 58.9336C53.8755 60.5938 54.8712 62.1743 55.9659 63.6751C55.9887 63.7059 56.0204 63.7289 56.0567 63.741C56.093 63.7531 56.1322 63.7537 56.1689 63.7427C61.3753 62.1759 66.2793 59.7402 70.6738 56.5386C70.6952 56.5237 70.7132 56.5043 70.7265 56.4818C70.7399 56.4592 70.7482 56.4342 70.7511 56.4081C71.9594 44.0976 68.7259 33.4015 62.1743 23.9233C62.1583 23.8925 62.1317 23.8685 62.0994 23.8556ZM32.3817 49.9218C29.5252 49.9218 27.1689 47.3384 27.1689 44.1701C27.1689 40.9995 29.4793 38.4185 32.3817 38.4185C35.3058 38.4185 37.6403 41.0212 37.5944 44.1701C37.5944 47.3408 35.2841 49.9218 32.3817 49.9218ZM51.6546 49.9218C48.7957 49.9218 46.4418 47.3384 46.4418 44.1701C46.4418 40.9995 48.7498 38.4185 51.6546 38.4185C54.5788 38.4185 56.9133 41.0212 56.8673 44.1701C56.8673 47.3408 54.5812 49.9218 51.6546 49.9218Z" fill="#0D0D0D"/>
</g>
<defs>
<clipPath id="clip0_106_1126">
<rect width="58" height="58" fill="white" transform="translate(13 13)"/>
</clipPath>
</defs>
</svg>
