<svg width="83" height="83" viewBox="0 0 83 83" fill="none" xmlns="http://www.w3.org/2000/svg">
<rect width="83" height="83" rx="11" fill="white"/>
<path d="M68 55.375V27.625C68 25.0658 65.9124 23 63.3263 23H19.6737C17.0876 23 15 25.0658 15 27.625V55.375C15 57.9342 17.0876 60 19.6737 60H63.3263C65.9124 60 68 57.9342 68 55.375ZM63.9183 27.2858C64.9465 28.3033 64.3857 29.3517 63.8248 29.8758L51.1746 41.3458L63.3263 53.8642C63.7002 54.2958 63.9494 54.9742 63.5132 55.4367C63.1082 55.93 62.1734 55.8992 61.7684 55.5908L48.1523 44.09L41.4844 50.1025L34.8477 44.09L21.2316 55.5908C20.8266 55.8992 19.8918 55.93 19.4868 55.4367C19.0506 54.9742 19.2998 54.2958 19.6737 53.8642L31.8254 41.3458L19.1752 29.8758C18.6143 29.3517 18.0535 28.3033 19.0817 27.2858C20.1099 26.2683 21.1693 26.7617 22.0417 27.5017L41.4844 43.0417L60.9583 27.5017C61.8307 26.7617 62.8901 26.2683 63.9183 27.2858Z" fill="#0D0D0D"/>
</svg>
