<?xml version="1.0" encoding="utf-8"?>
<svg viewBox="-113.884 -350.65 1185.686 1201.3" xmlns="http://www.w3.org/2000/svg">
  <g transform="matrix(0.1, 0, 0, -0.1, -118.083855, 929.350037)" fill="#9e9e9e" stroke="none">
    <path d="M6522 12711 c-488 -368 -825 -811 -986 -1298 -32 -96 -13 -89 -193 -65 l-121 17 -182 220 c-101 121 -185 219 -188 218 -2 -1 -60 -117 -127 -259 l-122 -257 -264 -105 c-145 -58 -266 -107 -269 -109 -5 -4 22 -30 270 -266 l144 -137 18 -252 c9 -139 17 -270 17 -291 l1 -39 46 27 c25 15 50 23 54 19 4 -5 19 -41 33 -80 14 -40 77 -199 140 -355 139 -343 194 -495 237 -655 29 -107 35 -121 52 -116 25 6 31 24 54 152 28 158 26 457 -5 600 -41 194 -130 392 -237 532 l-43 57 62 34 c132 74 98 72 331 12 114 -29 209 -55 211 -57 2 -2 20 -87 40 -188 61 -306 123 -517 168 -568 8 -10 31 -57 52 -107 39 -97 177 -387 181 -383 1 2 -4 55 -11 118 -30 266 -40 466 -40 840 1 439 17 658 75 1005 109 640 351 1260 678 1733 35 50 59 92 53 92 -6 0 -64 -40 -129 -89z" style="fill: rgb(0, 0, 0);"/>
    <path d="M7293 12162 l-111 -116 -159 -10 c-87 -5 -159 -10 -161 -11 -1 -1 32 -67 74 -145 l77 -143 -40 -159 c-23 -87 -38 -158 -34 -158 4 0 68 11 142 24 74 14 143 26 155 28 13 2 73 -30 157 -84 110 -70 137 -83 141 -70 2 9 13 82 23 162 l18 144 128 106 128 105 -148 71 -148 71 -60 151 c-33 84 -62 151 -65 151 -3 -1 -55 -54 -117 -117z" style="fill: rgb(0, 0, 0);"/>
    <path d="M1375 11221 l-60 -38 -75 8 c-41 4 -206 11 -367 15 l-292 7 -11 -28 c-6 -15 -9 -29 -8 -29 2 -1 28 -8 58 -15 83 -20 433 -121 438 -126 19 -19 -38 -15 -244 14 -129 19 -236 32 -239 30 -2 -3 25 -103 61 -223 35 -120 64 -224 64 -231 0 -6 -47 -106 -103 -221 l-104 -209 116 -6 c64 -4 170 -7 236 -8 l120 -1 176 -169 175 -169 80 225 79 224 125 66 c69 36 165 87 214 113 l89 48 -191 147 c-164 127 -191 151 -195 178 -2 18 -4 33 -2 35 8 9 444 -185 605 -271 462 -244 789 -485 1156 -851 263 -264 328 -341 934 -1106 92 -115 146 -177 148 -166 6 27 -28 283 -53 411 -186 929 -783 1626 -1722 2009 -298 122 -656 217 -1022 270 -100 15 -111 22 -111 74 0 17 -3 32 -7 32 -5 0 -35 -17 -68 -39z" style="fill: rgb(0, 0, 0);"/>
    <path d="M8569 10720 c-416 -75 -789 -231 -1081 -451 -244 -184 -396 -338 -778 -789 -63 -74 -170 -197 -238 -272 l-123 -138 35 -16 35 -17 93 53 c51 29 206 123 343 208 138 86 320 199 407 253 589 365 986 526 1428 579 124 14 371 -5 568 -46 813 -167 1617 -704 2070 -1381 30 -46 59 -83 64 -83 5 0 18 5 28 10 17 9 13 20 -57 141 -606 1057 -1239 1649 -1993 1867 -291 85 -608 117 -801 82z" style="fill: rgb(0, 0, 0);"/>
    <path d="M6730 10531 c-136 -48 -190 -80 -271 -161 -75 -75 -118 -154 -149 -275 -27 -107 -42 -305 -33 -440 11 -153 20 -151 136 30 136 211 245 391 287 475 81 161 161 383 144 400 -5 4 -56 -9 -114 -29z" style="fill: rgb(0, 0, 0);"/>
    <path d="M9734 9533 c-114 -136 -208 -249 -209 -251 -1 -1 -148 -21 -326 -44 -178 -22 -325 -42 -327 -44 -2 -1 61 -106 141 -232 l144 -230 -301 -5 c-466 -7 -785 -61 -1152 -192 -452 -163 -870 -460 -1116 -794 l-29 -41 203 99 c404 197 757 307 1183 367 154 21 591 30 752 15 166 -16 406 -50 415 -59 4 -4 1 -35 -6 -69 -8 -36 -10 -63 -4 -63 5 0 73 16 151 36 163 42 149 43 404 -27 665 -183 1129 -438 1513 -835 250 -257 428 -518 614 -897 89 -180 93 -186 106 -162 17 31 8 314 -14 457 -115 740 -614 1396 -1383 1818 -95 52 -133 78 -133 91 0 10 96 109 235 240 129 122 235 225 235 228 0 3 -136 61 -302 127 l-302 122 -137 292 c-76 161 -140 295 -143 297 -2 2 -97 -107 -212 -244z" style="fill: rgb(0, 0, 0);"/>
    <path d="M2262 9388 c-107 -10 -113 -11 -110 -31 2 -18 63 -49 334 -172 359 -164 525 -248 708 -358 126 -77 334 -228 440 -321 35 -32 67 -53 70 -48 13 22 -143 378 -217 492 -154 241 -305 356 -547 420 -75 20 -114 23 -325 25 -132 2 -291 -1 -353 -7z" style="fill: rgb(0, 0, 0);"/>
    <path d="M7525 9286 c-115 -30 -288 -106 -374 -164 -321 -219 -498 -415 -604 -672 -38 -90 -109 -320 -100 -320 3 0 60 55 127 123 242 245 408 358 836 571 347 172 515 236 641 244 59 3 84 0 113 -13 32 -15 39 -16 47 -4 5 8 9 17 9 20 0 9 -204 141 -268 173 -75 38 -193 66 -271 66 -36 -1 -106 -12 -156 -24z" style="fill: rgb(0, 0, 0);"/>
    <path d="M2405 8313 c-568 -47 -1153 -246 -1720 -585 -158 -95 -345 -218 -330 -218 6 0 39 9 75 20 778 241 1402 373 2095 442 201 20 845 17 1065 -6 173 -17 513 -62 538 -71 14 -5 62 14 62 25 0 8 -124 67 -293 139 -301 129 -663 221 -982 251 -101 9 -415 11 -510 3z" style="fill: rgb(0, 0, 0);"/>
    <path d="M3293 7699 c-62 -12 -197 -78 -280 -138 -67 -47 -486 -441 -478 -449 2 -2 63 26 137 62 279 137 722 257 1131 307 95 11 376 7 442 -6 l30 -7 -25 21 c-88 72 -354 175 -529 205 -101 17 -353 20 -428 5z" style="fill: rgb(0, 0, 0);"/>
    <path d="M8426 7543 c-4 -10 -41 -108 -83 -218 -41 -109 -78 -205 -82 -213 -5 -9 -22 7 -58 55 -177 235 -423 368 -708 380 -195 9 -354 -26 -540 -118 -113 -56 -159 -88 -147 -106 4 -7 63 -16 152 -23 430 -33 761 -115 1055 -263 l100 -50 -179 -89 c-98 -49 -175 -93 -170 -97 9 -8 406 -323 413 -327 1 -2 22 -122 44 -268 23 -146 45 -266 49 -266 5 0 107 66 227 146 l220 146 253 -41 c139 -23 260 -41 269 -41 13 0 3 46 -57 259 l-72 260 119 233 c66 128 121 237 122 243 1 6 -100 14 -267 21 l-268 12 -193 192 c-160 159 -193 189 -199 173z" style="fill: rgb(0, 0, 0);"/>
    <path d="M824 7203 c-47 -93 -112 -217 -144 -278 l-57 -109 -291 -106 -290 -106 218 -225 218 -225 10 -303 c6 -167 13 -305 16 -308 2 -3 127 58 278 135 l273 140 294 -84 c161 -47 296 -82 299 -79 3 3 -15 141 -41 306 l-46 301 175 259 c97 142 173 259 170 259 -7 0 -557 90 -587 96 -18 3 -46 31 -90 87 -35 45 -120 155 -190 245 l-128 162 -87 -167z" style="fill: rgb(0, 0, 0);"/>
    <path d="M4320 7134 c-807 -83 -1501 -358 -2047 -811 -119 -99 -354 -337 -447 -453 -90 -113 -241 -341 -308 -465 -224 -412 -343 -823 -379 -1305 -6 -85 -12 -156 -13 -157 -1 -1 -68 1 -149 5 -81 4 -147 5 -147 2 0 -3 63 -160 140 -349 77 -189 140 -350 140 -357 0 -7 -57 -163 -126 -346 -69 -183 -128 -341 -131 -350 -7 -24 -4 -23 414 7 l342 25 258 -207 c142 -114 277 -222 299 -240 l42 -33 93 373 93 373 318 208 c175 115 316 211 314 215 -3 4 -148 96 -324 205 l-319 198 -98 362 c-54 198 -101 364 -104 368 -3 4 -136 -103 -296 -238 l-290 -244 -160 6 c-88 3 -170 7 -182 10 -20 4 -11 23 119 257 538 967 878 1443 1307 1831 420 380 922 692 1616 1006 131 59 185 92 185 112 0 4 -6 7 -12 7 -7 -1 -74 -8 -148 -15z" style="fill: rgb(0, 0, 0);"/>
    <path d="M6725 7028 c570 -467 1006 -1239 1213 -2148 33 -141 113 -582 108 -587 -2 -2 -34 81 -71 184 -37 104 -74 204 -82 223 l-14 34 -187 -186 -187 -187 -123 -3 c-67 -2 -122 -3 -122 -2 0 0 18 48 40 107 214 568 154 1112 -179 1614 -102 153 -210 281 -358 423 -107 104 -328 289 -354 299 -6 1 19 -33 54 -76 515 -639 695 -1558 496 -2538 -29 -141 -94 -395 -119 -459 -6 -16 -9 -31 -6 -33 6 -6 172 217 231 310 27 42 52 74 56 70 3 -5 28 -50 54 -102 l48 -93 -70 -247 c-47 -166 -66 -247 -58 -249 6 -1 114 13 240 33 125 19 237 35 249 35 12 0 112 -61 223 -135 112 -74 208 -136 214 -137 8 -2 25 80 53 251 23 142 46 256 52 258 7 2 14 -17 18 -49 101 -817 167 -1606 197 -2368 14 -362 22 -386 65 -188 127 582 178 1060 178 1653 -1 422 -21 762 -69 1135 -9 71 -11 118 -6 123 6 6 5 14 -3 22 -7 7 -18 57 -25 111 -35 275 -124 756 -182 989 -203 808 -574 1364 -1149 1719 -130 81 -424 226 -457 226 -4 0 10 -15 32 -32z" style="fill: rgb(0, 0, 0);"/>
    <path d="M4710 6643 c-179 -13 -381 -68 -540 -148 -114 -57 -159 -92 -217 -170 -125 -166 -173 -349 -204 -762 -11 -160 -8 -206 12 -186 5 5 76 138 158 294 218 420 260 477 460 631 217 168 405 280 494 295 31 5 37 10 37 29 0 23 -2 24 -77 22 -43 -1 -98 -3 -123 -5z" style="fill: rgb(0, 0, 0);"/>
    <path d="M5410 6424 c-387 -284 -616 -734 -681 -1344 -16 -152 -16 -520 0 -693 7 -76 11 -140 9 -142 -2 -3 -23 9 -47 26 -23 17 -43 30 -45 28 -1 -2 -22 -112 -45 -244 -23 -132 -44 -247 -47 -255 -2 -8 -96 -84 -209 -169 -113 -85 -203 -156 -200 -160 3 -3 105 -60 227 -126 l222 -120 23 -65 c12 -36 51 -147 86 -247 l62 -182 187 178 186 178 158 6 c88 4 205 7 262 7 56 0 102 3 102 6 0 3 -50 110 -110 236 l-111 230 76 246 c41 135 73 247 71 249 -3 3 -409 -48 -486 -61 -14 -3 -35 3 -48 12 l-22 17 30 240 c91 744 192 1284 361 1944 33 129 58 239 56 244 -1 5 -32 -13 -67 -39z" style="fill: rgb(0, 0, 0);"/>
    <path d="M5997 6452 c-15 -16 -19 -65 -28 -328 -17 -458 -3 -787 42 -1003 l11 -54 45 69 c201 308 242 618 127 964 -34 102 -160 370 -174 370 -4 0 -14 -8 -23 -18z" style="fill: rgb(0, 0, 0);"/>
    <path d="M7835 1059 c-170 -36 -226 -64 -240 -121 -14 -53 67 -108 205 -139 69 -16 349 -16 410 0 120 30 166 52 197 91 17 21 16 52 -2 76 -13 17 -14 17 -15 2 0 -23 -36 -24 -44 -2 -3 9 -6 27 -6 41 0 15 -3 24 -6 21 -3 -4 -20 -2 -37 4 -109 34 -360 49 -462 27z" style="fill: rgb(0, 0, 0);"/>
  </g>
</svg>