<?xml version="1.0" encoding="utf-8"?>
<svg viewBox="0 0 60 60" xmlns="http://www.w3.org/2000/svg">
  <path d="M 31.538 6.207 L 31.538 16.966 C 31.539 17.252 31.431 17.527 31.237 17.734 L 23.338 26.113 C 23.164 26.327 23.035 26.573 22.958 26.839 C 22.88 27.104 22.857 27.382 22.887 27.658 C 23.001 28.57 23.623 30.175 25.207 30.347 C 26.33 30.47 29.052 30.448 30.537 30.425 C 30.619 30.425 30.699 30.449 30.767 30.494 C 30.836 30.541 30.889 30.605 30.921 30.682 C 30.954 30.758 30.963 30.842 30.948 30.924 C 30.932 31.006 30.895 31.081 30.837 31.141 L 21.07 41.409 C 20.395 42.124 18.537 43.97 16.827 42.824 C 15.701 42.064 15.185 41.624 15.185 40.077 L 15.185 25.634 C 15.185 24.401 15.185 21.941 18.579 18.564 C 20.667 16.489 28.723 8.218 30.961 5.973 C 31.009 5.925 31.068 5.892 31.133 5.879 C 31.197 5.865 31.266 5.872 31.327 5.897 C 31.388 5.922 31.44 5.964 31.479 6.019 C 31.516 6.075 31.537 6.14 31.538 6.207 Z" fill="#EE751F" style=""/>
  <path d="M 27.827 26.055 L 38.441 15.696 C 38.441 15.696 39.855 14.551 41.44 15.179 C 43.022 15.809 43.533 17.526 43.533 19.358 L 43.533 31.549 C 43.533 31.549 43.872 35.384 41.383 38.017 C 39.054 40.479 28.674 50.948 27.322 52.296 C 27.179 52.443 26.994 52.54 26.792 52.569 C 26.546 52.6 26.273 52.514 26.273 51.977 C 26.273 50.89 26.285 42.741 26.273 41.152 C 26.273 41.065 26.29 40.979 26.322 40.9 C 26.355 40.819 26.403 40.747 26.463 40.685 L 34.585 32.465 C 34.585 32.465 35.659 31.148 35.321 29.833 C 34.983 28.518 34.02 27.829 32.153 27.829 C 30.285 27.829 28.193 27.887 27.628 27.887 C 27.063 27.887 26.788 27.169 27.177 26.711 C 27.378 26.476 27.594 26.257 27.827 26.055 Z" fill="#EE751F" style=""/>
</svg>