<svg width="25" height="42" viewBox="0 0 25 42" fill="none" xmlns="http://www.w3.org/2000/svg">
<path d="M14.4134 0.295158V9.77901C14.4143 10.0306 14.3194 10.273 14.1486 10.4558L7.18548 17.841C7.03286 18.0297 6.91905 18.2473 6.85083 18.4812C6.7826 18.715 6.76128 18.9603 6.78819 19.2026C6.88876 20.0066 7.43721 21.4217 8.83318 21.5731C9.82392 21.6818 12.2227 21.6616 13.5313 21.6415C13.6035 21.6415 13.6742 21.6631 13.7344 21.7034C13.7947 21.7438 13.8419 21.8012 13.8701 21.8685C13.8983 21.9357 13.9064 22.01 13.8932 22.0819C13.8801 22.1538 13.8464 22.2201 13.7961 22.2727L5.18681 31.3238C4.5921 31.9535 2.955 33.5805 1.44637 32.5714C0.4543 31.9013 0 31.5127 0 30.1498V17.4189C0 16.3321 3.50564e-07 14.1638 2.99209 11.1874C4.83185 9.35822 11.9326 2.0681 13.9061 0.0887771C13.9473 0.0468568 13.9996 0.0181405 14.0568 0.00620105C14.1139 -0.00573984 14.1733 -0.000356836 14.2274 0.0216693C14.2816 0.0436955 14.3281 0.0813957 14.3612 0.130036C14.3943 0.178675 14.4124 0.236123 14.4134 0.295158Z" fill="#EE751F"/>
<path d="M11.1424 17.7901L20.4988 8.65869C20.4988 8.65869 21.7451 7.64959 23.1412 8.20439C24.5371 8.75919 24.9862 10.2722 24.9862 11.887V22.6333C24.9862 22.6333 25.2856 26.0129 23.0921 28.3339C21.0391 30.5036 11.8893 39.7315 10.6973 40.9201C10.5721 41.0501 10.4083 41.1348 10.231 41.1614C10.0138 41.1882 9.77271 41.1117 9.77271 40.6387C9.77271 39.6806 9.78329 32.4977 9.77271 31.0972C9.77271 31.0208 9.78741 30.9451 9.81638 30.8745C9.84519 30.804 9.88754 30.7399 9.94092 30.6857L17.1 23.4399C17.1 23.4399 18.0471 22.2793 17.749 21.1202C17.451 19.961 16.602 19.354 14.9556 19.354C13.3092 19.354 11.4655 19.4049 10.9675 19.4049C10.4695 19.4049 10.2271 18.7724 10.5701 18.3677C10.7462 18.1608 10.9374 17.9678 11.1424 17.7901Z" fill="#EE751F"/>
</svg>
