<svg width="52" height="52" viewBox="0 0 52 52" fill="none" xmlns="http://www.w3.org/2000/svg">
<path d="M22.7735 46.0332C22.3381 45.9527 21.9072 45.8539 21.4825 45.7397C21.3251 45.6964 21.1691 45.6532 21.0147 45.6054C20.9005 45.5714 20.7876 45.5359 20.6734 45.4988C20.5932 45.4724 20.5112 45.4447 20.4309 45.417C20.3059 45.3736 20.1824 45.3305 20.0588 45.2842C19.926 45.2346 19.7948 45.1852 19.665 45.1329L19.3994 40.2622L19.9707 37.5166L22.7395 45.9312L22.7735 46.0332Z" fill="url(#paint0_linear_105_816)"/>
<path d="M32.3002 40.2622L32.0175 45.1048C31.8847 45.1589 31.7519 45.2098 31.6192 45.2608C31.4862 45.3117 31.3519 45.3596 31.2176 45.406C31.1512 45.4291 31.0832 45.4523 31.0153 45.474C30.9011 45.5126 30.7853 45.548 30.6693 45.5835C30.0815 45.7638 29.4839 45.9111 28.8796 46.0252L28.8888 45.9943L28.8919 45.982L31.6947 37.3899L32.3002 40.2622Z" fill="url(#paint1_linear_105_816)"/>
<path d="M29.4825 43.7626L27.9846 46.1686L27.909 46.1778C27.8811 46.1809 27.8534 46.1856 27.8255 46.1887C27.8024 46.1917 27.7776 46.1948 27.7546 46.1964L27.5986 46.2149C27.4873 46.2272 27.3778 46.2381 27.2665 46.2473C26.7929 46.2891 26.3152 46.3106 25.8334 46.3122H25.8056C25.3284 46.3122 24.853 46.292 24.3819 46.2504C24.2784 46.2411 24.1749 46.2319 24.0714 46.2212C24.0251 46.2165 23.9773 46.2118 23.931 46.2057L23.8553 46.1964L23.7827 46.1872L23.7024 46.1778L22.2076 43.761L21.8772 37.8606L23.4507 42.1334L25.3224 42.4716L26.5083 42.4685L28.2841 42.1196L29.6354 38.0197L29.4825 43.7626Z" fill="url(#paint2_linear_105_816)"/>
<path d="M28.0076 27.1091L30.3982 28.4851L30.4042 30.0664L28.0076 27.1091Z" fill="url(#paint3_linear_105_816)"/>
<path d="M36.3782 27.7915L38.0337 27.387L37.2523 30.0246L36.3782 27.7915Z" fill="url(#paint4_linear_105_816)"/>
<path d="M30.4043 30.0663L30.6482 32.6344L31.8187 30.9297L33.1915 28.7615L30.4043 30.0663Z" fill="url(#paint5_linear_105_816)"/>
<path d="M36.3785 27.7917L34.4141 28.3105L33.191 28.7615L31.8182 30.9296L30.6477 32.6345L32.2646 32.7179L35.3036 32.1466L37.2524 30.0248L36.3785 27.7917Z" fill="url(#paint6_linear_105_816)"/>
<path d="M29.4851 33.613L30.648 32.634L30.9862 33.6146L29.4851 33.613Z" fill="url(#paint7_linear_105_816)"/>
<path d="M30.6477 32.634L32.2646 32.7172L30.9859 33.6146L30.6477 32.634Z" fill="url(#paint8_linear_105_816)"/>
<path d="M29.4843 33.6138L30.9854 33.6153L29.3777 34.7796L29.4843 33.6138Z" fill="url(#paint9_linear_105_816)"/>
<path d="M28.0076 27.1091L30.4042 30.0664L28.9295 31.5118L28.0076 27.1091Z" fill="url(#paint10_linear_105_816)"/>
<path d="M29.4843 33.6139L30.6471 32.6349L28.9285 31.5122L29.4843 33.6139Z" fill="url(#paint11_linear_105_816)"/>
<path d="M30.4032 30.0667L30.6471 32.6348L28.9285 31.5121L30.4032 30.0667Z" fill="url(#paint12_linear_105_816)"/>
<path d="M28.9293 31.5122L27.4993 35.7944L29.3787 34.7797L29.4851 33.6139L28.9293 31.5122Z" fill="url(#paint13_linear_105_816)"/>
<path d="M29.0497 36.2117L29.3787 34.7803L27.4993 35.7948L28.3162 38.0987L29.5314 38.369L29.0497 36.2117Z" fill="url(#paint14_linear_105_816)"/>
<path d="M28.0122 39.7258L26.8123 41.4893L26.5095 42.4685L28.2855 42.1194L28.0122 39.7258Z" fill="url(#paint15_linear_105_816)"/>
<path d="M21.2435 30.0817L21.2312 28.5003L23.6062 27.1152L21.2435 30.0817Z" fill="url(#paint16_linear_105_816)"/>
<path d="M14.3729 30.0641L13.553 27.4233L15.2223 27.8234L14.3729 30.0641Z" fill="url(#paint17_linear_105_816)"/>
<path d="M21.2433 30.0817L20.984 32.6529L19.8365 30.9496L18.4329 28.7847L21.2433 30.0817Z" fill="url(#paint18_linear_105_816)"/>
<path d="M15.2228 27.8232L17.201 28.3375L18.4332 28.7854L19.837 30.9503L20.9843 32.6537L19.4124 32.7433L16.3547 32.1827L14.3735 30.0641L15.2228 27.8232Z" fill="url(#paint19_linear_105_816)"/>
<path d="M20.7026 33.6377L20.9838 32.6541L22.2068 33.6285L20.7026 33.6377Z" fill="url(#paint20_linear_105_816)"/>
<path d="M20.7026 33.6377L19.4116 32.7437L20.9836 32.6541L20.7026 33.6377Z" fill="url(#paint21_linear_105_816)"/>
<path d="M22.3289 34.7953L20.7026 33.6373L22.2068 33.6279L22.3289 34.7953Z" fill="url(#paint22_linear_105_816)"/>
<path d="M22.738 31.524L21.2432 30.0817L23.6059 27.1152L22.738 31.524Z" fill="url(#paint23_linear_105_816)"/>
<path d="M22.7377 31.5244L20.9834 32.6532L22.2064 33.6276L22.7377 31.5244Z" fill="url(#paint24_linear_105_816)"/>
<path d="M22.7377 31.5253L20.9834 32.6541L21.2429 30.083L22.7377 31.5253Z" fill="url(#paint25_linear_105_816)"/>
<path d="M22.7371 31.5244L24.1255 35.7803L22.3278 34.795L22.2058 33.6276L22.7371 31.5244Z" fill="url(#paint26_linear_105_816)"/>
<path d="M23.7572 39.7387L23.4329 38.1111L25.8883 38.3042L23.7572 39.7387Z" fill="url(#paint27_linear_105_816)"/>
<path d="M22.3287 34.7952L22.7225 36.151L22.0354 38.4288L23.4328 38.1107L24.1263 35.7804L22.3287 34.7952Z" fill="url(#paint28_linear_105_816)"/>
<path d="M23.7572 39.739L24.9183 41.4949L25.3229 42.4739L23.4514 42.1341L23.7572 39.739Z" fill="url(#paint29_linear_105_816)"/>
<path d="M26.8123 41.4895L25.878 41.3952V41.3921L25.8655 41.3937L25.8532 41.3921V41.3952L24.9189 41.494L25.3235 42.4732L26.5096 42.4685L26.8123 41.4895Z" fill="url(#paint30_linear_105_816)"/>
<path d="M28.012 39.7259L25.8887 38.3207V38.3037L25.8764 38.3113L25.8639 38.3037V38.3207L23.7576 39.7384L24.9189 41.4941L25.8655 41.3937L26.812 41.4896L28.012 39.7259Z" fill="url(#paint31_linear_105_816)"/>
<path d="M27.4992 35.7944L28.9291 31.5122L25.8359 31.7036L22.7383 31.5245L24.1265 35.7804L23.4332 38.1107L25.8638 38.3022V38.3038L25.8761 38.3022L25.8884 38.3038V38.3022L28.3161 38.0984L27.4992 35.7944Z" fill="url(#paint32_linear_105_816)"/>
<path d="M25.8484 31.7032L28.9291 31.5118L28.0073 27.1091L25.799 27.6234L23.6062 27.1154L22.7383 31.5241L25.8236 31.7032V31.7047L25.8359 31.7032L25.8484 31.7047V31.7032Z" fill="url(#paint33_linear_105_816)"/>
<path d="M28.3157 38.0979L28.0115 39.7255L28.2848 42.1191L29.5311 38.3681L28.3157 38.0979Z" fill="url(#paint34_linear_105_816)"/>
<path d="M23.4328 38.1111L22.0354 38.4293L23.4514 42.1338L23.7571 39.7387L23.4328 38.1111Z" fill="url(#paint35_linear_105_816)"/>
<path d="M23.433 38.1107L22.0354 38.4288L20.7026 33.637L22.3289 34.7952L23.3928 36.1571L23.433 38.1107Z" fill="url(#paint36_linear_105_816)"/>
<path d="M28.3159 38.0977L29.5312 38.3679L30.9859 33.6147L29.3783 34.779L28.3575 36.348L28.3159 38.0977Z" fill="url(#paint37_linear_105_816)"/>
<path d="M25.8633 38.3033L28.3156 38.0979L28.0114 39.7255L25.8633 38.3033Z" fill="url(#paint38_linear_105_816)"/>
<path d="M24.8511 38.9785H27.0361L25.864 38.3037L24.8511 38.9785Z" fill="url(#paint39_linear_105_816)"/>
<path d="M42.9498 24.206L42.0216 24.5658L41.7932 24.3481L41.8656 23.7829L45.9842 19.2135L49.1746 12.6922L48.557 12.5331L45.9069 17.6956L45.9811 16.874L46.903 11.0321L46.2173 5.8512L45.646 5.6875L45.893 10.206L44.2654 17.9149L42.173 20.7438L41.9338 18.8491L43.288 15.4826L43.569 10.9024L43.0918 10.8823L42.746 14.1793L41.4796 17.2848L40.9685 17.7589L40.6334 17.1875L40.5746 13.8643L40.0744 13.9121L39.937 18.0724L40.076 21.5731L38.5655 22.8748L35.6964 24.1597L33.6009 24.4192L35.9234 21.346L35.7721 19.6073L35.5622 19.6305L35.3922 20.3996L32.0938 24.7775L30.3549 25.2437L28.0186 27.1308L30.3965 28.4853L31.4684 27.2019L32.5786 26.8961L34.9413 26.4746L36.3543 26.2229L38.9594 26.07L41.892 25.8986L46.6621 22.3668L46.2853 21.7831L42.9498 24.206Z" fill="url(#paint40_linear_105_816)"/>
<path d="M19.4612 24.7955L16.1473 20.4253L15.9728 19.6593L15.7643 19.6361L15.6254 21.3687L17.9572 24.4357L15.8693 24.1747L13.011 22.8915L11.5022 21.5927L11.6165 18.1057L11.4528 13.9626L10.9555 13.9163L10.92 17.2256L10.5926 17.7939L10.0815 17.3229L8.80596 14.2344L8.44152 10.9513L7.96898 10.9729L8.27783 15.53L9.64293 18.8795L9.41593 20.7666L7.32657 17.9499L5.66497 10.2857L5.87808 5.79199L5.31596 5.95723L4.67048 11.1104L5.62172 16.9168L5.69894 17.7336L3.04748 12.6052L2.4375 12.7643L5.63408 19.2425L9.74022 23.7918L9.8159 24.3539L9.59197 24.57L8.67006 24.2117L5.35148 21.7981L4.98396 22.3787L9.72941 25.8965L12.6403 26.074L15.2284 26.23L16.6353 26.4848L18.9918 26.9095L20.1006 27.2168L21.2309 28.5L23.6059 27.1149L21.1969 25.2634L19.4612 24.7955Z" fill="url(#paint41_linear_105_816)"/>
<path d="M23.7835 46.1885L23.7032 46.1792C23.4918 46.1514 23.2817 46.1204 23.0732 46.0864C23.0423 46.0819 23.0115 46.0757 22.9806 46.071L22.7752 46.0341C22.3396 45.9537 21.9089 45.8549 21.4842 45.7406C21.3267 45.6973 21.1707 45.6541 21.0162 45.6063C20.902 45.5723 20.7893 45.5368 20.6751 45.4997L20.1995 43.1247L19.9724 37.5191L20.7044 33.6399L22.037 38.4317L22.21 43.7655L23.7835 46.1885Z" fill="url(#paint42_linear_105_816)"/>
<path d="M31.7188 37.5156L31.4918 43.1212L31.4826 43.1304L31.0132 45.4714C30.8988 45.5101 30.783 45.5456 30.6672 45.581C30.0793 45.7613 29.4818 45.9088 28.8774 46.0226C28.8079 46.0351 28.7384 46.049 28.6688 46.0613L28.6194 46.0707C28.6163 46.0707 28.6148 46.0722 28.6118 46.0722C28.4033 46.1076 28.1934 46.1402 27.9818 46.1679L27.906 46.1773L29.4781 43.7605L29.526 38.3663L30.9822 33.6147L31.6925 37.3905L31.7188 37.5156Z" fill="url(#paint43_linear_105_816)"/>
<defs>
<linearGradient id="paint0_linear_105_816" x1="21.0865" y1="23.122" x2="21.0865" y2="49.4875" gradientUnits="userSpaceOnUse">
<stop stop-color="#00E0A4"/>
<stop offset="1" stop-color="#00182E"/>
</linearGradient>
<linearGradient id="paint1_linear_105_816" x1="8271.42" y1="-16925.9" x2="8271.42" y2="-2182.25" gradientUnits="userSpaceOnUse">
<stop stop-color="#00E0A4"/>
<stop offset="1" stop-color="#00182E"/>
</linearGradient>
<linearGradient id="paint2_linear_105_816" x1="25.7562" y1="50.737" x2="25.7562" y2="31.9186" gradientUnits="userSpaceOnUse">
<stop stop-color="#00E0B5"/>
<stop offset="1" stop-color="#000B08"/>
</linearGradient>
<linearGradient id="paint3_linear_105_816" x1="28.7103" y1="26.8245" x2="30.8313" y2="29.2843" gradientUnits="userSpaceOnUse">
<stop stop-color="#00917B"/>
<stop offset="1" stop-color="#00BD86"/>
</linearGradient>
<linearGradient id="paint4_linear_105_816" x1="37.0332" y1="26.7656" x2="38.4114" y2="27.7608" gradientUnits="userSpaceOnUse">
<stop stop-color="#004F75"/>
<stop offset="1" stop-color="#006186"/>
</linearGradient>
<linearGradient id="paint5_linear_105_816" x1="30.8539" y1="31.8683" x2="34.4393" y2="28.9407" gradientUnits="userSpaceOnUse">
<stop stop-color="#00E0A3"/>
<stop offset="1" stop-color="#00298F"/>
</linearGradient>
<linearGradient id="paint6_linear_105_816" x1="32.2373" y1="31.3224" x2="39.2469" y2="25.5989" gradientUnits="userSpaceOnUse">
<stop stop-color="#00E094"/>
<stop offset="1" stop-color="#000051"/>
</linearGradient>
<linearGradient id="paint7_linear_105_816" x1="31.0921" y1="33.0909" x2="29.669" y2="33.4945" gradientUnits="userSpaceOnUse">
<stop stop-color="#005773"/>
<stop offset="1" stop-color="#003B1B"/>
</linearGradient>
<linearGradient id="paint8_linear_105_816" x1="40853.6" y1="-11748.7" x2="40875.3" y2="-11697.8" gradientUnits="userSpaceOnUse">
<stop stop-color="#00E094"/>
<stop offset="1" stop-color="#000051"/>
</linearGradient>
<linearGradient id="paint9_linear_105_816" x1="29.6843" y1="33.909" x2="30.5007" y2="35.0256" gradientUnits="userSpaceOnUse">
<stop stop-color="#000700"/>
<stop offset="1" stop-color="#002B16"/>
</linearGradient>
<linearGradient id="paint10_linear_105_816" x1="28.843" y1="27.2053" x2="30.8282" y2="28.6872" gradientUnits="userSpaceOnUse">
<stop stop-color="#00ABB5"/>
<stop offset="1" stop-color="#00AD95"/>
</linearGradient>
<linearGradient id="paint11_linear_105_816" x1="29.2483" y1="31.5649" x2="30.8887" y2="33.2864" gradientUnits="userSpaceOnUse">
<stop stop-color="#00C77A"/>
<stop offset="1" stop-color="#00C797"/>
</linearGradient>
<linearGradient id="paint12_linear_105_816" x1="29.4341" y1="29.8295" x2="31.0846" y2="31.5616" gradientUnits="userSpaceOnUse">
<stop stop-color="#00D4B0"/>
<stop offset="1" stop-color="#00A1B5"/>
</linearGradient>
<linearGradient id="paint13_linear_105_816" x1="27.4284" y1="37.7964" x2="30.946" y2="34.9243" gradientUnits="userSpaceOnUse">
<stop stop-color="#00E088"/>
<stop offset="1" stop-color="#00E0B5"/>
</linearGradient>
<linearGradient id="paint14_linear_105_816" x1="28.0229" y1="38.4997" x2="30.5314" y2="36.1839" gradientUnits="userSpaceOnUse">
<stop stop-color="#00E094"/>
<stop offset="1" stop-color="#00E0B5"/>
</linearGradient>
<linearGradient id="paint15_linear_105_816" x1="1521.3" y1="-760.959" x2="1813.94" y2="-911.07" gradientUnits="userSpaceOnUse">
<stop stop-color="#00C77A"/>
<stop offset="1" stop-color="#00C797"/>
</linearGradient>
<linearGradient id="paint16_linear_105_816" x1="-78564.2" y1="-196043" x2="-78941.2" y2="-195688" gradientUnits="userSpaceOnUse">
<stop stop-color="#00917B"/>
<stop offset="1" stop-color="#00BD86"/>
</linearGradient>
<linearGradient id="paint17_linear_105_816" x1="-26351.7" y1="-179209" x2="-26504.9" y2="-179133" gradientUnits="userSpaceOnUse">
<stop stop-color="#004F75"/>
<stop offset="1" stop-color="#006186"/>
</linearGradient>
<linearGradient id="paint18_linear_105_816" x1="-10345.6" y1="-4391.64" x2="-11103.1" y2="-4827.11" gradientUnits="userSpaceOnUse">
<stop stop-color="#00E0A3"/>
<stop offset="1" stop-color="#00298F"/>
</linearGradient>
<linearGradient id="paint19_linear_105_816" x1="-46379" y1="-1763.58" x2="-48434.4" y2="-3985.63" gradientUnits="userSpaceOnUse">
<stop stop-color="#00E094"/>
<stop offset="1" stop-color="#000051"/>
</linearGradient>
<linearGradient id="paint20_linear_105_816" x1="2560.25" y1="-486.887" x2="2648.39" y2="-426.101" gradientUnits="userSpaceOnUse">
<stop stop-color="#005773"/>
<stop offset="1" stop-color="#003B1B"/>
</linearGradient>
<linearGradient id="paint21_linear_105_816" x1="-47034.3" y1="-12395.8" x2="-47065.5" y2="-12324.1" gradientUnits="userSpaceOnUse">
<stop stop-color="#00E094"/>
<stop offset="1" stop-color="#000051"/>
</linearGradient>
<linearGradient id="paint22_linear_105_816" x1="-45199.8" y1="-17803.6" x2="-45246.9" y2="-17710" gradientUnits="userSpaceOnUse">
<stop stop-color="#000700"/>
<stop offset="1" stop-color="#002B16"/>
</linearGradient>
<linearGradient id="paint23_linear_105_816" x1="-43457.6" y1="-470912" x2="-43740.3" y2="-470787" gradientUnits="userSpaceOnUse">
<stop stop-color="#00ABB5"/>
<stop offset="1" stop-color="#00AD95"/>
</linearGradient>
<linearGradient id="paint24_linear_105_816" x1="-44036.2" y1="-102747" x2="-44252" y2="-102555" gradientUnits="userSpaceOnUse">
<stop stop-color="#00C77A"/>
<stop offset="1" stop-color="#00C797"/>
</linearGradient>
<linearGradient id="paint25_linear_105_816" x1="-30668" y1="-127185" x2="-30891" y2="-127021" gradientUnits="userSpaceOnUse">
<stop stop-color="#00D4B0"/>
<stop offset="1" stop-color="#00A1B5"/>
</linearGradient>
<linearGradient id="paint26_linear_105_816" x1="-2576.31" y1="-3992.77" x2="-2937.29" y2="-4111.23" gradientUnits="userSpaceOnUse">
<stop stop-color="#00E088"/>
<stop offset="1" stop-color="#00E0B5"/>
</linearGradient>
<linearGradient id="paint27_linear_105_816" x1="-100263" y1="-24477.9" x2="-100313" y2="-24328.4" gradientUnits="userSpaceOnUse">
<stop stop-color="#00E094"/>
<stop offset="1" stop-color="#00E0B5"/>
</linearGradient>
<linearGradient id="paint28_linear_105_816" x1="1195.8" y1="-3110.81" x2="1619.52" y2="-3354.64" gradientUnits="userSpaceOnUse">
<stop stop-color="#00E094"/>
<stop offset="1" stop-color="#00E0B5"/>
</linearGradient>
<linearGradient id="paint29_linear_105_816" x1="-5787.06" y1="-1086.82" x2="-6117.64" y2="-1264.61" gradientUnits="userSpaceOnUse">
<stop stop-color="#00C77A"/>
<stop offset="1" stop-color="#00C797"/>
</linearGradient>
<linearGradient id="paint30_linear_105_816" x1="3986.79" y1="-203.065" x2="4024.78" y2="-269.618" gradientUnits="userSpaceOnUse">
<stop stop-color="#00C77A"/>
<stop offset="1" stop-color="#00C797"/>
</linearGradient>
<linearGradient id="paint31_linear_105_816" x1="27.8761" y1="39.8989" x2="23.9522" y2="39.8989" gradientUnits="userSpaceOnUse">
<stop stop-color="#004D45"/>
<stop offset="0.11" stop-color="#003630"/>
<stop offset="0.24" stop-color="#00221E"/>
<stop offset="0.37" stop-color="#001613"/>
<stop offset="0.5" stop-color="#00120F"/>
<stop offset="0.67" stop-color="#001512"/>
<stop offset="0.78" stop-color="#001E1A"/>
<stop offset="0.88" stop-color="#002D28"/>
<stop offset="0.97" stop-color="#00423B"/>
<stop offset="1" stop-color="#004D45"/>
</linearGradient>
<linearGradient id="paint32_linear_105_816" x1="25.8337" y1="38.0561" x2="25.8337" y2="31.6387" gradientUnits="userSpaceOnUse">
<stop stop-color="#00C584"/>
<stop offset="1" stop-color="#00E0A9"/>
</linearGradient>
<linearGradient id="paint33_linear_105_816" x1="25.8066" y1="30.9436" x2="25.9503" y2="27.3515" gradientUnits="userSpaceOnUse">
<stop stop-color="#00C7B5"/>
<stop offset="1" stop-color="#00ABB5"/>
</linearGradient>
<linearGradient id="paint34_linear_105_816" x1="28.7714" y1="42.2737" x2="28.7714" y2="37.8722" gradientUnits="userSpaceOnUse">
<stop stop-color="#007F9B"/>
<stop offset="1" stop-color="#00C693"/>
</linearGradient>
<linearGradient id="paint35_linear_105_816" x1="3313.41" y1="-2947.13" x2="3313.41" y2="-4031.07" gradientUnits="userSpaceOnUse">
<stop stop-color="#007F9B"/>
<stop offset="1" stop-color="#00C693"/>
</linearGradient>
<linearGradient id="paint36_linear_105_816" x1="23.1121" y1="39.1148" x2="19.083" y2="35.8648" gradientUnits="userSpaceOnUse">
<stop stop-color="#00C696"/>
<stop offset="1" stop-color="#00959B"/>
</linearGradient>
<linearGradient id="paint37_linear_105_816" x1="1815.96" y1="-2798.67" x2="2538.95" y2="-3113.9" gradientUnits="userSpaceOnUse">
<stop stop-color="#00C696"/>
<stop offset="1" stop-color="#00959B"/>
</linearGradient>
<linearGradient id="paint38_linear_105_816" x1="88677.8" y1="-24939.8" x2="88729" y2="-24789.5" gradientUnits="userSpaceOnUse">
<stop stop-color="#00E094"/>
<stop offset="1" stop-color="#00E0B5"/>
</linearGradient>
<linearGradient id="paint39_linear_105_816" x1="4477.15" y1="-151.029" x2="4478.22" y2="-142.072" gradientUnits="userSpaceOnUse">
<stop stop-color="#00E094"/>
<stop offset="1" stop-color="#00E0B5"/>
</linearGradient>
<linearGradient id="paint40_linear_105_816" x1="61971.7" y1="-36341.6" x2="61971.7" y2="-81906.4" gradientUnits="userSpaceOnUse">
<stop stop-color="#00E094"/>
<stop offset="1" stop-color="#000051"/>
</linearGradient>
<linearGradient id="paint41_linear_105_816" x1="26923" y1="-36198.6" x2="26923" y2="-81584" gradientUnits="userSpaceOnUse">
<stop stop-color="#00E094"/>
<stop offset="1" stop-color="#000051"/>
</linearGradient>
<linearGradient id="paint42_linear_105_816" x1="21.878" y1="47.4079" x2="21.878" y2="34.1263" gradientUnits="userSpaceOnUse">
<stop stop-color="#00E0AB"/>
<stop offset="1" stop-color="#00182E"/>
</linearGradient>
<linearGradient id="paint43_linear_105_816" x1="9023.87" y1="-4893.62" x2="9023.87" y2="-15707.5" gradientUnits="userSpaceOnUse">
<stop stop-color="#00E0AB"/>
<stop offset="1" stop-color="#00182E"/>
</linearGradient>
</defs>
</svg>
