<?xml version="1.0" encoding="UTF-8" standalone="no" ?>
<!DOCTYPE svg PUBLIC "-//W3C//DTD SVG 1.1//EN" "http://www.w3.org/Graphics/SVG/1.1/DTD/svg11.dtd">
<svg xmlns="http://www.w3.org/2000/svg" xmlns:xlink="http://www.w3.org/1999/xlink" version="1.1" width="43.89028617126857" height="43.89028617126969" viewBox="78.71923005222109 125.17922511093238 43.89028617126857 43.89028617126969" xml:space="preserve">
<desc>Created with Fabric.js 4.6.0</desc>
<defs>
</defs>
<g transform="matrix(1.39 0 0 1.39 100.66 147.12)" id="AIEG3CpPpKQtoaVcTr12T"  >
<path style="stroke: none; stroke-width: 1; stroke-dasharray: none; stroke-linecap: butt; stroke-dashoffset: 0; stroke-linejoin: miter; stroke-miterlimit: 4; fill: rgb(0,0,0); fill-rule: evenodd; opacity: 1;" vector-effect="non-scaling-stroke"  transform=" translate(-12, -12)" d="M 10.0172337 20.0036431 C 10.022429 20.1264837 10.0091724 20.2463579 9.98330461 20.3676906 C 9.93784953 20.5808973 9.85006902 20.806507 9.72581375 21.0149561 C 9.37258963 21.6075205 8.77254382 22.0029294 8 22.0029294 C 6.18009841 22.0029294 5.46583567 21.110101 4.57152331 18.8743201 C 3.96583567 17.360101 3.68009841 17.0029294 3 17.0029294 L 3 15.0029294 C 4.81990159 15.0029294 5.53416433 15.8957579 6.42847669 18.1315388 C 7.03416433 19.6457579 7.31990159 20.0029294 8 20.0029294 C 8 19.7127644 7.99602627 19.4557363 7.98766336 19.10766 C 7.96806324 18.2918745 7.96580921 18.1253294 8.00139994 17.9072328 C 8.01562221 17.4311461 8.13853505 17.0933379 8.38499657 16.758055 C 6.15319163 16.2722225 4.64792011 15.2688507 3.78397367 13.6414131 L 3.46033692 12.8803116 C 3.14504523 11.9742045 3 10.9475314 3 9.76182789 C 3 8.3962705 3.41634612 7.17529446 4.19401809 6.15466942 C 3.95142672 5.18452501 3.98465035 3.99922139 4.52030872 2.66060213 L 4.69533986 2.22319636 L 5.14406803 2.07965982 C 5.20414701 2.06044211 5.27718427 2.04308516 5.36298939 2.02961795 C 6.2367624 1.89247825 7.48010477 2.21967938 9.10554673 3.26084348 C 10.0637668 3.03871956 11.0728464 2.92657377 12.0887705 2.92657377 C 12.9966325 2.92657377 13.8994565 3.01809831 14.761632 3.19853941 C 16.3430593 2.20820612 17.552239 1.89759865 18.4025017 2.02979376 C 18.4873192 2.04298081 18.5596096 2.06000541 18.6191923 2.07890005 L 19.0707147 2.22208531 L 19.2459583 2.66215824 C 19.7145535 3.83889806 19.7949778 4.92336373 19.6244695 5.87228979 C 20.5184674 6.94500389 21 8.26378067 21 9.76182789 C 21 11.0247658 20.9095208 11.9744236 20.64943 12.8982988 L 20.374903 13.6516598 C 19.6562828 15.2773712 18.071463 16.2919934 15.627532 16.7752488 C 15.881555 17.1269685 16 17.4840164 16 18.0029294 L 16 19.0029294 C 16 19.4875328 16 19.5024553 15.9988971 20.0029332 C 16.0011677 20.0388683 16.0041674 20.0564681 16.0074409 20.0674343 C 16.0069051 20.0676207 16.0044248 20.7127858 16 22.0029294 C 15.1482062 22.0029294 14.5148687 21.5875264 14.2033753 20.9322561 C 14.0418761 20.5925196 13.9936266 20.2681196 14 19.9887282 L 14 18.0029294 C 14 17.9190828 13.9970903 17.9142333 13.7928932 17.7100362 C 13.2470903 17.1642333 13 16.7524162 13 16.0029294 L 13 15.098327 L 13.9000749 15.0079345 C 16.5793439 14.7388614 18.0365375 13.994809 18.5196779 12.9078386 L 18.7454621 12.2906007 C 18.925117 11.6452201 19 10.8592573 19 9.76182789 C 19 8.5957377 18.5929046 7.6324677 17.8229924 6.86285829 L 17.399809 6.43984136 L 17.5725269 5.86695742 C 17.7259675 5.35801396 17.7624331 4.7557886 17.6001079 4.06889646 C 17.5731265 4.07573155 17.5450908 4.08318009 17.5159887 4.09128216 C 16.9805442 4.24035094 16.3120315 4.56021479 15.5064471 5.09869159 L 15.139019 5.34429154 L 14.7100567 5.23792413 C 13.880388 5.0321958 12.9888516 4.92657377 12.0887705 4.92657377 C 11.0878626 4.92657377 10.0984637 5.05392119 9.18445917 5.30309711 L 8.73840507 5.42470039 L 8.3568182 5.1636581 C 7.52362575 4.59367395 6.83145179 4.25470831 6.27642408 4.09636524 C 6.23678449 4.08505652 6.19904057 4.07494077 6.16316427 4.06592263 C 5.9695217 4.8609066 6.04611126 5.51405583 6.24223012 6.00416015 L 6.47738305 6.59181128 L 6.04688499 7.05581793 C 5.36089731 7.79520071 5 8.69496705 5 9.76182789 C 5 10.7385874 5.11434439 11.5479509 5.32388252 12.1576254 L 5.58556699 12.7770588 C 6.23973869 14.0045823 7.62920432 14.743076 10.1065792 15.0086252 L 11 15.1043908 L 11 16.0029294 C 11 16.7524162 10.7529097 17.1642333 10.2071068 17.7100362 C 10.0029097 17.9142333 10 17.9190828 10 18.0029294 L 9.98276345 18.1877969 C 9.97135799 18.2484289 9.97135799 18.404984 9.98708636 19.0596217 C 9.99432024 19.3607065 9.99844271 19.5990116 9.99963477 19.8480351 C 10.0115828 19.8995855 10.013389 19.9328439 10.0172337 20.0036431 Z" stroke-linecap="round" />
</g>
<g transform="matrix(0.55 0 0 0.55 100.66 147.12)" id="9LgZP-lViT5D7RtNhSRKw"  >
<path style="stroke: rgb(0,0,0); stroke-width: 3; stroke-dasharray: none; stroke-linecap: butt; stroke-dashoffset: 0; stroke-linejoin: miter; stroke-miterlimit: 4; fill: rgb(255,255,255); fill-opacity: 0; fill-rule: nonzero; opacity: 1;" vector-effect="non-scaling-stroke"  transform=" translate(0, 0)" d="M -36.84211 -21.21133 C -36.84211 -29.84397 -29.84397 -36.84211 -21.211329999999997 -36.84211 L 21.21132 -36.84211 L 21.21132 -36.84211 C 29.843960000000003 -36.84211 36.8421 -29.84397 36.8421 -21.211329999999997 L 36.8421 21.21132 L 36.8421 21.21132 C 36.8421 29.843960000000003 29.843960000000003 36.8421 21.21132 36.8421 L -21.211329999999997 36.8421 L -21.211329999999997 36.8421 C -29.84397 36.8421 -36.84211 29.843960000000003 -36.84211 21.21132 z" stroke-linecap="round" />
</g>
</svg>