<svg width="83" height="83" viewBox="0 0 83 83" fill="none" xmlns="http://www.w3.org/2000/svg">
<rect width="83" height="83" rx="11" fill="white"/>
<path fill-rule="evenodd" clip-rule="evenodd" d="M45.6058 21.5117L64.5108 31.0565C65.3845 31.4975 65.3981 32.7515 64.5343 33.2118L39.981 46.297C38.612 47.0266 36.9786 47.0447 35.594 46.3457L20.178 38.5624C18.2999 37.8006 16.2 39.192 16.2 41.2879C16.2 42.973 17.1428 44.5134 18.6354 45.267L34.0912 53.0702C35.0347 52.1003 36.3483 51.4986 37.8013 51.4986C39.2127 51.4986 40.4926 52.0663 41.4295 52.9879L60.6803 42.7287C60.6276 42.4287 60.6 42.12 60.6 41.8047C60.6 38.9048 62.9282 36.5541 65.8 36.5541C68.6719 36.5541 71 38.9048 71 41.8047C71 44.7046 68.6719 47.0554 65.8 47.0554C64.3958 47.0554 63.1215 46.4934 62.1859 45.58L42.9244 55.845C42.9749 56.1388 43.0013 56.4409 43.0013 56.7493C43.0013 59.6491 40.6731 62 37.8013 62C34.9294 62 32.6013 59.6491 32.6013 56.7493C32.6013 56.4811 32.6212 56.2176 32.6597 55.9601L16.98 48.0439C14.5408 46.8124 13 44.295 13 41.5412V40.0073C13 37.9101 14.1495 35.9851 15.9864 35.0063L41.2187 21.5604C42.5878 20.8308 44.2212 20.8127 45.6058 21.5117ZM37.8013 58.7688C38.9058 58.7688 39.8012 57.8646 39.8012 56.7493C39.8012 55.6339 38.9058 54.7298 37.8013 54.7298C36.6967 54.7298 35.8013 55.6339 35.8013 56.7493C35.8013 57.8646 36.6967 58.7688 37.8013 58.7688ZM67.8 41.8047C67.8 42.9201 66.9046 43.8243 65.8 43.8243C64.6955 43.8243 63.8 42.9201 63.8 41.8047C63.8 40.6894 64.6955 39.7852 65.8 39.7852C66.9046 39.7852 67.8 40.6894 67.8 41.8047Z" fill="#0D0D0D"/>
</svg>
