<svg width="85" height="83" viewBox="0 0 85 83" fill="none" xmlns="http://www.w3.org/2000/svg">
<path d="M80.3243 4.56564C77.2058 1.5205 73.4534 0 69.0628 0H15.9372C11.5466 0 7.79418 1.5205 4.67566 4.56564C1.55713 7.61079 0 11.2749 0 15.5622V67.4378C0 71.7251 1.55713 75.3892 4.67566 78.4344C7.79418 81.4795 11.5466 83 15.9372 83H28.3347C29.1431 83 29.7515 82.9709 30.1599 82.9169C30.6351 82.8239 31.064 82.5764 31.3767 82.2148C31.7809 81.7994 31.9851 81.197 31.9851 80.4077L31.9553 76.7311C31.9383 74.388 31.9298 72.5352 31.9298 71.1642L30.6534 71.3802C29.8451 71.5257 28.824 71.588 27.586 71.5714C26.2955 71.5481 25.0092 71.4216 23.7399 71.1933C22.3887 70.9497 21.1167 70.3942 20.03 69.5731C18.8919 68.7324 18.0431 67.5731 17.5965 66.2496L17.0434 65.0033C16.5772 64.0202 15.9916 63.0954 15.2991 62.249C14.5077 61.2395 13.7036 60.5581 12.891 60.1967L12.5081 59.9267C12.2411 59.74 11.9983 59.5223 11.7849 59.2786C11.5811 59.0524 11.4132 58.7975 11.2871 58.5225C11.1765 58.2691 11.2701 58.0614 11.5636 57.8993C11.8615 57.7332 12.3933 57.6542 13.1718 57.6542L14.278 57.8204C15.014 57.9617 15.9287 58.3937 17.0136 59.1124C18.1115 59.8433 19.0286 60.8041 19.6982 61.9249C20.5491 63.3997 21.5701 64.5256 22.7699 65.3024C23.9697 66.0751 25.1779 66.4656 26.3947 66.4656C27.6115 66.4656 28.6623 66.3742 29.5515 66.1956C30.4114 66.022 31.247 65.7486 32.0404 65.3814C32.3722 62.9718 33.2742 61.1107 34.7505 59.8145C32.8376 59.6314 30.9417 59.3064 29.0793 58.8424C27.2617 58.3548 25.5138 57.6473 23.8761 56.7361C22.1626 55.8252 20.6491 54.5943 19.4216 53.1135C18.2432 51.672 17.2731 49.7817 16.5158 47.4428C15.7628 45.0998 15.3842 42.3953 15.3842 39.3335C15.3842 34.9756 16.8392 31.2657 19.7535 28.1998C18.3921 24.9262 18.5197 21.2496 20.1406 17.1824C21.2128 16.8542 22.7997 17.0994 24.9014 17.9095C27.0031 18.7196 28.5432 19.4133 29.5217 19.9866C30.5003 20.5682 31.2831 21.0543 31.8745 21.449C35.3332 20.5091 38.9077 20.0366 42.4979 20.0448C46.1525 20.0448 49.6922 20.5142 53.1255 21.449L55.2272 20.1528C56.8439 19.205 58.5491 18.4093 60.3198 17.7765C62.2769 17.0537 63.766 16.8584 64.804 17.1824C66.4633 21.2537 66.6079 24.9262 65.2422 28.204C68.1566 31.2657 69.6158 34.9756 69.6158 39.3377C69.6158 42.3994 69.2372 45.1122 68.4799 47.4677C67.7269 49.8274 66.7483 51.7177 65.5486 53.1426C64.2995 54.6044 62.7797 55.8235 61.0686 56.7361C59.2817 57.7082 57.5459 58.4103 55.8654 58.8424C54.0031 59.3079 52.1072 59.6343 50.1942 59.8187C52.1087 61.4389 53.0702 63.9938 53.0702 67.4876V80.4077C53.0702 81.0184 53.1596 81.5127 53.3468 81.8908C53.4328 82.0729 53.5555 82.2363 53.7075 82.3712C53.8595 82.5061 54.0378 82.6097 54.2317 82.676C54.6401 82.8172 54.9975 82.9086 55.3123 82.9418C55.6272 82.9834 56.0781 82.9958 56.6652 82.9958H69.0628C73.4534 82.9958 77.2058 81.4754 80.3243 78.4302C83.4386 75.3892 85 71.7209 85 67.4336V15.5622C85 11.2749 83.4386 7.61079 80.3201 4.56564H80.3243Z" fill="white"/>
</svg>
