<?xml version="1.0" encoding="UTF-8" standalone="no" ?>
<!DOCTYPE svg PUBLIC "-//W3C//DTD SVG 1.1//EN" "http://www.w3.org/Graphics/SVG/1.1/DTD/svg11.dtd">
<svg xmlns="http://www.w3.org/2000/svg" xmlns:xlink="http://www.w3.org/1999/xlink" version="1.1" width="45.870000000000005" height="45.870000000000005" viewBox="97.065 228.065 45.870000000000005 45.870000000000005" xml:space="preserve">
<desc>Created with Fabric.js 4.6.0</desc>
<defs>
</defs>
<g transform="matrix(0.79 0 0 0.79 120 251)" id="k-ENg4eVRRYSNNKDzAnzf"  >
<path style="stroke: rgb(194,194,194); stroke-width: 4; stroke-dasharray: none; stroke-linecap: butt; stroke-dashoffset: 0; stroke-linejoin: miter; stroke-miterlimit: 4; fill: none; fill-rule: nonzero; opacity: 1;" vector-effect="non-scaling-stroke"  transform=" translate(0, 0)" d="M -26.5 -15.257 C -26.5 -21.46634 -21.46634 -26.5 -15.257 -26.5 L 15.257 -26.5 L 15.257 -26.5 C 21.46634 -26.5 26.5 -21.46634 26.5 -15.257 L 26.5 15.257 L 26.5 15.257 C 26.5 21.46634 21.46634 26.5 15.257 26.5 L -15.257 26.5 L -15.257 26.5 C -21.46634 26.5 -26.5 21.46634 -26.5 15.257 z" stroke-linecap="round" />
</g>
<g transform="matrix(0.98 0 0 1.01 118.5 256)" id="uW0SwV6Cc7Kx06eOnQUAI"  >
<path style="stroke: none; stroke-width: 1; stroke-dasharray: none; stroke-linecap: butt; stroke-dashoffset: 0; stroke-linejoin: miter; stroke-miterlimit: 4; fill: rgb(194,194,194); fill-rule: nonzero; opacity: 1;" vector-effect="non-scaling-stroke"  transform=" translate(-23.03, -28.15)" d="M 36.744 23.334 C 36.744 21.024 35.962 19.108 34.627 17.606 C 34.772000000000006 17.281000000000002 34.923 16.845000000000002 34.998000000000005 16.297 C 35.17 15.047 34.967000000000006 14.297 34.795 13.563 C 34.623 12.829 34.42 12.313 34.42 12.313 C 34.42 12.313 33.498000000000005 12.219000000000001 32.717 12.485000000000001 C 31.935999999999993 12.751000000000001 31.264 12.954 30.294999999999998 13.532000000000002 C 29.842 13.802000000000001 29.386 14.098000000000003 29.025 14.338000000000001 C 27.482 13.91 25.785 13.69 24 13.69 C 22.199 13.69 20.487000000000002 13.911 18.933 14.341999999999999 C 18.571 14.100999999999999 18.112 13.802999999999999 17.656 13.530999999999999 C 16.686999999999998 12.953 16.015 12.749999999999998 15.233999999999998 12.483999999999998 C 14.452999999999996 12.217999999999998 13.530999999999999 12.311999999999998 13.530999999999999 12.311999999999998 C 13.530999999999999 12.311999999999998 13.328 12.827999999999998 13.155999999999999 13.561999999999998 C 12.983999999999998 14.295999999999998 12.780999999999999 15.045999999999998 12.953 16.296 C 13.03 16.858 13.186 17.302 13.334999999999999 17.628999999999998 C 12.024999999999999 19.121999999999996 11.257 21.025999999999996 11.257 23.333 C 11.257 29.316 14.489 32.047 20.378 32.768 C 19.691 33.494 19.23 34.424 19.075 35.459 C 18.688 35.629000000000005 18.242 35.789 17.813 35.853 C 16.709 36.02 15.541999999999998 35.853 14.979999999999999 35.52 C 14.418 35.187000000000005 13.750999999999998 34.437000000000005 13.250999999999998 33.707 C 12.828999999999997 33.091 12.219999999999997 32.376 11.667999999999997 32.124 C 10.938999999999998 31.791000000000004 10.229999999999997 31.666000000000004 9.834999999999997 31.728 C 9.438999999999997 31.791 9.251999999999997 32.082 9.334999999999997 32.291000000000004 C 9.417999999999997 32.499 9.813999999999997 32.812000000000005 10.230999999999998 33.041000000000004 C 10.647999999999998 33.27 11.293999999999999 33.895 11.668999999999999 34.499 C 12.086999999999998 35.173 12.168999999999999 35.562000000000005 12.522999999999998 36.332 C 12.771999999999998 36.874 13.623999999999999 37.551 14.230999999999998 37.915 C 14.751999999999999 38.228 15.792999999999997 38.406 16.918999999999997 38.457 C 17.307999999999996 38.475 18.226999999999997 38.361000000000004 19.001999999999995 38.251 L 19.001999999999995 42.001 C 19.001999999999995 42.64 18.416999999999994 43.126 17.810999999999996 43.013999999999996 C 19.756 43.668 21.833 44 24 44 C 26.166 44 28.243000000000002 43.668 30.19 43.016 C 29.585 43.127 29 42.641 29 42.002 L 29 36.198 C 29 34.869 28.473 33.668 27.627 32.773 C 33.473 32.071 36.744 29.405 36.744 23.334 z M 11.239 32.727 C 11.085 32.647999999999996 11.002 32.501999999999995 11.054 32.398999999999994 C 11.106 32.29599999999999 11.274000000000001 32.276999999999994 11.428 32.355999999999995 C 11.582 32.434999999999995 11.665000000000001 32.580999999999996 11.613000000000001 32.684 C 11.561000000000002 32.787 11.393 32.806 11.239 32.727 z M 12.451 33.482 C 12.370000000000001 33.57 12.196 33.542 12.062000000000001 33.42 C 11.928000000000003 33.298 11.885000000000002 33.127 11.966000000000001 33.039 C 12.047 32.951 12.221000000000002 32.979 12.355 33.101 C 12.488999999999999 33.223 12.532 33.394 12.451 33.482 z M 13.205 34.732 C 13.103 34.804 12.93 34.737 12.819 34.582 C 12.708000000000002 34.427 12.701 34.242 12.803 34.17 C 12.905000000000001 34.098000000000006 13.078000000000001 34.165 13.189 34.32 C 13.299 34.475 13.307 34.66 13.205 34.732 z M 14.288 35.673 C 14.219 35.785000000000004 14.023 35.79 13.851 35.685 C 13.679000000000002 35.580000000000005 13.595 35.404 13.664000000000001 35.292 C 13.733000000000002 35.18 13.929000000000002 35.175000000000004 14.101 35.28 C 14.273 35.385 14.357 35.561 14.288 35.673 z M 15.312 36.594 C 15.099 36.568 14.940999999999999 36.435 14.959 36.297000000000004 C 14.975999999999999 36.159000000000006 15.163 36.069 15.375 36.095000000000006 C 15.588 36.12100000000001 15.746 36.254000000000005 15.728 36.392 C 15.711 36.529 15.525 36.62 15.312 36.594 z M 16.963 36.833 C 16.736 36.82 16.559 36.69 16.568 36.544 C 16.577 36.397999999999996 16.768 36.288999999999994 16.995 36.302 C 17.222 36.315 17.399 36.445 17.39 36.591 C 17.381 36.738 17.19 36.846 16.963 36.833 z M 18.521 36.677 C 18.279 36.677 18.083000000000002 36.551 18.083000000000002 36.396 C 18.083000000000002 36.241 18.279000000000003 36.115 18.521 36.115 C 18.763 36.115 18.959 36.241 18.959 36.396 C 18.959 36.551 18.762 36.677 18.521 36.677 z" stroke-linecap="round" />
</g>
</svg>