<?xml version="1.0" encoding="utf-8"?>
<!-- Svg Vector Icons : http://www.onlinewebfonts.com/icon -->
<!DOCTYPE svg PUBLIC "-//W3C//DTD SVG 1.1//EN" "http://www.w3.org/Graphics/SVG/1.1/DTD/svg11.dtd">
<svg version="1.1" xmlns="http://www.w3.org/2000/svg" xmlns:xlink="http://www.w3.org/1999/xlink" x="0px" y="0px" viewBox="0 0 1000 1000" enable-background="new 0 0 1000 1000" xml:space="preserve">
<metadata> Svg Vector Icons : http://www.onlinewebfonts.com/icon </metadata>
<g><g transform="translate(0.000000,512.000000) scale(0.100000,-0.100000)"><path d="M4875.7,4994.1c-70.8-32.5-133.9-99.4-160.6-170.2c-15.3-38.2-21-984.9-21-3088.5v-3034.9l-529.7,529.7c-292.6,290.7-550.8,537.4-573.7,548.8c-22.9,11.5-80.3,21-126.2,21c-216.1,0-365.3-241-265.8-432.2c23-44,374.8-409.2,839.5-872c701.8-699.9,808.9-799.4,881.6-818.5c177.8-45.9,162.5-59.3,1042.2,818.5c464.7,462.8,816.6,828.1,839.5,872c97.5,191.2-49.7,432.2-265.8,432.2c-45.9,0-107.1-11.5-135.8-26.8c-28.7-15.3-283-262-568-545L5315.5-1290l-9.6,3057.9c-9.6,3052.2-9.6,3059.8-49.7,3111.4c-21,28.7-61.2,70.8-88,89.9C5103.3,5017,4952.2,5030.4,4875.7,4994.1z"/><path d="M794.7,2236.4c-323.2-88-577.5-344.2-661.7-671.2c-44-166.4-44-5469.4,0-5637.7c86.1-328.9,342.3-583.3,673.2-669.3c166.4-44,8221.3-44,8387.7,0c330.8,86.1,587.1,340.4,673.2,669.3c44,168.3,44,5471.3,0,5637.7c-88,340.4-369.1,612-703.7,680.8c-66.9,15.3-476.2,21-1269.8,17.2c-1147.4-5.7-1170.4-5.7-1222-45.9c-101.4-74.6-132-135.8-132-256.3s30.6-181.7,132-256.3c51.6-40.2,78.4-40.2,1235.4-49.7c1157-9.6,1183.8-9.6,1235.4-49.7c28.7-21,70.8-63.1,91.8-91.8c40.2-51.6,40.2-55.5,40.2-2765.3c0-2709.9,0-2713.7-40.2-2765.3c-21-28.7-63.1-70.8-91.8-91.8l-51.6-40.1H5000H909.4l-51.6,40.1c-28.7,21-70.8,63.1-91.8,91.8c-40.2,51.6-40.2,55.4-40.2,2765.3c0,2709.8,0,2713.6,40.2,2765.3c21,28.7,63.1,70.8,91.8,91.8c51.6,40.2,78.4,40.2,1235.4,49.7c1157,9.6,1183.8,9.6,1235.4,49.7c101.4,74.6,132,135.8,132,256.3s-30.6,181.7-132,256.3c-51.6,40.2-72.7,40.2-1241.1,44C1094.9,2265.1,880.7,2259.4,794.7,2236.4z"/></g></g>
</svg>