<?xml version="1.0" encoding="utf-8"?>
<!-- Svg Vector Icons : http://www.onlinewebfonts.com/icon -->
<!DOCTYPE svg PUBLIC "-//W3C//DTD SVG 1.1//EN" "http://www.w3.org/Graphics/SVG/1.1/DTD/svg11.dtd">
<svg version="1.1" xmlns="http://www.w3.org/2000/svg" xmlns:xlink="http://www.w3.org/1999/xlink" x="0px" y="0px" viewBox="0 0 256 256" enable-background="new 0 0 256 256" xml:space="preserve">
<metadata> Svg Vector Icons : http://www.onlinewebfonts.com/icon </metadata>
<g><g><path fill="#000000" d="M244.5,131.8l-51.6,51.6c-2,2-5.3,2-7.4,0l-7.4-7.4c-2-2-2-5.3,0-7.4l40.5-40.5l-40.5-40.5c-2-2-2-5.3,0-7.4l7.4-7.4c2-2,5.3-2,7.4,0l51.6,51.6C246.5,126.4,246.5,129.7,244.5,131.8L244.5,131.8z M106.1,214.3l-9.4-2.6c-2.6-0.7-4.2-3.3-3.6-5.7l41.9-161c0.7-2.5,3.5-3.9,6.2-3.2l10.1,2.7c2.8,0.7,4.5,3.4,3.8,5.9l-43.2,160.9C111.3,213.6,108.7,215,106.1,214.3L106.1,214.3z M70.4,183.3c-2,2-5.3,2-7.4,0l-51.6-51.6c-2-2-2-5.3,0-7.4l51.6-51.6c2-2,5.3-2,7.4,0l7.4,7.4c2,2,2,5.3,0,7.4l-40.5,40.5l40.5,40.5c2,2,2,5.3,0,7.4L70.4,183.3z"/></g></g>
</svg>