<svg width="22" height="22" viewBox="0 0 22 22" fill="none" xmlns="http://www.w3.org/2000/svg">
<path d="M7 16.9982L9 14.9982H11L12.36 13.6382C13.7502 14.1225 15.2636 14.1206 16.6525 13.6327C18.0414 13.1449 19.2236 12.2 20.0056 10.9528C20.7876 9.7055 21.123 8.22974 20.957 6.76701C20.791 5.30429 20.1334 3.94123 19.0918 2.90094C18.0502 1.86065 16.6863 1.20474 15.2234 1.04056C13.7604 0.876382 12.2851 1.21366 11.0388 1.9972C9.79256 2.78074 8.84917 3.96412 8.36307 5.35366C7.87696 6.7432 7.87694 8.2566 8.363 9.64616L1 16.9982V20.9982H5L7 18.9982V16.9982Z" stroke="white" stroke-width="2" stroke-linecap="round" stroke-linejoin="round"/>
<path d="M16 6.99817C16.5523 6.99817 17 6.55045 17 5.99817C17 5.44588 16.5523 4.99817 16 4.99817C15.4477 4.99817 15 5.44588 15 5.99817C15 6.55045 15.4477 6.99817 16 6.99817Z" stroke="white" stroke-width="2" stroke-linecap="round" stroke-linejoin="round"/>
</svg>
