<?xml version="1.0" encoding="utf-8"?>
<svg viewBox="0 0 60 60" xmlns="http://www.w3.org/2000/svg">
  <defs>
    <radialGradient id="paint0_radial_46_809" cx="0" cy="0" r="1" gradientUnits="userSpaceOnUse" gradientTransform="matrix(25.937634, 0, 0, 25.937634, 29.617776, 29.873836)">
      <stop stop-color="#FDC300"/>
      <stop offset="0.11" stop-color="#FDC205"/>
      <stop offset="0.25" stop-color="#FDBF13"/>
      <stop offset="0.39" stop-color="#FDB92B"/>
      <stop offset="0.54" stop-color="#FEB24C"/>
      <stop offset="0.7" stop-color="#FEA977"/>
      <stop offset="0.86" stop-color="#FF9DAA"/>
      <stop offset="1" stop-color="#FF92DE"/>
    </radialGradient>
  </defs>
  <path d="M 12.091 26.952 C 11.826 27.626 11.597 28.313 11.405 29.014 C 10.56 32.095 10.417 35.325 10.985 38.469 C 11.011 38.625 11.041 38.782 11.076 38.937 C 11.196 39.532 11.343 40.126 11.515 40.707 C 11.708 41.359 11.936 42.01 12.196 42.643 C 13.945 46.938 17.057 50.54 21.053 52.893 C 21.991 53.446 22.969 53.925 23.98 54.323 C 27.787 55.828 31.948 56.2 35.96 55.394 C 39.974 54.589 43.667 52.639 46.599 49.782 C 48.443 47.985 49.938 45.863 51.011 43.522 C 50.828 43.716 50.64 43.906 50.448 44.092 C 47.348 47.137 43.442 49.231 39.19 50.128 C 38.998 50.224 38.803 50.31 38.606 50.397 C 35.601 51.699 32.284 52.111 29.052 51.587 C 25.817 51.062 22.802 49.621 20.365 47.436 C 20.086 47.188 19.814 46.927 19.548 46.657 L 19.431 46.534 C 17.032 44.041 15.449 40.879 14.89 37.465 C 14.841 37.16 14.798 36.851 14.764 36.544 C 14.696 35.926 14.664 35.309 14.663 34.689 C 14.649 31.324 15.632 28.027 17.49 25.217 C 17.957 24.509 18.476 23.834 19.046 23.202 C 19.287 22.938 19.535 22.672 19.799 22.417 C 22.94 19.328 27.157 17.574 31.562 17.526 C 31.631 17.526 31.709 17.526 31.789 17.526 L 31.969 17.526 C 32.685 17.531 33.4 17.581 34.109 17.679 C 37.094 18.076 39.919 19.264 42.295 21.117 C 42.193 20.739 42.078 20.363 41.946 19.992 C 41.843 19.698 41.733 19.412 41.611 19.129 C 40.932 17.506 39.979 16.014 38.793 14.716 L 38.724 14.664 C 37.728 14.317 36.705 14.05 35.667 13.861 C 31.709 13.128 27.624 13.535 23.885 15.032 C 23.316 15.261 22.761 15.514 22.236 15.781 C 21.078 16.369 19.977 17.061 18.947 17.85 L 18.854 17.92 C 18.202 18.427 17.581 18.972 16.991 19.549 C 15.671 20.84 14.527 22.296 13.588 23.885 C 13.05 24.794 12.582 25.742 12.187 26.724 L 12.177 26.953 L 12.091 26.952 Z M 24.865 10.885 C 23.591 10.886 22.32 11.003 21.066 11.235 C 20.901 11.263 20.74 11.293 20.582 11.33 C 19.995 11.45 19.406 11.597 18.822 11.774 C 18.479 11.874 18.141 11.984 17.805 12.101 C 17.469 12.216 17.16 12.336 16.84 12.466 C 12.534 14.201 8.928 17.323 6.595 21.337 C 6.298 21.841 6.016 22.374 5.754 22.917 C 5.549 23.347 5.355 23.788 5.18 24.227 C 3.195 29.211 3.179 34.76 5.131 39.756 C 7.082 44.752 10.858 48.819 15.695 51.138 C 15.793 51.183 15.891 51.23 15.988 51.274 C 15.793 51.089 15.6 50.898 15.411 50.704 C 12.366 47.599 10.27 43.688 9.372 39.431 C 9.291 39.286 9.191 39.066 9.094 38.839 C 8.94 38.485 8.8 38.121 8.669 37.75 C 7.919 35.628 7.596 33.377 7.717 31.13 C 7.838 28.881 8.403 26.678 9.378 24.65 C 9.708 23.959 10.083 23.288 10.501 22.646 C 10.971 21.927 11.496 21.243 12.07 20.605 C 12.358 20.277 12.654 19.971 12.966 19.674 C 13.548 19.114 14.17 18.596 14.827 18.127 C 15.836 17.406 16.92 16.798 18.059 16.31 C 20.728 14.28 23.821 12.878 27.107 12.21 C 28.325 11.957 29.563 11.801 30.806 11.75 L 30.524 11.67 C 28.684 11.149 26.781 10.885 24.869 10.885 L 24.865 10.885 Z M 28.462 48.01 C 28.553 48.038 28.644 48.062 28.733 48.086 C 31.813 48.937 35.044 49.085 38.187 48.519 L 38.268 48.502 C 38.408 48.476 38.549 48.45 38.69 48.42 C 39.268 48.303 39.837 48.16 40.445 47.979 C 41.052 47.798 41.652 47.593 42.265 47.352 L 42.471 47.631 L 42.343 47.317 C 44.904 46.286 47.234 44.761 49.202 42.827 C 50.523 41.534 51.668 40.074 52.611 38.485 C 53.156 37.561 53.629 36.596 54.025 35.6 C 55.556 31.786 55.944 27.611 55.143 23.581 C 54.343 19.553 52.385 15.843 49.513 12.906 C 47.722 11.072 45.609 9.58 43.279 8.508 C 45.889 11.001 47.873 14.075 49.065 17.48 C 49.398 18.427 49.671 19.396 49.881 20.378 C 49.955 20.517 50.055 20.734 50.148 20.947 C 50.69 22.215 51.076 23.544 51.299 24.904 C 51.455 25.833 51.536 26.771 51.539 27.713 C 51.546 31.07 50.563 34.358 48.712 37.159 C 48.246 37.869 47.725 38.542 47.154 39.174 C 46.916 39.441 46.665 39.705 46.401 39.961 L 46.279 40.075 C 44.797 41.505 43.068 42.653 41.174 43.464 C 39.319 44.858 37.259 45.957 35.067 46.721 C 32.943 47.472 30.72 47.907 28.471 48.01 L 28.462 48.01 Z M 20.482 45.078 C 21.48 45.432 22.506 45.706 23.549 45.899 C 26.249 46.409 29.021 46.383 31.71 45.822 C 32.646 45.626 33.569 45.37 34.47 45.053 C 34.789 44.942 35.103 44.821 35.41 44.696 C 35.95 44.478 36.477 44.239 36.977 43.986 C 40.608 42.165 43.633 39.328 45.684 35.822 C 45.976 35.324 46.259 34.791 46.524 34.237 C 46.723 33.826 46.904 33.408 47.072 32.99 L 47.098 32.925 C 47.382 32.224 47.626 31.506 47.829 30.78 C 48.704 27.704 48.852 24.47 48.267 21.328 L 48.267 21.318 C 48.242 21.165 48.211 21.016 48.179 20.867 C 48.064 20.284 47.912 19.688 47.732 19.086 C 47.631 18.745 47.523 18.405 47.406 18.067 C 47.296 17.756 47.182 17.451 47.057 17.151 C 45.334 12.845 42.229 9.236 38.23 6.889 C 37.691 6.57 37.14 6.277 36.589 6.014 C 36.182 5.82 35.774 5.639 35.357 5.473 C 30.368 3.463 24.802 3.428 19.788 5.375 C 14.775 7.323 10.691 11.106 8.367 15.956 C 8.323 16.047 8.281 16.137 8.237 16.228 C 10.733 13.614 13.811 11.628 17.221 10.431 C 18.162 10.1 19.122 9.827 20.095 9.616 C 20.299 9.509 20.508 9.411 20.723 9.326 C 21.058 9.182 21.403 9.049 21.752 8.924 C 22.709 8.589 23.691 8.337 24.692 8.17 C 28.947 7.482 33.305 8.416 36.902 10.791 C 37.608 11.252 38.276 11.767 38.904 12.332 C 39.214 12.608 39.517 12.897 39.81 13.201 C 41.237 14.684 42.385 16.417 43.194 18.312 C 43.347 18.669 43.486 19.029 43.618 19.398 C 43.952 20.347 44.204 21.322 44.368 22.314 C 44.421 22.621 44.463 22.936 44.499 23.249 C 44.566 23.864 44.6 24.484 44.601 25.103 C 44.601 27.664 44.022 30.193 42.909 32.499 C 42.58 33.19 42.203 33.858 41.783 34.496 C 40.241 36.843 38.147 38.776 35.685 40.126 C 33.224 41.476 30.469 42.201 27.662 42.24 C 26.816 42.252 25.969 42.199 25.13 42.083 C 23.366 41.839 21.649 41.323 20.042 40.551 C 18.952 40.029 17.917 39.393 16.957 38.657 C 17.596 41.05 18.809 43.254 20.49 45.075 L 20.482 45.078 Z M 16.473 35.877 C 17.724 37.152 19.19 38.196 20.803 38.965 C 21.161 39.137 21.525 39.292 21.894 39.436 C 19.312 36.685 17.715 33.154 17.354 29.399 C 16.605 31.47 16.307 33.677 16.48 35.872 L 16.473 35.877 Z M 37.337 20.323 C 39.907 23.07 41.509 26.586 41.897 30.329 C 42.646 28.278 42.945 26.089 42.777 23.913 L 42.771 23.908 C 41.238 22.339 39.387 21.116 37.343 20.322 L 37.337 20.323 Z" fill="url(#paint0_radial_46_809)" style=""/>
</svg>