<?xml version="1.0" encoding="UTF-8" standalone="no"?>
<!-- Created with Inkscape (http://www.inkscape.org/) -->

<svg
   width="22"
   height="31"
   viewBox="0 0 22 31"
   version="1.1"
   id="svg1"
   xmlns="http://www.w3.org/2000/svg"
   xmlns:svg="http://www.w3.org/2000/svg">
  <defs
     id="defs1" />
  <g
     id="layer1">
    <path
       d="M 10.206016,0.02603741 C 9.5272119,0.10753357 9.0253331,0.22984867 8.3058589,0.48643826 7.4979706,0.7741778 6.4582316,1.4383984 5.7985638,2.0834398 5.5380064,2.3400039 5.0743051,2.8771414 4.8926922,3.1337112 4.2497703,4.0377233 3.7956385,5.1023919 3.5971799,6.1646539 3.4944132,6.7209651 3.4944132,6.7329556 3.4848432,9.7734993 c 0,1.6017917 -0.011952,2.9254317 -0.016953,2.9398117 0,0.01446 -0.1099435,0.03841 -0.2341446,0.05519 C 2.3183049,12.890788 1.7015984,13.178542 1.0610689,13.782813 0.57822976,14.238412 0.19815825,14.936194 0.04286019,15.648374 0.00199199,15.842605 0,16.115964 0,21.906882 v 6.054697 l 0.07675221,0.280545 c 0.34418722,1.275679 1.16403699,2.1653 2.37342769,2.57055 0.6214912,0.208601 -0.1887894,0.189439 8.5688011,0.184649 8.640469,-0.0051 7.961663,0.0099 8.499426,-0.170249 0.518721,-0.172659 0.975248,-0.441222 1.34804,-0.793711 0.599961,-0.5731 0.946541,-1.206143 1.092371,-2.011831 0.04784,-0.270964 0.04784,-0.304532 0.03091,-2.529783 -0.02402,-2.661673 -0.02402,-2.781564 0,-6.493508 0.01893,-2.949413 0.01384,-3.095684 -0.07377,-3.481754 -0.121921,-0.534731 -0.401502,-1.079052 -0.781573,-1.522663 -0.387248,-0.4508 -0.934578,-0.820081 -1.539325,-1.03829 -0.188801,-0.0695 -0.669237,-0.172658 -0.917732,-0.196639 L 18.51715,12.74217 18.5002,11.622351 c -0.0099,-0.61386 -0.01187,-1.8032139 0,-2.6400844 C 18.51913,6.9392557 18.4903,6.4932436 18.311399,5.7475041 18.108245,4.9154326 17.697085,3.9922413 17.199992,3.2632802 17.111272,3.1314123 16.915511,2.8772208 16.764897,2.699769 15.522017,1.2274693 13.877631,0.31865822 11.965513,0.05009791 11.578266,-0.0050927 10.583979,-0.01699823 10.211085,0.0260034 Z m 1.489087,4.47208389 c 0.458917,0.1127056 0.917834,0.3405008 1.269198,0.6282432 0.0907,0.074296 0.272407,0.2565641 0.406286,0.407648 0.191287,0.2158019 0.267745,0.3261122 0.382464,0.5467216 0.160093,0.3093197 0.267745,0.6066602 0.327443,0.9112007 0.03789,0.1822396 0.04286,0.4843707 0.04984,2.9781842 l 0.0099,2.774373 -0.736119,0.0099 c -1.66113,0.01928 -5.4687232,0.01191 -5.5093917,-0.0099 -0.040868,-0.02154 -0.04286,-0.141477 -0.04286,-2.582544 0,-1.4195494 0.011952,-2.6832416 0.023932,-2.8367123 C 7.9405873,6.5291359 8.2725128,5.8049738 8.7864537,5.3373843 9.3624908,4.8122429 9.8954672,4.5460722 10.564704,4.4501618 c 0.25099,-0.036 0.905873,-0.00992 1.130547,0.047991 z M 11.499126,17.336467 c 0.786357,0.165459 1.469947,0.769721 1.742369,1.534651 0.191287,0.534731 0.203239,1.011913 0.03388,1.537051 -0.121892,0.383662 -0.449346,0.875232 -0.731335,1.095842 -0.243814,0.189439 -0.231862,0.139096 -0.136275,0.503561 0.04784,0.17504 0.191174,0.724162 0.322657,1.218131 0.69316,2.625695 0.685983,2.596924 0.645316,2.661664 -0.01695,0.02154 -0.08872,0.04079 -0.210331,0.0504 -0.241412,0.02409 -4.3166484,0.02409 -4.4409455,0.002 -0.1768206,-0.03121 -0.1792222,-0.01446 0.301225,-1.827195 0.1457399,-0.546719 0.3488716,-1.318841 0.4541333,-1.7121 l 0.1911741,-0.719371 -0.078747,-0.0599 C 9.1475818,21.280694 8.8297088,20.801126 8.6744102,20.240012 8.5837112,19.916293 8.5787102,19.463092 8.6625432,19.148973 8.81546,18.568672 9.0855761,18.15144 9.5397065,17.782171 9.8384423,17.542388 10.268751,17.36014 10.67743,17.30259 c 0.198351,-0.0288 0.609531,-0.0119 0.822241,0.03359 z"
       id="path1-6"
       style="fill:#ffffff;fill-opacity:1;stroke:none;stroke-width:0.00239404" />
  </g>
</svg>
