<?xml version="1.0" encoding="utf-8"?>
<svg viewBox="97.15 119.262 277.957 277.957" xmlns="http://www.w3.org/2000/svg">
  <path d="M 139.94 211.623 C 142.385 206.577 145.992 201.751 150.641 197.259 C 155.289 192.768 160.979 188.611 167.589 184.908 C 174.2 181.204 181.73 177.952 190.061 175.269 C 208.01 169.488 227.082 166.959 245.592 167.139 C 246.416 167.147 247.24 167.161 248.062 167.179 L 248.062 181.224 C 247.093 181.21 246.112 181.21 245.115 181.223 C 234.008 181.363 221.024 183.049 211.6 186.97 C 202.177 190.891 194.099 196.492 188.378 203.353 C 182.656 210.214 179.291 218.336 179.291 227.298 C 179.291 231.457 180.061 235.537 181.528 239.448 C 182.995 243.359 185.159 247.101 187.948 250.582 C 190.737 254.063 194.151 257.284 198.117 260.155 C 202.083 263.026 206.602 265.547 211.6 267.626 C 222.369 272.107 231.597 274.068 242.703 273.928 C 244.45 273.906 246.243 273.832 248.062 273.708 L 248.062 287.424 C 246.112 287.465 244.166 287.476 242.227 287.457 C 223.716 287.276 205.767 284.386 190.061 279.327 C 174.355 274.268 160.893 267.042 151.357 258.19 C 141.821 249.338 136.212 238.86 136.212 227.298 C 136.212 221.932 137.495 216.668 139.94 211.623 Z" style="stroke: rgb(0, 0, 0); stroke-width: 0px;"/>
  <ellipse style="stroke: rgb(0, 0, 0); stroke-width: 0px;" cx="267.388" cy="174.801" rx="6.457" ry="6.18"/>
  <ellipse style="stroke: rgb(0, 0, 0); stroke-width: 0px;" cx="289.732" cy="180.013" rx="4.878" ry="4.668"/>
  <ellipse style="stroke: rgb(0, 0, 0); stroke-width: 0px;" cx="306.755" cy="187.249" rx="3.934" ry="3.764"/>
  <ellipse style="stroke: rgb(0, 0, 0); stroke-width: 0px;" cx="319.893" cy="195.028" rx="2.99" ry="2.86"/>
  <ellipse style="stroke: rgb(0, 0, 0); stroke-width: 0px;" cx="330.738" cy="204.362" rx="2.237" ry="2.14"/>
  <path d="M 229.337 264.245 C 231.782 259.199 235.389 254.373 240.038 249.881 C 244.686 245.39 250.376 241.233 256.986 237.53 C 263.597 233.826 271.127 230.574 279.458 227.891 C 297.407 222.11 316.479 219.581 334.989 219.761 C 335.813 219.769 336.637 219.783 337.459 219.801 L 337.459 233.846 C 336.49 233.832 335.509 233.832 334.512 233.845 C 323.405 233.985 310.421 235.671 300.997 239.592 C 291.574 243.513 283.496 249.114 277.775 255.975 C 272.053 262.836 268.688 270.958 268.688 279.92 C 268.688 284.079 269.458 288.159 270.925 292.07 C 272.392 295.981 274.556 299.723 277.345 303.204 C 280.134 306.685 283.548 309.906 287.514 312.777 C 291.48 315.648 295.999 318.169 300.997 320.248 C 311.766 324.729 320.994 326.69 332.1 326.55 C 333.847 326.528 335.64 326.454 337.459 326.33 L 337.459 340.046 C 335.509 340.087 333.563 340.098 331.624 340.079 C 313.113 339.898 295.164 337.008 279.458 331.949 C 263.752 326.89 250.29 319.664 240.754 310.812 C 231.218 301.96 225.609 291.482 225.609 279.92 C 225.609 274.554 226.892 269.29 229.337 264.245 Z" style="stroke: rgb(0, 0, 0); stroke-width: 0px;" transform="matrix(-1, 0, 0, -1, 563.067993, 559.840027)"/>
  <ellipse style="stroke: rgb(0, 0, 0); stroke-width: 0px;" cx="-206.282" cy="-332.418" rx="6.457" ry="6.18" transform="matrix(-1, 0, 0, -1, 0, 0)"/>
  <ellipse style="stroke: rgb(0, 0, 0); stroke-width: 0px;" cx="-183.938" cy="-327.205" rx="4.878" ry="4.668" transform="matrix(-1, 0, 0, -1, 0, 0)"/>
  <ellipse style="stroke: rgb(0, 0, 0); stroke-width: 0px;" cx="-166.915" cy="-319.97" rx="3.934" ry="3.764" transform="matrix(-1, 0, 0, -1, 0, 0)"/>
  <ellipse style="stroke: rgb(0, 0, 0); stroke-width: 0px;" cx="-153.777" cy="-312.19" rx="2.99" ry="2.86" transform="matrix(-1, 0, 0, -1, 0, 0)"/>
  <ellipse style="stroke: rgb(0, 0, 0); stroke-width: 0px;" cx="-142.932" cy="-302.856" rx="2.237" ry="2.14" transform="matrix(-1, 0, 0, -1, 0, 0)"/>
  <rect x="97.15" y="119.262" width="277.957" height="277.957" style="stroke: rgb(0, 0, 0); fill-opacity: 0; fill: none; stroke-width: 0px;"/>
</svg>