<svg width="83" height="83" viewBox="0 0 83 83" fill="none" xmlns="http://www.w3.org/2000/svg">
<path d="M77.8333 0.625H5.16667C3.96214 0.625 2.80695 1.1035 1.95522 1.95522C1.1035 2.80695 0.625 3.96214 0.625 5.16667V77.8333C0.625 79.0379 1.1035 80.193 1.95522 81.0448C2.80695 81.8965 3.96214 82.375 5.16667 82.375H77.8333C79.0379 82.375 80.193 81.8965 81.0448 81.0448C81.8965 80.193 82.375 79.0379 82.375 77.8333V5.16667C82.375 3.96214 81.8965 2.80695 81.0448 1.95522C80.193 1.1035 79.0379 0.625 77.8333 0.625ZM68.5411 19.9952L64.1538 24.1962C63.9685 24.3376 63.8256 24.5271 63.7407 24.7442C63.6558 24.9613 63.6322 25.1975 63.6724 25.427V56.3149C63.6322 56.5445 63.6558 56.7807 63.7407 56.9978C63.8256 57.2148 63.9685 57.4044 64.1538 57.5457L68.4321 61.7513V62.6778H46.9V61.7513L51.3372 57.4458C51.7778 57.0098 51.7778 56.8781 51.7778 56.215V31.2449L39.4426 62.5643H37.7713L23.4151 31.2449V52.2365C23.3584 52.6727 23.4008 53.1161 23.5392 53.5336C23.6776 53.9512 23.9084 54.3321 24.2144 54.6481L29.9869 61.6468V62.5688H13.6187V61.6468L19.3912 54.6481C19.695 54.3322 19.9206 53.9495 20.05 53.5308C20.1793 53.112 20.2088 52.6687 20.136 52.2365V27.9658C20.17 27.6336 20.1252 27.298 20.0052 26.9864C19.8853 26.6747 19.6936 26.3956 19.4457 26.1719L14.3136 19.9952V19.0732H30.2367L42.5446 46.0644L53.3628 19.0732H68.5456V19.9952H68.5411Z" fill="white"/>
</svg>
