<?xml version="1.0" encoding="UTF-8" standalone="no"?>
<svg
   height="30"
   viewBox="0 0 8.2258062 30"
   width="8.2258062"
   version="1.1"
   id="svg1"
   xmlns="http://www.w3.org/2000/svg"
   xmlns:svg="http://www.w3.org/2000/svg">
  <defs
     id="defs1" />
  <path
     d="m 3.2056452,0.48387101 h 1.8145161 c 1.5031945,0 2.7217742,1.21857979 2.7217742,2.72177419 v 1.8145161 c 0,1.5031945 -1.2185797,2.7217742 -2.7217742,2.7217742 H 3.2056452 c -1.5031946,0 -2.72177419,-1.2185797 -2.72177419,-2.7217742 V 3.2056452 c 0,-1.5031944 1.21857959,-2.72177419 2.72177419,-2.72177419 z m 0,10.88709699 h 1.8145161 c 1.5031945,0 2.7217742,1.218579 2.7217742,2.721774 v 1.814516 c 0,1.503195 -1.2185797,2.721774 -2.7217742,2.721774 H 3.2056452 c -1.5031946,0 -2.72177419,-1.218579 -2.72177419,-2.721774 v -1.814516 c 0,-1.503195 1.21857959,-2.721774 2.72177419,-2.721774 z m 0,10.887097 h 1.8145161 c 1.5031945,0 2.7217742,1.218579 2.7217742,2.721774 v 1.814516 c 0,1.503194 -1.2185797,2.721774 -2.7217742,2.721774 H 3.2056452 c -1.5031946,0 -2.72177419,-1.21858 -2.72177419,-2.721774 v -1.814516 c 0,-1.503195 1.21857959,-2.721774 2.72177419,-2.721774 z"
     id="path1"
     style="fill:#ffffff;fill-opacity:1;stroke:#fefefe;stroke-width:0.967742;stroke-dasharray:none;stroke-opacity:1" />
</svg>
