<?xml version="1.0" encoding="utf-8"?>
<svg viewBox="0 0 60 60" xmlns="http://www.w3.org/2000/svg">
  <defs>
    <clipPath id="clip0_105_801">
      <rect width="40" height="40" fill="white"/>
    </clipPath>
    <linearGradient id="paint0_linear_105_801" x1="3.44775" y1="20.6239" x2="40" y2="20.6239" gradientUnits="userSpaceOnUse">
      <stop offset="0.21" stop-color="#2AB7AF"/>
      <stop offset="0.8" stop-color="#DF6C00"/>
    </linearGradient>
    <linearGradient id="paint1_linear_105_801" x1="0.0724495" y1="-0.345661" x2="33.7364" y2="39.0575" gradientUnits="userSpaceOnUse">
      <stop offset="0.21" stop-color="#2AB7AF"/>
      <stop offset="0.8" stop-color="#DF6C00"/>
    </linearGradient>
    <linearGradient id="paint2_linear_105_801" x1="15.8894" y1="-12.6885" x2="50.017" y2="27.2559" gradientUnits="userSpaceOnUse">
      <stop offset="0.21" stop-color="#2AB7AF"/>
      <stop offset="0.8" stop-color="#DF6C00"/>
    </linearGradient>
    <linearGradient id="paint3_linear_105_801" x1="-11.6456" y1="10.2938" x2="22.0189" y2="49.694" gradientUnits="userSpaceOnUse">
      <stop offset="0.21" stop-color="#2AB7AF"/>
      <stop offset="0.8" stop-color="#DF6C00"/>
    </linearGradient>
  </defs>
  <g clip-path="url(#clip0_105_801)" transform="matrix(1.055371, 0, 0, 1.055371, 7.685481, 8.116142)" style="">
    <path d="M6.07803 4.17309L5.11001 3.20685C5.03909 4.09293 4.35078 4.81515 3.44775 4.95103L4.43923 5.8488L40 38.0923L6.07803 4.17309ZM8.42475 13.5179V32.7665C9.12598 32.0489 10.2759 31.9745 11.0687 32.5953V19.6804L32.4963 40H36.1884L8.42475 13.5179ZM33.3841 9.07087C32.8737 9.07233 32.3828 8.88065 32.0152 8.53639V21.5635L10.9807 1.24585H6.90721L34.6612 27.6709V8.61056C34.3059 8.90785 33.8528 9.0712 33.3841 9.07087Z" fill="url(#paint0_linear_105_801)"/>
    <path d="M3.14861 5.94359e-07C1.87577 -0.000768223 0.727816 0.744384 0.240172 1.88791C-0.247474 3.03144 0.0212504 4.34808 0.921008 5.22373C1.82076 6.0994 3.17431 6.36159 4.35035 5.888C5.52637 5.41443 6.29323 4.29837 6.29323 3.06039C6.29215 1.37136 4.8852 0.00209904 3.14861 5.94359e-07ZM3.44783 4.94532C3.34887 4.96063 3.24881 4.96825 3.14861 4.96815C2.35175 4.96891 1.63296 4.50253 1.32764 3.78664C1.02233 3.07075 1.19069 2.24645 1.75416 1.69843C2.31763 1.15039 3.16512 0.986637 3.90117 1.28359C4.63723 1.58053 5.11675 2.27965 5.11595 3.05468C5.11595 3.10413 5.11595 3.15359 5.11595 3.20115C5.04445 4.08903 4.35316 4.81184 3.44783 4.94532Z" fill="url(#paint1_linear_105_801)"/>
    <path d="M33.3843 4.09692C31.6775 4.13832 30.3162 5.49588 30.3162 7.15636C30.3162 8.81686 31.6775 10.1744 33.3843 10.2158C33.8244 10.217 34.2598 10.1268 34.6612 9.95143C36.0199 9.36558 36.7712 7.93464 36.4628 6.52068C36.1544 5.10672 34.8704 4.09579 33.3843 4.09692ZM34.6612 8.61049C33.9583 9.19384 32.9327 9.22282 32.1962 8.6801C31.4596 8.13738 31.2107 7.16924 31.5979 6.35322C31.9851 5.53718 32.9039 5.09318 33.8064 5.28604C34.709 5.47892 35.3518 6.2567 35.3516 7.15542C35.353 7.71566 35.1004 8.24802 34.6612 8.61049Z" fill="url(#paint2_linear_105_801)"/>
    <path d="M11.0727 31.2734C9.79428 30.7472 8.31243 31.098 7.42567 32.1368C6.53891 33.1755 6.45677 34.6567 7.22353 35.7823C7.99031 36.9078 9.42477 37.4115 10.7539 37.0222C12.0831 36.6328 12.9929 35.4423 12.9931 34.0922C12.998 32.8612 12.24 31.7487 11.0727 31.2734ZM9.84067 36.0056C8.75439 36.0046 7.87456 35.1474 7.87528 34.0908C7.876 33.0344 8.757 32.1783 9.84327 32.1787C10.9295 32.1791 11.81 33.0356 11.81 34.0922C11.8089 35.1492 10.9275 36.0056 9.84067 36.0056Z" fill="url(#paint3_linear_105_801)"/>
  </g>
</svg>