<svg width="60" height="60" viewBox="0 0 60 60" fill="none" xmlns="http://www.w3.org/2000/svg">
<path d="M8.20312 30C8.20312 17.9619 17.9619 8.20312 30 8.20312C42.038 8.20312 51.7969 17.9619 51.7969 30C51.7969 42.038 42.038 51.7969 30 51.7969C17.9619 51.7969 8.20312 42.038 8.20312 30Z" fill="#212121"/>
<path fill-rule="evenodd" clip-rule="evenodd" d="M30 49.7533C39.2229 49.7533 46.961 43.3605 49.0723 34.7407H42.5006C40.5952 39.8198 35.7171 43.4323 30 43.4323C24.2829 43.4323 19.4048 39.8198 17.4994 34.7407H10.9277C13.0391 43.3605 20.7772 49.7533 30 49.7533ZM30 10.2466C39.2229 10.2466 46.961 16.6393 49.0723 25.2591H42.5006C40.5952 20.1801 35.7171 16.5677 30 16.5677C24.2829 16.5677 19.4048 20.1801 17.4994 25.2591H10.9277C13.0391 16.6393 20.7772 10.2466 30 10.2466ZM26.543 25.2591C25.8487 25.2591 25.286 25.8251 25.286 26.5233V33.4767C25.286 34.1749 25.8487 34.7407 26.543 34.7407H33.457C34.1513 34.7407 34.714 34.1749 34.714 33.4767V26.5233C34.714 25.8251 34.1513 25.2591 33.457 25.2591H26.543Z" fill="#C6FF00"/>
</svg>
