<?xml version="1.0" encoding="utf-8"?>
<svg viewBox="0 0 60 60" xmlns="http://www.w3.org/2000/svg">
  <path d="M 8.657 29.778 C 8.657 17.739 18.416 7.981 30.454 7.981 C 42.492 7.981 52.251 17.739 52.251 29.778 C 52.251 41.816 42.492 51.574 30.454 51.574 C 18.416 51.574 8.657 41.816 8.657 29.778 Z" fill="#212121"/>
  <path fill-rule="evenodd" clip-rule="evenodd" d="M 30.454 49.531 C 39.677 49.531 47.415 43.138 49.527 34.518 L 42.955 34.518 C 41.05 39.597 36.171 43.21 30.454 43.21 C 24.737 43.21 19.859 39.597 17.954 34.518 L 11.382 34.518 C 13.493 43.138 21.232 49.531 30.454 49.531 Z M 30.454 10.024 C 39.677 10.024 47.415 16.417 49.527 25.037 L 42.955 25.037 C 41.05 19.958 36.171 16.345 30.454 16.345 C 24.737 16.345 19.859 19.958 17.954 25.037 L 11.382 25.037 C 13.493 16.417 21.232 10.024 30.454 10.024 Z M 26.997 25.037 C 26.303 25.037 25.74 25.603 25.74 26.301 L 25.74 33.254 C 25.74 33.952 26.303 34.518 26.997 34.518 L 33.911 34.518 C 34.606 34.518 35.168 33.952 35.168 33.254 L 35.168 26.301 C 35.168 25.603 34.606 25.037 33.911 25.037 L 26.997 25.037 Z" fill="#C6FF00"/>
</svg>