<svg width="97" height="96" viewBox="0 0 97 96" fill="none" xmlns="http://www.w3.org/2000/svg">
<path d="M66.7988 76C69.451 76 71.9945 74.9464 73.8699 73.0711C75.7453 71.1957 76.7988 68.6522 76.7988 66C76.7988 63.3478 75.7453 60.8043 73.8699 58.9289C71.9945 57.0536 69.451 56 66.7988 56C64.1467 56 61.6031 57.0536 59.7278 58.9289C57.8524 60.8043 56.7988 63.3478 56.7988 66C56.7988 68.6522 57.8524 71.1957 59.7278 73.0711C61.6031 74.9464 64.1467 76 66.7988 76ZM30.7988 40C33.451 40 35.9945 38.9464 37.8699 37.0711C39.7453 35.1957 40.7988 32.6522 40.7988 30C40.7988 27.3478 39.7453 24.8043 37.8699 22.9289C35.9945 21.0536 33.451 20 30.7988 20C28.1467 20 25.6031 21.0536 23.7278 22.9289C21.8524 24.8043 20.7988 27.3478 20.7988 30C20.7988 32.6522 21.8524 35.1957 23.7278 37.0711C25.6031 38.9464 28.1467 40 30.7988 40ZM22.7988 84C25.451 84 27.9945 82.9464 29.8699 81.0711C31.7453 79.1957 32.7988 76.6522 32.7988 74C32.7988 71.3478 31.7453 68.8043 29.8699 66.9289C27.9945 65.0536 25.451 64 22.7988 64C20.1467 64 17.6031 65.0536 15.7278 66.9289C13.8524 68.8043 12.7988 71.3478 12.7988 74C12.7988 76.6522 13.8524 79.1957 15.7278 81.0711C17.6031 82.9464 20.1467 84 22.7988 84ZM74.7988 32C77.451 32 79.9945 30.9464 81.8699 29.0711C83.7453 27.1957 84.7988 24.6522 84.7988 22C84.7988 19.3478 83.7453 16.8043 81.8699 14.9289C79.9945 13.0536 77.451 12 74.7988 12C72.1467 12 69.6031 13.0536 67.7278 14.9289C65.8524 16.8043 64.7988 19.3478 64.7988 22C64.7988 24.6522 65.8524 27.1957 67.7278 29.0711C69.6031 30.9464 72.1467 32 74.7988 32ZM48.7988 84L56.7988 76L48.7988 84Z" fill="white"/>
<path d="M40.7988 20L48.7988 12M32.7988 64L64.7988 32M48.7988 84L56.7988 76M66.7988 76C69.451 76 71.9945 74.9464 73.8699 73.0711C75.7453 71.1957 76.7988 68.6522 76.7988 66C76.7988 63.3478 75.7453 60.8043 73.8699 58.9289C71.9945 57.0536 69.451 56 66.7988 56C64.1467 56 61.6031 57.0536 59.7278 58.9289C57.8524 60.8043 56.7988 63.3478 56.7988 66C56.7988 68.6522 57.8524 71.1957 59.7278 73.0711C61.6031 74.9464 64.1467 76 66.7988 76ZM30.7988 40C33.451 40 35.9945 38.9464 37.8699 37.0711C39.7453 35.1957 40.7988 32.6522 40.7988 30C40.7988 27.3478 39.7453 24.8043 37.8699 22.9289C35.9945 21.0536 33.451 20 30.7988 20C28.1467 20 25.6031 21.0536 23.7278 22.9289C21.8524 24.8043 20.7988 27.3478 20.7988 30C20.7988 32.6522 21.8524 35.1957 23.7278 37.0711C25.6031 38.9464 28.1467 40 30.7988 40ZM22.7988 84C25.451 84 27.9945 82.9464 29.8699 81.0711C31.7453 79.1957 32.7988 76.6522 32.7988 74C32.7988 71.3478 31.7453 68.8043 29.8699 66.9289C27.9945 65.0536 25.451 64 22.7988 64C20.1467 64 17.6031 65.0536 15.7278 66.9289C13.8524 68.8043 12.7988 71.3478 12.7988 74C12.7988 76.6522 13.8524 79.1957 15.7278 81.0711C17.6031 82.9464 20.1467 84 22.7988 84ZM74.7988 32C77.451 32 79.9945 30.9464 81.8699 29.0711C83.7453 27.1957 84.7988 24.6522 84.7988 22C84.7988 19.3478 83.7453 16.8043 81.8699 14.9289C79.9945 13.0536 77.451 12 74.7988 12C72.1467 12 69.6031 13.0536 67.7278 14.9289C65.8524 16.8043 64.7988 19.3478 64.7988 22C64.7988 24.6522 65.8524 27.1957 67.7278 29.0711C69.6031 30.9464 72.1467 32 74.7988 32Z" stroke="white" stroke-width="5" stroke-linecap="round" stroke-linejoin="round"/>
</svg>
