<?xml version="1.0" encoding="UTF-8" standalone="no"?>
<!-- Uploaded to: SVG Repo, www.svgrepo.com, Generator: SVG Repo Mixer Tools -->

<svg
   fill="#000000"
   width="26.845999"
   height="31"
   viewBox="0 0 0.80537996 0.93"
   role="img"
   version="1.1"
   id="svg1"
   xmlns="http://www.w3.org/2000/svg"
   xmlns:svg="http://www.w3.org/2000/svg">
  <defs
     id="defs1" />
  <path
     d="M 0.40269,0 0,0.23250001 v 0.465 l 0.40269,0.2325 0.40269,-0.2325 v -0.465 z M 0.36111,0.05599401 h 3.9e-5 a 0.06975,0.06975 0 0 0 0.08285,0 l 0.291938,0.1685625 a 0.0695175,0.0695175 0 0 0 0,0.015617 l -0.291982,0.1685621 a 0.06975,0.06975 0 0 0 -0.08281,0 L 0.06913,0.24017251 a 0.06955625,0.06955625 0 0 0 0,-0.015578 z m 0.402884,0.2307562 c 0.0042,0.0031 0.0088,0.0057 0.01353,0.00779 v 0.3371202 a 0.06975,0.06975 0 0 0 -0.04142,0.071765 l -0.29198,0.1685624 a 0.06975,0.06975 0 0 0 -0.01353,-0.00775 L 0.43024,0.52893871 a 0.06975,0.06975 0 0 0 0.04146,-0.071726 z m -0.72261,0.00186 0.291981,0.1685626 a 0.06975,0.06975 0 0 0 0.04142,0.071765 v 0.3371248 c -0.0048,0.0021 -0.0093,0.00473 -0.01353,0.00783 l -0.29197,-0.168565 a 0.06975,0.06975 0 0 0 -0.04142,-0.071765 v -0.3371251 a 0.0716875,0.0716875 0 0 0 0.01356,-0.00783 z"
     id="path1"
     style="fill:#ffffff;stroke-width:0.03875" />
</svg>
