<svg width="30" height="31" viewBox="0 0 30 31" fill="none" xmlns="http://www.w3.org/2000/svg">
<path d="M12.1867 30H12.1865C12.0627 30 11.9422 29.9576 11.8451 29.8793C11.7483 29.8012 11.6804 29.692 11.6534 29.5693C11.6533 29.5689 11.6532 29.5686 11.6532 29.5682L11.0245 26.6509L10.9169 26.1514L10.4492 25.9459C9.67769 25.607 8.94613 25.1832 8.26794 24.6823L7.8567 24.3785L7.36965 24.534L4.52958 25.4408L4.52919 25.4409C4.41096 25.4787 4.28345 25.4748 4.16766 25.4299C4.05182 25.3849 3.95424 25.3013 3.89159 25.1925L3.89087 25.1912L1.07407 20.3127C1.07367 20.312 1.07327 20.3113 1.07287 20.3106C1.01107 20.2009 0.987844 20.0732 1.00726 19.9482C1.02671 19.823 1.08773 19.7085 1.17981 19.6232C1.18021 19.6228 1.1806 19.6224 1.181 19.6221L3.38128 17.6097L3.75578 17.2671L3.7004 16.7626C3.60818 15.9224 3.60818 15.0745 3.7004 14.2343L3.75586 13.729L3.38043 13.3865L1.18063 11.3791C1.18022 11.3788 1.17981 11.3784 1.1794 11.378C1.08721 11.2926 1.02612 11.1781 1.00667 11.0528C0.98721 10.9274 1.01066 10.7993 1.07289 10.6894C1.07316 10.6889 1.07343 10.6884 1.0737 10.6879L3.8853 5.80461L3.88541 5.80442C3.94806 5.69555 4.04564 5.61199 4.16147 5.56702L3.79961 4.63479L4.16148 5.56702C4.27727 5.52207 4.40478 5.5182 4.52301 5.556L4.52339 5.55613L7.36347 6.46288L7.85088 6.61849L8.26225 6.31425C8.61011 6.05696 8.97015 5.81824 9.33921 5.60326C9.6988 5.40119 10.0678 5.21783 10.4447 5.05447L10.9158 4.85024L11.0244 4.3483L11.6549 1.43233C11.655 1.4321 11.655 1.43187 11.6551 1.43164C11.6819 1.30881 11.7497 1.19935 11.8465 1.12107L11.2206 0.346762L11.8465 1.12107C11.9434 1.04275 12.0637 1.00022 12.1874 1H17.8136C17.9373 1.00022 18.0575 1.04275 18.1544 1.12107C18.2514 1.1995 18.3193 1.30922 18.346 1.43233L18.3462 1.43307L18.9832 4.35172L19.0914 4.84765L19.5556 5.05301C20.3277 5.39455 21.0605 5.81911 21.7413 6.31924L22.1519 6.62092L22.6373 6.46602L25.4786 5.55937C25.5968 5.52171 25.7242 5.52565 25.8399 5.5706C25.9556 5.61554 26.053 5.699 26.1157 5.80771C26.1157 5.80774 26.1157 5.80776 26.1157 5.80779L28.9268 10.6902C28.9271 10.6908 28.9274 10.6913 28.9277 10.6919C29.0555 10.9185 29.01 11.2052 28.8211 11.38C28.8208 11.3803 28.8205 11.3806 28.8201 11.3809L26.6197 13.3934L26.2452 13.736L26.3005 14.2405C26.3928 15.0807 26.3928 15.9286 26.3005 16.7688L26.2452 17.2733L26.6197 17.6159L28.819 19.6274C28.8195 19.6278 28.82 19.6283 28.8205 19.6288C29.011 19.8061 29.055 20.0918 28.9277 20.3174C28.9274 20.318 28.9271 20.3186 28.9268 20.3191L26.1157 25.2016L26.1155 25.2018C26.0529 25.3107 25.9553 25.3942 25.8395 25.4392L26.2013 26.3714L25.8395 25.4392C25.7237 25.4841 25.5962 25.488 25.4779 25.4502L25.4776 25.4501L22.6375 24.5433L22.1504 24.3878L21.7392 24.6916C21.0617 25.1921 20.3307 25.6153 19.5599 25.9535L19.0939 26.158L18.9849 26.6551L18.3464 29.5676L18.3463 29.5682C18.3194 29.6912 18.2515 29.8008 18.1545 29.8791C18.0575 29.9574 17.9372 29.9999 17.8134 30H12.1867ZM14.9943 8.3C13.0881 8.3 11.2605 9.05919 9.91342 10.4097C8.56641 11.7602 7.81013 13.5913 7.81013 15.5C7.81013 17.4087 8.56641 19.2398 9.91342 20.5903C11.2605 21.9408 13.0881 22.7 14.9943 22.7C16.9005 22.7 18.7281 21.9408 20.0752 20.5903C21.4222 19.2398 22.1784 17.4087 22.1784 15.5C22.1784 13.5913 21.4222 11.7602 20.0752 10.4097C18.7281 9.05919 16.9005 8.3 14.9943 8.3Z" stroke="white" stroke-width="2"/>
</svg>
