<svg width="83" height="83" viewBox="0 0 83 83" fill="none" xmlns="http://www.w3.org/2000/svg">
<rect width="83" height="83" rx="11" fill="white"/>
<g clip-path="url(#clip0_106_1136)">
<path d="M61.9012 23.8865C62.0012 23.6366 62.0257 23.3628 61.9716 23.0992C61.9175 22.8355 61.7872 22.5935 61.5969 22.4032C61.4066 22.2129 61.1646 22.0826 60.9009 22.0285C60.6373 21.9745 60.3635 21.9989 60.1137 22.099L20.1094 38.1012H20.1067L18.8637 38.5962C18.6282 38.6901 18.4234 38.8473 18.2716 39.0503C18.1199 39.2534 18.0273 39.4944 18.0039 39.7468C17.9806 39.9992 18.0275 40.2531 18.1394 40.4805C18.2513 40.7079 18.4239 40.9 18.6382 41.0355L19.7657 41.7505L19.7684 41.756L33.5047 50.4955L42.2442 64.2317L42.2497 64.2372L42.9647 65.3647C43.1006 65.5781 43.2927 65.7499 43.52 65.8611C43.7472 65.9723 44.0008 66.0187 44.2527 65.9951C44.5046 65.9715 44.7451 65.8788 44.9477 65.7273C45.1503 65.5758 45.3073 65.3714 45.4012 65.1365L61.9012 23.8865ZM56.8604 29.084L36.2519 49.6925L35.6607 48.763C35.5523 48.5924 35.4077 48.4478 35.2372 48.3395L34.3077 47.7482L54.9162 27.1397L58.1557 25.8445L56.8632 29.084H56.8604Z" fill="#0D0D0D"/>
</g>
<defs>
<clipPath id="clip0_106_1136">
<rect width="44" height="44" fill="white" transform="translate(18 22)"/>
</clipPath>
</defs>
</svg>
