<?xml version="1.0" encoding="UTF-8" standalone="no" ?>
<!DOCTYPE svg PUBLIC "-//W3C//DTD SVG 1.1//EN" "http://www.w3.org/Graphics/SVG/1.1/DTD/svg11.dtd">
<svg xmlns="http://www.w3.org/2000/svg" xmlns:xlink="http://www.w3.org/1999/xlink" version="1.1" width="46" height="46" viewBox="-51 -74 46 46" xml:space="preserve">
<desc>Created with Fabric.js 4.6.0</desc>
<defs>
</defs>
<g transform="matrix(0.79 0 0 0.79 -28 -51)" id="YEBVtjse6XqvQPxysoBTH"  >
<path style="stroke: rgb(255,255,255); stroke-width: 4; stroke-dasharray: none; stroke-linecap: butt; stroke-dashoffset: 0; stroke-linejoin: miter; stroke-miterlimit: 4; fill: none; fill-rule: nonzero; opacity: 1;" vector-effect="non-scaling-stroke"  transform=" translate(0, 0)" d="M -26.5 -15.257 C -26.5 -21.46634 -21.46634 -26.5 -15.257 -26.5 L 15.257 -26.5 L 15.257 -26.5 C 21.46634 -26.5 26.5 -21.46634 26.5 -15.257 L 26.5 15.257 L 26.5 15.257 C 26.5 21.46634 21.46634 26.5 15.257 26.5 L -15.257 26.5 L -15.257 26.5 C -21.46634 26.5 -26.5 21.46634 -26.5 15.257 z" stroke-linecap="round" />
</g>
<g transform="matrix(1 0 0 1 -29 -51)" id="8gzpiNG389EhMW6Fkys4v"  >
<path style="stroke: none; stroke-width: 1; stroke-dasharray: none; stroke-linecap: butt; stroke-dashoffset: 0; stroke-linejoin: miter; stroke-miterlimit: 4; fill: rgb(255,255,255); fill-rule: evenodd; opacity: 1;" vector-effect="non-scaling-stroke"  transform=" translate(-20, -22)" d="M 30.9886676 11.9209704 L 27.8458705 30.7777533 C 27.8049484 31.0151012 27.6739999 31.1992476 27.4530208 31.3301981 C 27.3384391 31.3956734 27.2115827 31.4284106 27.0724477 31.4284106 C 26.9824192 31.4284106 26.8842078 31.4079498 26.7778105 31.3670278 L 21.2165327 29.0958658 L 18.2456073 32.7174485 C 18.0982879 32.9056899 17.8977729 32.9998091 17.6440563 32.9998091 C 17.537659 32.9998091 17.4476318 32.9834406 17.3739721 32.9507029 C 17.2184684 32.8934121 17.093658 32.7972467 16.9995373 32.662204 C 16.9054166 32.5271612 16.858357 32.377798 16.858357 32.2141098 L 16.858357 27.9295934 L 27.4652974 14.9287255 L 14.3416639 26.2845355 L 9.49242614 24.2957342 C 9.18960303 24.1811525 9.02591731 23.9560846 9.00136409 23.6205239 C 8.98499527 23.2931475 9.11594384 23.0517111 9.39421373 22.8962073 L 29.8223953 11.110718 C 29.9451614 11.0370583 30.07611 11.000229 30.2152449 11.000229 C 30.3789331 11.000229 30.5262502 11.0452426 30.6572007 11.1352711 C 30.9272862 11.3316969 31.0377741 11.593594 30.9886676 11.9209704 Z" stroke-linecap="round" />
</g>
</svg>