<?xml version="1.0" encoding="UTF-8" standalone="no" ?>
<!DOCTYPE svg PUBLIC "-//W3C//DTD SVG 1.1//EN" "http://www.w3.org/Graphics/SVG/1.1/DTD/svg11.dtd">
<svg xmlns="http://www.w3.org/2000/svg" xmlns:xlink="http://www.w3.org/1999/xlink" version="1.1" width="46" height="46" viewBox="-128 -79 46 46" xml:space="preserve">
<desc>Created with Fabric.js 4.6.0</desc>
<defs>
</defs>
<g transform="matrix(1 0 0 1 -105.5 -56)" id="UgjKyEcVKAsD5vPMYzpz2"  >
<path style="stroke: none; stroke-width: 1; stroke-dasharray: none; stroke-linecap: butt; stroke-dashoffset: 0; stroke-linejoin: miter; stroke-miterlimit: 4; fill: rgb(255,255,255); fill-rule: evenodd; opacity: 1;" vector-effect="non-scaling-stroke"  transform=" translate(-22.5, -23)" d="M 30.526149 16.8457316 C 31.4160944 16.2841254 32.0989611 15.3936155 32.41944 14.3328037 C 31.5861948 14.8541095 30.6654341 15.2311137 29.6830428 15.4352159 C 28.899102 14.5512061 27.7786582 14 26.5386512 14 C 24.1597112 14 22.231907 16.0345226 22.231907 18.5435505 C 22.231907 18.8997544 22.2676528 19.2468583 22.3416094 19.578362 C 18.762106 19.3885599 15.5881317 17.5815398 13.4618771 14.8307092 C 13.0908611 15.5041167 12.8788519 16.2841254 12.8788519 17.1161346 C 12.8788519 18.6917521 13.6393731 20.0827676 14.7955626 20.8991767 C 14.0892763 20.8757764 13.4248987 20.6690741 12.8431062 20.3310703 L 12.8431062 20.386971 C 12.8431062 22.5891954 14.3271703 24.4261158 16.3005811 24.8421205 C 15.9381933 24.9487217 15.558549 25.0020222 15.1641134 25.0020222 C 14.8867758 25.0020222 14.6156013 24.9747219 14.3542877 24.9214213 C 14.9015672 26.7258414 16.4928685 28.041456 18.3787639 28.0765564 C 16.9033281 29.29597 15.0457827 30.021378 13.0279979 30.021378 C 12.6804015 30.021378 12.3365029 30.0018778 12 29.9589773 C 13.9068498 31.2472916 16.1711569 32 18.6043317 32 C 26.5300229 32 30.8614193 25.0761231 30.8614193 19.0713563 C 30.8614193 18.8737542 30.858954 18.677452 30.8503258 18.4837498 C 31.6921993 17.8428427 32.4243705 17.0420338 33 16.1307237 C 32.2271527 16.4921277 31.3963726 16.7365304 30.526149 16.8457316 Z" stroke-linecap="round" />
</g>
<g transform="matrix(0.79 0 0 0.79 -105 -56)" id="YEBVtjse6XqvQPxysoBTH"  >
<path style="stroke: rgb(255,255,255); stroke-width: 4; stroke-dasharray: none; stroke-linecap: butt; stroke-dashoffset: 0; stroke-linejoin: miter; stroke-miterlimit: 4; fill: none; fill-rule: nonzero; opacity: 1;" vector-effect="non-scaling-stroke"  transform=" translate(0, 0)" d="M -26.5 -15.257 C -26.5 -21.46634 -21.46634 -26.5 -15.257 -26.5 L 15.257 -26.5 L 15.257 -26.5 C 21.46634 -26.5 26.5 -21.46634 26.5 -15.257 L 26.5 15.257 L 26.5 15.257 C 26.5 21.46634 21.46634 26.5 15.257 26.5 L -15.257 26.5 L -15.257 26.5 C -21.46634 26.5 -26.5 21.46634 -26.5 15.257 z" stroke-linecap="round" />
</g>
</svg>