<svg width="83" height="85" viewBox="0 0 83 85" fill="none" xmlns="http://www.w3.org/2000/svg">
<path d="M74.1071 0.9375H8.89286C3.98326 0.9375 0 4.92676 0 9.84375V75.1562C0 80.0732 3.98326 84.0625 8.89286 84.0625H74.1071C79.0167 84.0625 83 80.0732 83 75.1562V9.84375C83 4.92676 79.0167 0.9375 74.1071 0.9375ZM65.0475 30.4023C65.0846 30.9219 65.0846 31.46 65.0846 31.9795C65.0846 48.0664 52.8569 66.6025 30.5136 66.6025C23.6217 66.6025 17.2299 64.5986 11.8571 61.1475C12.8391 61.2588 13.7839 61.2959 14.7844 61.2959C20.4721 61.2959 25.6966 59.3662 29.8652 56.1006C24.5295 55.9893 20.046 52.4824 18.5083 47.6582C20.3795 47.9365 22.0654 47.9365 23.9922 47.4355C18.4342 46.3037 14.2656 41.4053 14.2656 35.4863V35.3379C15.8775 36.2471 17.7672 36.8037 19.7496 36.8779C18.0829 35.7677 16.7167 34.2615 15.7727 32.4937C14.8288 30.726 14.3365 28.7517 14.3397 26.7471C14.3397 24.4834 14.9326 22.4053 15.9886 20.6055C21.9728 27.9902 30.9583 32.8145 41.0368 33.334C39.3138 25.0772 45.4833 18.3789 52.894 18.3789C56.3955 18.3789 59.5451 19.8447 61.7683 22.2197C64.5103 21.7002 67.1411 20.6797 69.4754 19.2881C68.5676 22.1084 66.6594 24.4834 64.1397 25.9863C66.5853 25.7266 68.9567 25.04 71.1429 24.0938C69.494 26.5244 67.419 28.6768 65.0475 30.4023Z" fill="white"/>
</svg>
