<?xml version="1.0" encoding="utf-8"?>
<svg viewBox="0 0 60 60" xmlns="http://www.w3.org/2000/svg">
  <defs>
    <linearGradient id="paint0_linear_105_809" x1="15.9681" y1="34.1969" x2="36.0783" y2="34.1969" gradientUnits="userSpaceOnUse" gradientTransform="matrix(1, 0, 0, 1, 3.900324, 11.40604)">
      <stop stop-color="#3B60B2"/>
      <stop offset="0.497" stop-color="#3B60B2"/>
      <stop offset="0.499" stop-color="#4A78DF"/>
      <stop offset="1" stop-color="#4A78DF"/>
    </linearGradient>
    <linearGradient id="paint1_linear_105_809" x1="47.3104" y1="11.4961" x2="4.65455" y2="11.4961" gradientUnits="userSpaceOnUse" gradientTransform="matrix(1, 0, 0, 1, 3.900324, 11.40604)">
      <stop stop-color="#253C70"/>
      <stop offset="0.499" stop-color="#34549C"/>
      <stop offset="0.5" stop-color="#3B60B2"/>
      <stop offset="1" stop-color="#2C4886"/>
    </linearGradient>
    <linearGradient id="paint2_linear_105_809" x1="43.1582" y1="21.0161" x2="9.59682" y2="21.0161" gradientUnits="userSpaceOnUse" gradientTransform="matrix(1, 0, 0, 1, 3.900324, 11.40604)">
      <stop stop-color="#34549C"/>
      <stop offset="0.512" stop-color="#4A78DF"/>
      <stop offset="1" stop-color="#3B60B2"/>
    </linearGradient>
    <linearGradient id="paint3_linear_105_809" x1="22.6985" y1="34.314" x2="29.3867" y2="34.3487" gradientUnits="userSpaceOnUse" gradientTransform="matrix(1, 0, 0, 1, 3.900324, 11.40604)">
      <stop stop-color="#436CC9"/>
      <stop offset="0.494" stop-color="#4A78DF"/>
      <stop offset="1" stop-color="#4A78DF"/>
    </linearGradient>
    <linearGradient id="paint4_linear_105_809" x1="5.58901" y1="5.29673" x2="46.2383" y2="5.29673" gradientUnits="userSpaceOnUse" gradientTransform="matrix(1, 0, 0, 1, 3.900324, 11.40604)">
      <stop stop-color="#1E3059"/>
      <stop offset="0.502" stop-color="#253C70"/>
      <stop offset="1" stop-color="#162443"/>
    </linearGradient>
  </defs>
  <path d="M 20.309 41.736 C 20.277 41.74 20.247 41.76 20.221 41.801 C 20.117 41.968 20.376 43.535 21.123 44.383 C 21.869 45.234 23.52 44.935 24.668 45.115 C 25.816 45.295 26.259 46.161 27.031 47.276 C 28.221 49.209 29.9 49.256 29.9 49.256 C 29.9 49.256 31.58 49.209 32.769 47.276 C 33.542 46.161 33.985 45.295 35.133 45.115 C 36.281 44.935 37.932 45.234 38.678 44.383 C 39.425 43.535 39.684 41.968 39.58 41.801 C 39.475 41.635 39.31 41.814 39.186 41.955 C 38.651 42.567 38.38 42.977 37.157 43.308 C 35.935 43.64 34.725 43.324 34.725 43.324 C 34.196 43.791 33.764 44.116 32.762 44.15 L 29.9 44.159 L 27.039 44.15 C 26.037 44.116 25.605 43.791 25.076 43.324 C 25.076 43.324 23.866 43.64 22.644 43.308 C 21.421 42.977 21.15 42.567 20.615 41.955 C 20.522 41.849 20.406 41.722 20.309 41.736 Z" fill="url(#paint0_linear_105_809)"/>
  <path d="M 8.632 11.412 C 6.388 11.096 -4.636 22.746 17.462 30.539 C 19.746 31.346 24.894 32.751 26.613 35.702 C 25.405 35.973 24.616 36.141 23.246 35.652 C 21.248 34.938 21.733 32.821 21.774 32.806 L 11.214 28.786 C 11.214 28.786 13.034 30.931 15.587 32.806 C 18.141 34.681 22.704 36.607 24.549 37.696 C 26.395 38.781 26.912 40.601 26.912 40.601 C 26.912 40.601 26.357 40.495 25.13 40.462 C 23.903 40.428 22.754 39.628 22.486 38.903 C 22.218 38.179 22.388 37.147 22.378 37.127 L 19.758 35.957 C 19.758 35.957 19.758 37.777 19.227 38.375 C 18.696 38.97 16.189 37.306 15.537 36.958 C 15.342 36.854 15.146 36.884 15.181 37.118 C 15.213 37.33 16.444 39.147 17.558 40.139 C 18.67 41.129 20.101 40.783 20.439 40.77 C 20.99 40.748 22.15 40.773 23.287 41.457 C 24.599 42.247 24.769 42.718 25.234 43.146 C 25.566 43.452 26.105 43.943 27.029 43.943 L 29.901 43.967 L 32.772 43.943 C 33.696 43.943 34.236 43.452 34.567 43.146 C 35.032 42.718 35.203 42.247 36.514 41.457 C 37.651 40.773 38.811 40.748 39.362 40.77 C 39.701 40.783 41.132 41.129 42.243 40.139 C 43.358 39.147 44.588 37.33 44.62 37.118 C 44.655 36.884 44.46 36.854 44.265 36.958 C 43.612 37.306 41.106 38.97 40.575 38.375 C 40.044 37.777 40.044 35.957 40.044 35.957 L 37.424 37.127 C 37.414 37.147 37.583 38.179 37.316 38.903 C 37.048 39.628 35.897 40.428 34.671 40.462 C 33.444 40.495 32.89 40.601 32.89 40.601 C 32.89 40.601 33.406 38.781 35.252 37.696 C 37.098 36.607 41.66 34.681 44.214 32.806 C 46.768 30.931 48.587 28.786 48.587 28.786 L 38.027 32.806 C 38.069 32.821 38.553 34.938 36.555 35.652 C 35.186 36.141 34.396 35.973 33.189 35.702 C 34.907 32.751 40.055 31.346 42.339 30.539 C 65.15 22.494 52.668 10.34 50.981 11.481 C 50.485 11.818 50.836 12.331 50.836 12.331 C 50.836 12.331 52.549 15.187 51.231 17.793 C 49.914 20.399 44.49 21.899 42.586 21.693 C 40.691 21.49 39.888 20.891 39.882 20.876 C 39.215 20.029 38.45 18.494 37.179 19.37 C 35.684 20.403 33.981 20.076 32.678 18.666 C 31.371 17.252 29.901 16.703 29.901 16.703 C 29.901 16.703 28.429 17.252 27.123 18.666 C 25.82 20.076 24.117 20.403 22.622 19.37 C 21.351 18.494 20.587 20.029 19.92 20.876 C 19.914 20.891 19.11 21.489 17.215 21.693 C 15.311 21.899 9.888 20.399 8.57 17.793 C 7.253 15.187 8.965 12.331 8.965 12.331 C 8.965 12.331 9.316 11.818 8.82 11.481 C 8.763 11.444 8.699 11.42 8.632 11.412 Z M 20.109 23.966 C 20.109 23.966 21.604 23.94 24.158 24.7 C 26.709 25.461 29.9 28.507 29.9 28.507 C 29.9 28.507 33.093 25.461 35.644 24.7 C 38.198 23.94 39.692 23.966 39.692 23.966 C 39.692 23.966 36.296 24.7 33.473 26.465 C 30.649 28.229 29.9 30.403 29.9 30.403 C 29.9 30.403 29.152 28.229 26.328 26.465 C 23.504 24.7 20.109 23.966 20.109 23.966 Z" fill="url(#paint1_linear_105_809)"/>
  <path d="M 8.217 11.46 C 5.335 12.299 -3.487 23.151 17.462 30.539 C 19.746 31.346 24.895 32.751 26.612 35.702 C 25.405 35.973 24.616 36.141 23.246 35.652 C 21.249 34.938 21.733 32.822 21.774 32.806 L 11.214 28.786 C 11.214 28.786 13.034 30.931 15.587 32.806 C 18.141 34.681 22.704 36.607 24.549 37.696 C 26.395 38.781 26.912 40.601 26.912 40.601 C 26.912 40.601 26.357 40.496 25.13 40.462 C 23.903 40.428 22.754 39.628 22.486 38.903 C 22.218 38.179 22.388 37.147 22.378 37.127 L 19.758 35.957 C 19.758 35.957 19.758 37.777 19.227 38.375 C 18.696 38.97 16.189 37.306 15.537 36.958 C 15.342 36.854 15.146 36.884 15.181 37.118 C 15.213 37.331 16.444 39.147 17.558 40.14 C 18.67 41.129 20.101 40.783 20.439 40.77 C 20.99 40.748 22.15 40.773 23.287 41.457 C 24.598 42.247 24.769 42.718 25.234 43.146 C 25.565 43.452 26.105 43.943 27.029 43.943 L 29.88 43.968 L 29.901 43.968 L 32.751 43.943 C 33.675 43.943 34.214 43.452 34.546 43.146 C 35.01 42.718 35.181 42.247 36.493 41.457 C 37.63 40.773 38.79 40.748 39.341 40.77 C 39.679 40.783 41.111 41.129 42.222 40.14 C 43.337 39.147 44.567 37.331 44.599 37.118 C 44.634 36.884 44.438 36.854 44.243 36.958 C 43.591 37.306 41.084 38.97 40.553 38.375 C 40.022 37.777 40.022 35.957 40.022 35.957 L 37.402 37.127 C 37.392 37.147 37.562 38.179 37.294 38.903 C 37.026 39.628 35.877 40.428 34.65 40.462 C 33.423 40.496 32.868 40.601 32.868 40.601 C 32.868 40.601 33.385 38.781 35.231 37.696 C 37.077 36.607 41.639 34.681 44.193 32.806 C 46.746 30.931 48.566 28.786 48.566 28.786 L 38.006 32.806 C 38.047 32.822 38.531 34.938 36.534 35.652 C 35.164 36.141 34.374 35.973 33.167 35.702 C 34.885 32.751 40.034 31.346 42.318 30.539 C 63.267 23.151 54.445 12.299 51.563 11.46 C 51.563 11.46 54.486 15.262 54.039 18.983 C 53.606 22.704 46.245 26.452 40.075 27.968 C 38.336 28.396 30.178 31.91 29.893 35.877 C 29.608 31.91 21.444 28.396 19.705 27.968 C 13.535 26.452 6.174 22.704 5.741 18.983 C 5.295 15.262 8.217 11.46 8.217 11.46 Z" fill="url(#paint2_linear_105_809)"/>
  <path d="M 27.038 44.15 C 26.888 46.673 29.901 48.201 29.901 48.201 C 29.901 48.201 32.913 46.673 32.763 44.15 L 29.901 44.159 L 27.038 44.15 Z" fill="url(#paint3_linear_105_809)"/>
  <path fill-rule="evenodd" clip-rule="evenodd" d="M 26.038 39.729 C 25.896 39.388 25.125 38.041 23.332 37.516 C 23.136 37.459 22.818 37.422 22.739 37.875 C 22.669 38.273 22.802 38.795 23.046 39.111 C 23.493 39.689 24.002 39.95 24.628 40.069 C 24.895 40.12 25.287 40.202 25.618 40.179 C 25.744 40.172 25.868 40.139 25.98 40.08 C 26.131 40.004 26.107 39.893 26.038 39.729 Z M 25.676 35.136 C 25.2 34.59 24.536 33.685 22.792 33.031 C 22.6 32.959 22.278 32.936 22.199 33.39 C 22.13 33.788 22.262 34.31 22.507 34.626 C 22.953 35.204 23.462 35.47 24.088 35.584 C 24.369 35.635 24.594 35.695 25.078 35.694 C 25.213 35.694 25.35 35.67 25.476 35.647 C 25.955 35.561 25.837 35.321 25.676 35.136 Z M 33.763 39.729 C 33.905 39.388 34.676 38.041 36.469 37.516 C 36.666 37.459 36.983 37.422 37.062 37.875 C 37.132 38.273 36.999 38.795 36.755 39.111 C 36.308 39.689 35.799 39.95 35.173 40.069 C 34.906 40.12 34.515 40.202 34.184 40.179 C 34.057 40.172 33.933 40.139 33.821 40.08 C 33.67 40.004 33.695 39.893 33.763 39.729 Z M 34.125 35.136 C 34.602 34.59 35.265 33.685 37.009 33.031 C 37.201 32.959 37.523 32.936 37.602 33.39 C 37.672 33.788 37.539 34.31 37.294 34.626 C 36.848 35.204 36.339 35.47 35.713 35.584 C 35.432 35.635 35.207 35.695 34.723 35.694 C 34.588 35.694 34.451 35.67 34.325 35.647 C 33.846 35.561 33.964 35.321 34.125 35.136 Z" fill="#6E93E5"/>
  <path d="M 8.17 16.636 C 8.17 16.636 7.958 22.478 16.598 23.181 C 17.657 23.271 18.806 23.148 19.822 22.098 C 21.355 20.514 21.212 20.107 22.237 20.502 C 23.264 20.897 24.611 21.381 26.163 20.002 C 27.716 18.627 28.557 18.309 29.901 18.309 C 31.245 18.309 32.086 18.627 33.639 20.003 C 35.192 21.381 36.538 20.897 37.566 20.502 C 38.59 20.107 38.447 20.514 39.98 22.098 C 40.996 23.148 42.145 23.271 43.205 23.181 C 51.844 22.478 51.632 16.636 51.632 16.636 C 51.552 17.038 51.417 17.428 51.232 17.794 C 49.915 20.4 44.496 21.176 42.592 20.972 C 40.697 20.77 40.716 20.053 40.114 19.045 C 39.484 17.992 38.451 18.052 37.18 18.929 C 35.685 19.962 33.976 19.527 32.672 18.116 C 31.366 16.703 29.901 16.703 29.901 16.703 C 29.901 16.703 28.436 16.703 27.13 18.116 C 25.827 19.527 24.117 19.962 22.622 18.929 C 21.351 18.052 20.318 17.992 19.688 19.045 C 19.086 20.053 19.105 20.77 17.21 20.972 C 15.306 21.176 9.888 20.4 8.57 17.794 C 8.385 17.428 8.25 17.038 8.17 16.636 Z" fill="url(#paint4_linear_105_809)"/>
</svg>