<svg width="52" height="38" viewBox="0 0 52 38" fill="none" xmlns="http://www.w3.org/2000/svg">
<path d="M16.4088 30.3296C16.3767 30.3341 16.3468 30.3539 16.3205 30.3953C16.2159 30.5621 16.4758 32.1289 17.2221 32.9768C17.9684 33.8277 19.619 33.529 20.7672 33.7091C21.9149 33.8889 22.358 34.7551 23.1306 35.8696C24.3201 37.8031 25.9996 37.8499 25.9996 37.8499C25.9996 37.8499 27.679 37.8031 28.8686 35.8696C29.6411 34.7551 30.0844 33.8889 31.2324 33.7091C32.3801 33.529 34.0315 33.8277 34.7778 32.9768C35.5242 32.1289 35.7838 30.5621 35.6791 30.3953C35.5748 30.229 35.4095 30.4079 35.2857 30.5493C34.7505 31.1611 34.479 31.5705 33.2565 31.9021C32.0341 32.2338 30.824 31.9184 30.824 31.9184C30.2957 32.3852 29.8629 32.7102 28.8613 32.7441L25.9996 32.7533L23.138 32.7441C22.1364 32.7102 21.704 32.3852 21.1757 31.9184C21.1757 31.9184 19.9656 32.2338 18.7432 31.9021C17.5208 31.5705 17.2492 31.1611 16.714 30.5493C16.6212 30.4431 16.5053 30.3163 16.4088 30.3296Z" fill="url(#paint0_linear_105_809)"/>
<path d="M4.73089 0.00631044C2.48735 -0.310059 -8.53655 11.3395 13.5613 19.1331C15.8456 19.9398 20.9937 21.3446 22.712 24.2961C21.5048 24.5667 20.7152 24.735 19.3458 24.2458C17.3478 23.5321 17.8321 21.4154 17.8735 21.3995L7.31306 17.3799C7.31306 17.3799 9.13301 19.5249 11.6868 21.3995C14.2407 23.2745 18.8029 25.2012 20.6487 26.2897C22.4947 27.3751 23.0109 29.1948 23.0109 29.1948C23.0109 29.1948 22.4564 29.0894 21.2296 29.0555C20.0026 29.0215 18.8531 28.2216 18.5852 27.497C18.3173 26.7728 18.4872 25.7413 18.4773 25.7211L15.8569 24.5512C15.8569 24.5512 15.8571 26.3711 15.326 26.9689C14.7949 27.5641 12.2886 25.9 11.636 25.5521C11.4412 25.4483 11.2449 25.4776 11.2801 25.7119C11.3124 25.9244 12.5432 27.7407 13.6576 28.7334C14.7689 29.7231 16.2002 29.3767 16.5385 29.3636C17.0897 29.3423 18.2497 29.3666 19.3864 30.0511C20.6981 30.8409 20.8688 31.3117 21.3334 31.7403C21.665 32.0462 22.2045 32.5369 23.1284 32.5369L25.9999 32.5614L28.8711 32.5369C29.7952 32.5369 30.3351 32.0462 30.6667 31.7403C31.1311 31.3117 31.3021 30.8409 32.6137 30.0511C33.7506 29.3666 34.9104 29.3423 35.4615 29.3636C35.8 29.3767 37.2313 29.7231 38.3425 28.7334C39.457 27.7407 40.6872 25.9244 40.7194 25.7119C40.7546 25.4776 40.5589 25.4483 40.364 25.5521C39.7116 25.9 37.2052 27.5641 36.6741 26.9689C36.143 26.3711 36.143 24.5512 36.143 24.5512L33.523 25.7211C33.5129 25.7413 33.6828 26.7728 33.4149 27.497C33.147 28.2216 31.9968 29.0215 30.7701 29.0555C29.5433 29.0894 28.9891 29.1948 28.9891 29.1948C28.9891 29.1948 29.5056 27.3751 31.3512 26.2897C33.1972 25.2012 37.7592 23.2745 40.3133 21.3995C42.8672 19.5249 44.6866 17.3799 44.6866 17.3799L34.1266 21.3995C34.168 21.4154 34.6522 23.5321 32.6543 24.2458C31.2849 24.735 30.4953 24.5667 29.2883 24.2961C31.0063 21.3446 36.1545 19.9398 38.4386 19.1331C61.2495 11.0883 48.7669 -1.06571 47.0807 0.0749123C46.5844 0.411645 46.9357 0.924939 46.9357 0.924939C46.9357 0.924939 48.6479 3.78084 47.3306 6.3869C46.0129 8.99318 40.5894 10.4927 38.6855 10.2867C36.7905 10.0836 35.987 9.48446 35.9812 9.46994C35.3139 8.62248 34.5492 7.08752 33.2781 7.96378C31.7836 8.99715 30.08 8.67002 28.7769 7.25963C27.4708 5.8462 25.9999 5.29661 25.9999 5.29661C25.9999 5.29661 24.5287 5.8462 23.2226 7.25963C21.9197 8.67002 20.2159 8.99715 18.7214 7.96378C17.4503 7.08752 16.6866 8.62248 16.0189 9.46994C16.0131 9.48446 15.2096 10.0834 13.3145 10.2867C11.4107 10.4927 5.98721 8.99318 4.66954 6.3869C3.35211 3.78084 5.06434 0.925182 5.06434 0.925182C5.06434 0.925182 5.41513 0.411645 4.91894 0.0749123C4.86234 0.0379326 4.79801 0.0144595 4.73089 0.00631044ZM16.2081 12.56C16.2081 12.56 17.703 12.5336 20.257 13.2939C22.8079 14.0547 25.9997 17.1011 25.9997 17.1011C25.9997 17.1011 29.192 14.0547 31.7429 13.2941C34.2969 12.5337 35.7916 12.56 35.7916 12.56C35.7916 12.56 32.3958 13.2941 29.5721 15.0586C26.7483 16.8229 25.9997 18.9969 25.9997 18.9969C25.9997 18.9969 25.2509 16.8229 22.4272 15.0586C19.6033 13.2941 16.2079 12.56 16.2079 12.56H16.2081Z" fill="url(#paint1_linear_105_809)"/>
<path d="M4.31658 0.0539551C1.43445 0.892966 -7.38803 11.7448 13.5615 19.1332C15.8456 19.9399 20.994 21.3449 22.7118 24.2962C21.5048 24.567 20.7152 24.7351 19.3458 24.2459C17.3479 23.5322 17.8322 21.4155 17.8734 21.3996L7.31323 17.38C7.31323 17.38 9.13293 19.5249 11.6868 21.3996C14.2408 23.2746 18.8031 25.2013 20.6487 26.2898C22.4945 27.3752 23.011 29.1949 23.011 29.1949C23.011 29.1949 22.4565 29.0895 21.2295 29.0555C20.0028 29.0216 18.8531 28.2217 18.5852 27.4971C18.3172 26.7727 18.4875 25.7411 18.4773 25.7208L15.857 24.5513C15.857 24.5513 15.857 26.3711 15.3262 26.969C14.7949 27.5642 12.2888 25.9001 11.6362 25.5522C11.4413 25.4484 11.2451 25.4777 11.2802 25.712C11.3123 25.9245 12.5431 27.7408 13.6577 28.7335C14.7691 29.7232 16.2001 29.3768 16.5385 29.3637C17.0898 29.3422 18.2494 29.3665 19.3859 30.0512C20.6978 30.841 20.8688 31.3118 21.3334 31.7404C21.6648 32.0463 22.2045 32.537 23.1286 32.537L25.9789 32.5615H25.9999L28.85 32.537C29.7741 32.537 30.3138 32.0463 30.6452 31.7404C31.1098 31.3118 31.2808 30.841 32.5927 30.0512C33.7293 29.3665 34.8889 29.3422 35.4402 29.3637C35.7785 29.3768 37.21 29.7232 38.3216 28.7335C39.436 27.7408 40.6663 25.9245 40.6985 25.712C40.7337 25.4777 40.5376 25.4484 40.3427 25.5522C39.6901 25.9001 37.1837 27.5642 36.6526 26.969C36.1215 26.3711 36.1215 24.5513 36.1215 24.5513L33.5015 25.7208C33.4912 25.7411 33.6615 26.7727 33.3936 27.4971C33.1257 28.2217 31.9759 29.0216 30.7492 29.0555C29.5223 29.0895 28.9676 29.1949 28.9676 29.1949C28.9676 29.1949 29.4847 27.3752 31.3303 26.2898C33.1763 25.2013 37.7379 23.2746 40.292 21.3996C42.8457 19.5251 44.6655 17.38 44.6655 17.38L34.1053 21.3996C34.1467 21.4155 34.6307 23.5322 32.633 24.2459C31.2634 24.7351 30.4738 24.567 29.2668 24.2962C30.9847 21.3449 36.1332 19.9399 38.4171 19.1332C59.3667 11.7448 50.5447 0.892966 47.6626 0.0539551C47.6626 0.0539551 50.5852 3.85612 50.1386 7.57703C49.7057 11.298 42.3448 15.0462 36.1748 16.5621C34.435 16.9898 26.2775 20.5038 25.9924 24.4706C25.7075 20.5038 17.5437 16.9898 15.8039 16.5617C9.63405 15.0462 2.27371 11.298 1.8405 7.57703C1.39395 3.85612 4.31658 0.0539551 4.31658 0.0539551Z" fill="url(#paint2_linear_105_809)"/>
<path d="M23.1372 32.7441C22.9877 35.2668 25.9999 36.7945 25.9999 36.7945C25.9999 36.7945 29.0124 35.2668 28.8627 32.7441L25.9999 32.7533L23.1372 32.7441Z" fill="url(#paint3_linear_105_809)"/>
<path fill-rule="evenodd" clip-rule="evenodd" d="M22.1378 28.3232C21.9957 27.9822 21.2248 26.6351 19.4316 26.1102C19.2349 26.0525 18.9174 26.0156 18.8381 26.4689C18.7686 26.8674 18.9015 27.3891 19.1456 27.7053C19.5924 28.2833 20.1017 28.5437 20.7274 28.663C20.9945 28.7138 21.3859 28.7962 21.7171 28.7733C21.8435 28.7664 21.9672 28.7327 22.0798 28.6744C22.2308 28.5976 22.2062 28.4871 22.1378 28.3232ZM21.7752 23.7301C21.299 23.1842 20.6358 22.2794 18.8917 21.6249C18.6997 21.5526 18.3775 21.5303 18.2984 21.9836C18.2289 22.3823 18.3616 22.904 18.606 23.22C19.0526 23.7979 19.5611 24.0639 20.1877 24.1778C20.4687 24.2286 20.6935 24.2886 21.1772 24.288C21.3124 24.2878 21.4496 24.2636 21.5749 24.2412C22.0543 24.1554 21.9365 23.915 21.7752 23.7301ZM29.862 28.3232C30.0042 27.9822 30.775 26.6351 32.5684 26.1102C32.7653 26.0525 33.0826 26.0156 33.1617 26.4689C33.2312 26.8674 33.0987 27.3891 32.8543 27.7053C32.4077 28.2833 31.8981 28.5437 31.2726 28.663C31.0053 28.7138 30.6139 28.7962 30.2831 28.7733C30.1565 28.7664 30.0328 28.7327 29.9201 28.6744C29.7691 28.5976 29.794 28.4871 29.862 28.3232ZM30.2245 23.7301C30.7009 23.1842 31.364 22.2794 33.1079 21.6249C33.3001 21.5526 33.6223 21.5303 33.7014 21.9836C33.7711 22.3823 33.6383 22.904 33.3938 23.22C32.9472 23.7979 32.4388 24.0639 31.8121 24.1778C31.5311 24.2286 31.3061 24.2886 30.8226 24.288C30.6876 24.2878 30.5502 24.2636 30.4247 24.2412C29.9457 24.1554 30.0634 23.915 30.2245 23.7301Z" fill="#6E93E5"/>
<path d="M4.26902 5.23022C4.26902 5.23022 4.05733 11.0723 12.6972 11.7748C13.7561 11.8649 14.9058 11.7416 15.9216 10.6922C17.4547 9.10779 17.3114 8.70127 18.3359 9.09585C19.3633 9.49066 20.7102 9.97488 22.2628 8.59637C23.8152 7.22087 24.6566 6.90289 26.0001 6.90289C27.3439 6.90289 28.1857 7.22087 29.7382 8.59661C31.291 9.97488 32.6377 9.49066 33.6652 9.09585C34.6894 8.70127 34.5463 9.10779 36.0794 10.6922C37.0953 11.7416 38.2448 11.8649 39.304 11.7748C47.9434 11.0723 47.7316 5.23022 47.7316 5.23022C47.651 5.63241 47.5163 6.02186 47.3314 6.38795C46.0139 8.99398 40.5957 9.76956 38.6916 9.56606C36.7967 9.36352 36.8156 8.64648 36.2132 7.63887C35.5832 6.58558 34.5504 6.64622 33.279 7.52272C31.7846 8.55587 30.075 8.12078 28.7717 6.71016C27.4658 5.29697 26.0001 5.29673 26.0001 5.29673C26.0001 5.29673 24.535 5.29697 23.2291 6.7104C21.9262 8.12078 20.2166 8.55562 18.7218 7.52272C17.4506 6.64622 16.4176 6.58558 15.7877 7.63887C15.1852 8.64648 15.2039 9.36352 13.309 9.56606C11.405 9.76975 5.98709 8.99398 4.66944 6.38795C4.4843 6.0219 4.34959 5.63245 4.26902 5.23022Z" fill="url(#paint4_linear_105_809)"/>
<defs>
<linearGradient id="paint0_linear_105_809" x1="15.9681" y1="34.1969" x2="36.0783" y2="34.1969" gradientUnits="userSpaceOnUse">
<stop stop-color="#3B60B2"/>
<stop offset="0.497" stop-color="#3B60B2"/>
<stop offset="0.499" stop-color="#4A78DF"/>
<stop offset="1" stop-color="#4A78DF"/>
</linearGradient>
<linearGradient id="paint1_linear_105_809" x1="47.3104" y1="11.4961" x2="4.65455" y2="11.4961" gradientUnits="userSpaceOnUse">
<stop stop-color="#253C70"/>
<stop offset="0.499" stop-color="#34549C"/>
<stop offset="0.5" stop-color="#3B60B2"/>
<stop offset="1" stop-color="#2C4886"/>
</linearGradient>
<linearGradient id="paint2_linear_105_809" x1="43.1582" y1="21.0161" x2="9.59682" y2="21.0161" gradientUnits="userSpaceOnUse">
<stop stop-color="#34549C"/>
<stop offset="0.512" stop-color="#4A78DF"/>
<stop offset="1" stop-color="#3B60B2"/>
</linearGradient>
<linearGradient id="paint3_linear_105_809" x1="22.6985" y1="34.314" x2="29.3867" y2="34.3487" gradientUnits="userSpaceOnUse">
<stop stop-color="#436CC9"/>
<stop offset="0.494" stop-color="#4A78DF"/>
<stop offset="1" stop-color="#4A78DF"/>
</linearGradient>
<linearGradient id="paint4_linear_105_809" x1="5.58901" y1="5.29673" x2="46.2383" y2="5.29673" gradientUnits="userSpaceOnUse">
<stop stop-color="#1E3059"/>
<stop offset="0.502" stop-color="#253C70"/>
<stop offset="1" stop-color="#162443"/>
</linearGradient>
</defs>
</svg>
