<?xml version="1.0" encoding="UTF-8" standalone="no"?>
<svg
   version="1.0"
   width="30"
   height="30"
   viewBox="0 0 30 30"
   preserveAspectRatio="xMidYMid"
   id="svg9"
   xml:space="preserve"
   sodipodi:docname="unlocked-active.svg"
   inkscape:export-filename="unlocked-active.svg"
   inkscape:export-xdpi="96"
   inkscape:export-ydpi="96"
   inkscape:version="1.3.2 (091e20ef0f, 2023-11-25, custom)"
   xmlns:inkscape="http://www.inkscape.org/namespaces/inkscape"
   xmlns:sodipodi="http://sodipodi.sourceforge.net/DTD/sodipodi-0.dtd"
   xmlns="http://www.w3.org/2000/svg"
   xmlns:svg="http://www.w3.org/2000/svg"><sodipodi:namedview
     id="namedview1"
     pagecolor="#8e8e8e"
     bordercolor="#666666"
     borderopacity="1.0"
     inkscape:showpageshadow="2"
     inkscape:pageopacity="0.0"
     inkscape:pagecheckerboard="0"
     inkscape:deskcolor="#d1d1d1"
     inkscape:zoom="49.881666"
     inkscape:cx="13.742524"
     inkscape:cy="16.509072"
     inkscape:window-width="3840"
     inkscape:window-height="2160"
     inkscape:window-x="0"
     inkscape:window-y="0"
     inkscape:window-maximized="1"
     inkscape:current-layer="svg9" /><defs
     id="defs9" /><path
     d="M 7.6231659,0.01227112 C 7.0644951,0.07256244 6.6897468,0.14220231 6.2529557,0.26285272 5.3815791,0.50878909 4.6367809,0.88002108 3.8780783,1.4415047 2.8895208,2.1769912 2.0687756,3.2210762 1.5538321,4.4020411 1.2893602,5.0122417 1.1054381,5.7013338 1.00897,6.4577141 0.97444869,6.7407737 0.9677362,6.9751066 0.9677362,8.3138452 c 0,1.4501081 0,1.5359584 0.0441106,1.6125271 0.08055,0.1508057 0.1540036,0.2320097 0.2735818,0.2969757 l 0.1194822,0.06261 H 3.083224 c 1.5610365,0 1.6828202,-0.0019 1.751767,-0.04181 0.1126736,-0.06029 0.2368549,-0.197209 0.2919931,-0.3155365 0.046029,-0.1044116 0.047946,-0.1415342 0.06233,-1.5800395 0.013425,-1.3990686 0.016301,-1.482586 0.06233,-1.6728473 C 5.4010453,6.0701658 5.6585171,5.5991772 6.0723898,5.1792186 6.5252909,4.7198239 7.1437026,4.3950057 7.7276889,4.3114784 c 0.2137446,-0.030194 0.6988656,-0.030194 0.9241174,0.00194 0.4943266,0.069582 1.0552987,0.3294636 1.4828837,0.6867694 0.464408,0.3897936 0.7541,0.8352624 0.947228,1.4617117 0.119482,0.3897838 0.117181,0.3155375 0.117181,3.1855981 v 2.6797914 l -0.137894,0.01858 c -0.733387,0.09977 -1.1839864,0.259862 -1.6783132,0.591649 -0.7494011,0.505798 -1.2713447,1.285375 -1.466678,2.197197 l -0.050823,0.232021 v 5.823628 5.82363 l 0.059453,0.255217 c 0.1172765,0.489561 0.296596,0.897905 0.5701778,1.2877 0.1471951,0.213458 0.5770818,0.638043 0.8069365,0.800461 0.4000643,0.280736 0.8874869,0.487227 1.4024289,0.593961 l 0.241363,0.04867 7.494778,-0.0019 c 6.519933,-0.0049 7.519998,-0.0097 7.694714,-0.03948 0.829951,-0.141534 1.577147,-0.573077 2.103598,-1.211129 0.204635,-0.248259 0.310405,-0.415315 0.455203,-0.71229 0.232155,-0.484915 0.310404,-0.821346 0.331021,-1.415308 0.0096,-0.229697 0.0096,-2.877008 0,-5.881636 -0.01151,-5.055646 -0.01631,-5.475604 -0.05274,-5.626411 -0.264376,-1.088165 -0.908103,-1.921105 -1.855332,-2.401375 -0.278184,-0.141534 -0.572384,-0.238978 -0.898897,-0.303943 l -0.257473,-0.04878 -5.266999,-0.0048 -5.266999,-0.0019 -0.01342,-2.9002163 c -0.0096,-1.5962783 -0.0211,-2.9257359 -0.0278,-2.9582235 -0.0096,-0.032516 -0.02493,-0.1577639 -0.03932,-0.2784144 -0.01342,-0.1206504 -0.05753,-0.357306 -0.09398,-0.5220377 C 15.031352,4.7059697 14.663509,3.8939143 14.047399,3.0238514 12.86111,1.3440524 10.959846,0.23732422 8.9114835,0.03083368 8.5941749,6.3962793e-4 7.8423765,-0.01087668 7.6217275,0.01225273 Z M 19.030747,16.803358 c 0.650632,0.167053 1.236919,0.647323 1.524215,1.25521 0.135687,0.287696 0.193127,0.466353 0.234552,0.751727 0.08535,0.568441 -0.08918,1.225055 -0.452901,1.716928 -0.126475,0.1717 -0.333323,0.380513 -0.471311,0.480279 l -0.06616,0.04645 0.02973,0.139212 c 0.01631,0.07424 0.133385,0.533642 0.259868,1.018555 0.126386,0.484916 0.308007,1.174008 0.40227,1.531314 0.09205,0.357306 0.200032,0.761017 0.236854,0.897906 0.09205,0.331784 0.08918,0.429228 0,0.52436 l -0.07096,0.07422 H 18.44303 16.22906 l -0.07096,-0.08118 c -0.04124,-0.04867 -0.07096,-0.109045 -0.07096,-0.14617 0,-0.08118 0.07384,-0.389784 0.285089,-1.183288 0.278089,-1.039431 0.698866,-2.656594 0.70577,-2.707632 0.0096,-0.03252 -0.07096,-0.127614 -0.266678,-0.324829 -0.19773,-0.199532 -0.308102,-0.331785 -0.388556,-0.470997 -0.381654,-0.647325 -0.448298,-1.426902 -0.181621,-2.069591 0.154004,-0.368899 0.337925,-0.640363 0.602301,-0.886301 0.365543,-0.34338 0.800129,-0.552203 1.289757,-0.624126 0.223045,-0.03252 0.657535,-0.0049 0.901198,0.05796 z"
     id="path2-3"
     style="fill:#fefefe;fill-opacity:1;stroke:none;stroke-width:0.00230956" /></svg>
