<?xml version="1.0" encoding="UTF-8" standalone="no"?>
<svg
   version="1.0"
   width="29"
   height="31"
   viewBox="0 0 29 31"
   preserveAspectRatio="xMidYMid"
   id="svg9"
   xml:space="preserve"
   xmlns="http://www.w3.org/2000/svg"
   xmlns:svg="http://www.w3.org/2000/svg"><defs
     id="defs9" /><path
     d="M 6.8773251,0.01268681 C 6.300032,0.07498784 5.9127921,0.14694903 5.4614413,0.27162111 4.5610189,0.52575533 3.7913942,0.90936168 3.0074016,1.4895613 1.9858923,2.249564 1.137789,3.3284517 0.60568078,4.548782 0.33239313,5.1793225 0.14234032,5.8913843 0.0426567,6.6729772 0.00698464,6.9654721 4.840746e-5,7.207616 4.840746e-5,8.5909791 c 0,1.4984449 0,1.5871569 0.04558097254,1.6662779 0.08323483,0.155833 0.15913704,0.239744 0.28270111,0.306875 l 0.12346496,0.0647 H 2.1860522 c 1.6130709,0 1.7389141,-0.002 1.8101591,-0.0432 0.1164294,-0.0623 0.24475,-0.203783 0.3017262,-0.326055 0.047563,-0.107892 0.049544,-0.146252 0.064408,-1.6327073 C 4.3762177,7.1811656 4.3791904,7.0948643 4.426753,6.898261 4.581134,6.2725106 4.8471882,5.7858225 5.2748566,5.3518653 5.7428543,4.8771575 6.3818797,4.541512 6.9853322,4.4552005 c 0.2208694,-0.0312 0.722161,-0.0312 0.9549212,0.002 0.5108041,0.071901 1.0904752,0.3404457 1.5323133,0.7096617 0.4798879,0.4027867 0.7792363,0.8631044 0.9788013,1.5104352 0.123465,0.4027766 0.121087,0.3260554 0.121087,3.2917844 v 2.7691172 l -0.14249,0.0192 c -0.757833,0.103092 -1.2234524,0.268524 -1.7342567,0.61137 -0.774381,0.522658 -1.3137227,1.328221 -1.5155671,2.270437 l -0.052517,0.239755 v 6.017749 6.01775 l 0.061435,0.263724 c 0.1211857,0.505879 0.3064825,0.927835 0.5891836,1.330623 0.1521016,0.220573 0.5963179,0.659311 0.8338344,0.827143 0.4133997,0.290094 0.9170694,0.503468 1.4491768,0.61376 L 10.310662,31 18.055265,30.998 c 6.737263,-0.0051 7.770663,-0.01 7.951203,-0.0408 0.857616,-0.146252 1.629719,-0.592179 2.173718,-1.2515 0.211456,-0.256534 0.320752,-0.429158 0.470376,-0.736032 0.239894,-0.501079 0.320751,-0.848725 0.342055,-1.462485 0.0099,-0.237354 0.0099,-2.972908 0,-6.07769 -0.01189,-5.224167 -0.01685,-5.658124 -0.0545,-5.813958 -0.273188,-1.124437 -0.938373,-1.985141 -1.917176,-2.48142 -0.287457,-0.146252 -0.591463,-0.246944 -0.92886,-0.314075 l -0.266055,-0.0504 -5.442566,-0.005 -5.442565,-0.002 -0.01387,-2.9968902 c -0.0099,-1.6494874 -0.0218,-3.0232601 -0.02873,-3.0568306 -0.0099,-0.0336 -0.02576,-0.1630227 -0.04063,-0.2876949 -0.01387,-0.124672 -0.05945,-0.3692161 -0.09711,-0.5394389 C 14.53245,4.8628415 14.152345,4.0237177 13.515698,3.1246527 12.289867,1.3888606 10.325228,0.24524166 8.2085865,0.03186812 7.8807009,6.6760716e-4 7.1038427,-0.01123258 6.8758387,0.01266781 Z M 18.665158,17.363475 c 0.672319,0.172622 1.278149,0.668901 1.575021,1.297051 0.14021,0.297285 0.199565,0.481898 0.242371,0.776784 0.08819,0.587389 -0.09215,1.26589 -0.467998,1.774159 -0.130691,0.177423 -0.344433,0.393196 -0.487021,0.496288 l -0.06837,0.048 0.03072,0.143853 c 0.01685,0.07671 0.137832,0.55143 0.268531,1.052507 0.130599,0.501079 0.318274,1.213141 0.415679,1.582357 0.09512,0.369216 0.206699,0.786384 0.244749,0.927836 0.09512,0.342844 0.09215,0.443536 0,0.541839 l -0.07333,0.07669 h -2.287669 -2.287769 l -0.07333,-0.08389 c -0.04261,-0.05029 -0.07333,-0.11268 -0.07333,-0.151043 0,-0.08389 0.0763,-0.402776 0.294592,-1.222731 0.287358,-1.074078 0.722161,-2.745146 0.729296,-2.797886 0.0099,-0.0336 -0.07333,-0.131867 -0.275568,-0.335656 -0.204321,-0.206183 -0.318372,-0.342845 -0.401508,-0.486697 -0.394375,-0.668902 -0.463241,-1.474465 -0.187675,-2.138577 0.159138,-0.381196 0.34919,-0.661709 0.622378,-0.915845 0.377728,-0.354825 0.8268,-0.570609 1.332749,-0.64493 0.23048,-0.0336 0.679453,-0.0051 0.931238,0.05989 z"
     id="path2-3"
     style="fill:#fefefe;fill-opacity:1;stroke:none;stroke-width:0.00238655" /></svg>
