<?xml version="1.0" encoding="UTF-8" standalone="no"?>
<!-- Created with Inkscape (http://www.inkscape.org/) -->

<svg
   width="60"
   height="60"
   viewBox="0 0 60 60"
   version="1.1"
   id="svg1"
   xml:space="preserve"
   xmlns="http://www.w3.org/2000/svg"
   xmlns:svg="http://www.w3.org/2000/svg"><defs
     id="defs1" /><g
     id="layer1"><g
       id="g5"
       transform="matrix(0.20371407,0,0,0.20371407,8.0774459,9.4081033)"><g
         id="Layer_1">&#10;</g><g
         id="thin">&#10;</g><g
         id="tick">&#10;	<g
   id="g3">&#10;		<g
   id="g2">&#10;			<linearGradient
   id="SVGID_1_"
   gradientUnits="userSpaceOnUse"
   x1="32.488201"
   y1="170.08389"
   x2="119.4966"
   y2="84.7733">&#10;				<stop
   offset="0.1767"
   style="stop-color:#1A44B7"
   id="stop1" />&#10;				<stop
   offset="1"
   style="stop-color:#4760FF"
   id="stop2" />&#10;			</linearGradient>&#10;			<path
   class="st0"
   d="m 198.5,135.5 c -1.3,-1.3 -3.2,-1.7 -4.8,-1 C 146.1,154.1 91.5,131.6 71.9,84 61.9,59.8 62.5,32.6 73.6,8.9 74.6,6.7 73.7,4.1 71.5,3.1 70.3,2.5 69,2.5 67.9,3 15.7,24.4 -9.2,84 12.2,136.2 c 21.4,52.2 81.1,77.1 133.2,55.6 23.8,-9.8 43,-28.2 53.8,-51.5 0.8,-1.6 0.5,-3.5 -0.7,-4.8 z"
   id="path2"
   style="fill:url(#SVGID_1_)" />&#10;		</g>&#10;	</g>&#10;	<g
   id="g4">&#10;		<linearGradient
   id="SVGID_2_"
   gradientUnits="userSpaceOnUse"
   x1="36.451599"
   y1="164.2357"
   x2="129.60049"
   y2="72.904404">&#10;			<stop
   offset="0.1767"
   style="stop-color:#1A44B7"
   id="stop3" />&#10;			<stop
   offset="1"
   style="stop-color:#4760FF"
   id="stop4" />&#10;		</linearGradient>&#10;		<path
   class="st1"
   d="m 180.2,117.8 -10.7,7.4 C 143.4,107.1 117.2,89 91,70.9 c 0,-0.1 0,-0.2 0,-0.3 v -4.8 c 0,-1.6 0,-3.1 0,-4.7 v -4.9 c 29.8,20.5 59.5,41 89.2,61.6 z M 158.3,47.7 c -4.7,3.2 -9.5,6.4 -14.3,9.7 -0.6,0.4 -1.1,0.4 -1.7,0 -5.9,-4.1 -11.8,-8.1 -17.6,-12.2 -6.2,-4.3 -12.3,-8.6 -18.5,-12.9 -2.9,-2 -5.8,-4.1 -8.8,-6.1 H 76.2 c 1.1,0.8 2.1,1.4 3,2.1 5.5,3.8 11.1,7.7 16.6,11.5 5.5,3.8 11,7.6 16.4,11.4 5.1,3.6 10.3,7.2 15.4,10.8 4.9,3.4 9.8,6.8 14.7,10.2 0.5,0.4 0.9,0.4 1.4,0 4,-2.7 7.9,-5.4 11.9,-8.1 9.8,-6.7 19.6,-13.4 29.3,-20.1 7.1,-4.9 14.2,-9.7 21.3,-14.6 1.5,-1 2.9,-2 4.5,-3.1 h -21.3 c -10.2,7.1 -20.7,14.2 -31.1,21.4 z m 37.5,8.4 c -13.1,9.1 -26,18 -39,27 0.2,0.2 0.3,0.4 0.4,0.5 3.3,2.3 6.6,4.7 9.9,7 0.1,0.1 0.2,0.1 0.4,0.1 9.4,-6.5 18.8,-13 28.3,-19.6 0,-0.1 0.1,-0.2 0.1,-0.3 V 56.1 Z m 0.1,36.7 c -4.4,3.1 -8.7,6 -13,9 3.5,2.5 6.8,4.8 10.1,7.2 l 2.9,-2 z"
   id="path4"
   style="fill:url(#SVGID_2_)" />&#10;	</g>&#10;</g></g></g><style
     type="text/css"
     id="style1">&#10;	.st0{fill:url(#SVGID_1_);}&#10;	.st1{fill:url(#SVGID_2_);}&#10;	.st2{fill:url(#SVGID_3_);}&#10;	.st3{fill:url(#SVGID_4_);}&#10;	.st4{fill:url(#SVGID_5_);}&#10;	.st5{fill:url(#SVGID_6_);}&#10;	.st6{fill:#FFFFFF;}&#10;	.st7{fill:url(#SVGID_7_);}&#10;	.st8{fill:url(#SVGID_8_);}&#10;	.st9{fill:url(#SVGID_9_);}&#10;	.st10{fill:url(#SVGID_10_);}&#10;	.st11{fill:url(#SVGID_11_);}&#10;	.st12{fill:url(#SVGID_12_);}&#10;	.st13{fill:url(#SVGID_13_);}&#10;	.st14{fill:url(#SVGID_14_);}&#10;	.st15{fill:url(#SVGID_15_);}&#10;	.st16{fill:url(#SVGID_16_);}&#10;	.st17{fill:url(#SVGID_17_);}&#10;	.st18{fill:url(#SVGID_18_);}&#10;	.st19{fill:url(#SVGID_19_);}&#10;	.st20{fill:url(#SVGID_20_);}&#10;	.st21{fill:url(#SVGID_21_);}&#10;	.st22{fill:url(#SVGID_22_);}&#10;	.st23{fill:url(#SVGID_23_);}&#10;	.st24{fill:url(#SVGID_24_);}&#10;	.st25{fill:url(#SVGID_25_);}&#10;	.st26{fill:url(#SVGID_26_);}&#10;	.st27{fill:url(#SVGID_27_);}&#10;	.st28{fill:url(#SVGID_28_);}&#10;	.st29{fill:url(#SVGID_29_);}&#10;	.st30{fill:url(#SVGID_30_);}&#10;	.st31{fill:url(#SVGID_31_);}&#10;	.st32{fill:url(#SVGID_32_);}&#10;	.st33{fill:url(#SVGID_33_);}&#10;	.st34{fill:url(#SVGID_34_);}&#10;	.st35{fill:url(#SVGID_35_);}&#10;	.st36{fill:url(#SVGID_36_);}&#10;	.st37{fill:url(#SVGID_37_);}&#10;	.st38{fill:url(#SVGID_38_);}&#10;	.st39{fill:url(#SVGID_39_);}&#10;	.st40{fill:url(#SVGID_40_);}&#10;	.st41{fill:url(#SVGID_41_);}&#10;	.st42{fill:url(#SVGID_42_);}&#10;	.st43{fill:url(#SVGID_43_);}&#10;	.st44{fill:url(#SVGID_44_);}&#10;	.st45{fill:url(#SVGID_45_);}&#10;	.st46{fill:url(#SVGID_46_);}&#10;	.st47{fill:url(#SVGID_47_);}&#10;	.st48{fill:url(#SVGID_48_);}&#10;	.st49{fill:url(#SVGID_49_);}&#10;	.st50{fill:url(#SVGID_50_);}&#10;	.st51{fill:url(#SVGID_51_);}&#10;	.st52{fill:url(#SVGID_52_);}&#10;	.st53{fill:url(#SVGID_53_);}&#10;	.st54{fill:url(#SVGID_54_);}&#10;	.st55{fill:url(#SVGID_55_);}&#10;	.st56{fill:url(#Shape_3_);}&#10;	.st57{fill:url(#Shape_4_);}&#10;	.st58{fill:url(#SVGID_56_);}&#10;	.st59{fill:url(#SVGID_57_);}&#10;	.st60{fill:url(#SVGID_58_);}&#10;	.st61{fill:url(#SVGID_59_);}&#10;	.st62{fill:url(#SVGID_60_);}&#10;	.st63{fill:url(#SVGID_61_);}&#10;	.st64{fill:url(#SVGID_62_);}&#10;	.st65{fill:url(#SVGID_63_);}&#10;	.st66{fill:url(#SVGID_64_);}&#10;	.st67{fill:url(#SVGID_65_);}&#10;	.st68{fill:url(#SVGID_66_);}&#10;	.st69{fill:url(#SVGID_67_);}&#10;	.st70{fill:url(#SVGID_68_);}&#10;	.st71{fill:url(#SVGID_69_);}&#10;	.st72{fill:url(#SVGID_70_);}&#10;	.st73{fill:url(#SVGID_71_);}&#10;	.st74{fill:url(#SVGID_72_);}&#10;	.st75{fill:url(#SVGID_73_);}&#10;	.st76{fill:url(#SVGID_74_);}&#10;	.st77{fill:none;stroke:url(#SVGID_75_);stroke-width:6;stroke-miterlimit:10;}&#10;	.st78{fill:url(#SVGID_76_);}&#10;	.st79{fill:url(#SVGID_77_);}&#10;	.st80{fill:url(#SVGID_78_);}&#10;	.st81{opacity:0.2;}&#10;	.st82{fill:url(#SVGID_79_);}&#10;	.st83{fill:url(#SVGID_80_);}&#10;	.st84{fill:url(#SVGID_81_);}&#10;	.st85{fill:url(#SVGID_82_);}&#10;	.st86{fill:url(#SVGID_83_);}&#10;	.st87{fill:url(#SVGID_84_);}&#10;	.st88{fill:url(#SVGID_85_);}&#10;	.st89{fill:url(#SVGID_86_);}&#10;	.st90{fill:url(#SVGID_87_);}&#10;	.st91{fill:url(#Shape_5_);}&#10;	.st92{fill:none;}&#10;	.st93{fill:url(#SVGID_88_);}&#10;	.st94{fill:url(#SVGID_89_);}&#10;	.st95{fill:url(#SVGID_90_);}&#10;	.st96{fill:url(#SVGID_91_);}&#10;	.st97{fill:url(#SVGID_92_);}&#10;	.st98{fill:#2D2D2D;}&#10;	.st99{fill:url(#SVGID_93_);}&#10;	.st100{fill:url(#SVGID_94_);}&#10;</style></svg>
