<svg width="83" height="83" viewBox="0 0 83 83" fill="none" xmlns="http://www.w3.org/2000/svg">
<rect width="83" height="83" rx="11" fill="white"/>
<path d="M64.974 30.1279C64.6966 29.1383 64.1562 28.2424 63.4103 27.5353C62.6433 26.8066 61.7033 26.2852 60.6789 26.0206C56.8452 25.0101 41.4857 25.0101 41.4857 25.0101C35.0825 24.9373 28.6809 25.2577 22.317 25.9696C21.2927 26.2538 20.3544 26.7867 19.5857 27.521C18.8303 28.2478 18.2833 29.1439 17.9975 30.1259C17.3109 33.8243 16.9774 37.5797 17.0013 41.3413C16.9768 45.0995 17.3095 48.8536 17.9975 52.5567C18.2771 53.5345 18.8222 54.4266 19.5795 55.1472C20.3369 55.8678 21.28 56.3884 22.317 56.6639C26.2018 57.6724 41.4857 57.6724 41.4857 57.6724C47.897 57.7453 54.3068 57.4249 60.6789 56.7129C61.7033 56.4483 62.6433 55.927 63.4103 55.1982C64.1559 54.4913 64.6957 53.5953 64.9719 52.6057C65.6764 48.9086 66.0189 45.1517 65.9947 41.3882C66.0477 37.6088 65.7056 33.8342 64.974 30.1259V30.1279ZM36.6027 48.331V34.3536L49.3818 41.3433L36.6027 48.331Z" fill="#0D0D0D"/>
</svg>
